<svg xmlns="http://www.w3.org/2000/svg" xmlns:xlink="http://www.w3.org/1999/xlink" width="512" zoomAndPan="magnify" viewBox="0 0 384 383.999986" height="512" preserveAspectRatio="xMidYMid meet" version="1.0"><defs><g/><clipPath id="d88afd775a"><path d="M 12 234 L 384 234 L 384 355.050781 L 12 355.050781 Z M 12 234 " clip-rule="nonzero"/></clipPath><clipPath id="1f9ce85764"><path d="M 0 28.800781 L 238 28.800781 L 238 338 L 0 338 Z M 0 28.800781 " clip-rule="nonzero"/></clipPath></defs><g clip-path="url(#d88afd775a)"><path fill="#231f20" d="M 371.570312 242.046875 C 367.066406 239.539062 362.191406 237.558594 357.082031 236.222656 C 354.523438 235.558594 351.914062 235.054688 349.261719 234.707031 L 349.015625 234.667969 L 348.890625 234.652344 L 348.765625 234.640625 L 348.265625 234.585938 C 347.933594 234.546875 347.601562 234.507812 347.269531 234.472656 C 346.933594 234.441406 346.601562 234.414062 346.269531 234.386719 L 345.769531 234.34375 C 345.683594 234.332031 345.601562 234.328125 345.511719 234.320312 L 345.265625 234.304688 C 344.929688 234.28125 344.59375 234.261719 344.257812 234.242188 C 344.089844 234.230469 343.921875 234.21875 343.753906 234.210938 L 343.25 234.195312 C 342.914062 234.179688 342.574219 234.167969 342.238281 234.152344 C 341.902344 234.144531 341.5625 234.144531 341.226562 234.136719 C 339.878906 234.113281 338.523438 234.144531 337.167969 234.191406 C 336.828125 234.207031 336.488281 234.226562 336.148438 234.246094 L 335.640625 234.273438 L 335.386719 234.285156 L 335.132812 234.304688 C 334.792969 234.328125 334.457031 234.355469 334.113281 234.378906 C 333.945312 234.394531 333.773438 234.402344 333.605469 234.417969 L 333.097656 234.46875 C 332.753906 234.5 332.414062 234.53125 332.074219 234.566406 C 331.738281 234.601562 331.398438 234.644531 331.058594 234.683594 L 330.546875 234.742188 L 330.292969 234.773438 L 330.039062 234.808594 C 329.699219 234.851562 329.359375 234.898438 329.019531 234.945312 C 328.851562 234.96875 328.683594 234.988281 328.511719 235.015625 L 328.003906 235.097656 C 327.664062 235.148438 327.324219 235.203125 326.984375 235.257812 C 326.644531 235.308594 326.308594 235.375 325.96875 235.433594 L 325.460938 235.523438 C 325.292969 235.550781 325.121094 235.582031 324.953125 235.613281 C 322.25 236.128906 319.546875 236.757812 316.867188 237.488281 L 316.617188 237.554688 L 316.367188 237.625 L 315.863281 237.765625 C 315.53125 237.867188 315.195312 237.957031 314.859375 238.054688 C 314.527344 238.15625 314.191406 238.257812 313.859375 238.355469 C 313.527344 238.457031 313.191406 238.558594 312.859375 238.664062 C 312.195312 238.878906 311.527344 239.085938 310.867188 239.3125 C 310.535156 239.421875 310.199219 239.53125 309.871094 239.644531 C 309.539062 239.761719 309.207031 239.875 308.878906 239.992188 C 307.554688 240.453125 306.238281 240.945312 304.921875 241.449219 C 304.59375 241.574219 304.269531 241.707031 303.941406 241.835938 C 303.613281 241.96875 303.285156 242.09375 302.960938 242.230469 C 302.632812 242.363281 302.304688 242.5 301.976562 242.632812 L 301.488281 242.832031 L 301 243.042969 C 298.394531 244.140625 295.8125 245.320312 293.246094 246.5625 C 290.683594 247.816406 288.144531 249.132812 285.621094 250.507812 L 284.675781 251.03125 C 284.363281 251.203125 284.050781 251.378906 283.730469 251.554688 C 283.417969 251.726562 283.109375 251.90625 282.792969 252.085938 C 282.480469 252.265625 282.167969 252.441406 281.851562 252.621094 C 281.542969 252.800781 281.226562 252.984375 280.914062 253.164062 C 280.605469 253.34375 280.292969 253.527344 279.984375 253.710938 C 279.363281 254.078125 278.738281 254.445312 278.121094 254.8125 C 277.804688 254.996094 277.5 255.183594 277.1875 255.371094 C 276.878906 255.558594 276.570312 255.746094 276.257812 255.929688 C 275.949219 256.117188 275.636719 256.304688 275.324219 256.492188 C 275.019531 256.679688 274.710938 256.871094 274.402344 257.058594 C 273.78125 257.441406 273.160156 257.820312 272.542969 258.203125 C 271.925781 258.585938 271.3125 258.972656 270.695312 259.359375 L 270.230469 259.648438 L 269.769531 259.941406 C 269.460938 260.136719 269.152344 260.332031 268.847656 260.527344 C 268.535156 260.722656 268.230469 260.917969 267.921875 261.113281 C 267.613281 261.308594 267.308594 261.507812 266.996094 261.703125 C 266.382812 262.097656 265.769531 262.496094 265.152344 262.890625 C 264.539062 263.292969 263.929688 263.695312 263.3125 264.09375 C 253.496094 270.523438 243.769531 277.382812 233.972656 284.386719 C 224.175781 291.390625 214.304688 298.546875 204.175781 305.558594 C 201.644531 307.308594 199.097656 309.054688 196.53125 310.78125 C 193.960938 312.511719 191.378906 314.226562 188.765625 315.917969 C 188.117188 316.34375 187.460938 316.761719 186.804688 317.183594 C 186.152344 317.605469 185.496094 318.027344 184.835938 318.441406 C 184.179688 318.859375 183.519531 319.273438 182.859375 319.691406 C 182.199219 320.105469 181.535156 320.515625 180.875 320.929688 C 178.21875 322.574219 175.539062 324.195312 172.832031 325.78125 C 170.121094 327.363281 167.386719 328.917969 164.625 330.429688 C 161.859375 331.941406 159.066406 333.40625 156.242188 334.832031 C 153.417969 336.261719 150.558594 337.628906 147.667969 338.945312 C 146.226562 339.609375 144.765625 340.242188 143.308594 340.878906 C 142.578125 341.1875 141.84375 341.496094 141.113281 341.808594 C 140.746094 341.964844 140.375 342.113281 140.007812 342.265625 C 139.640625 342.414062 139.269531 342.5625 138.902344 342.710938 C 138.582031 342.84375 138.261719 342.972656 137.941406 343.101562 C 137.621094 343.230469 137.296875 343.355469 136.976562 343.480469 C 136.652344 343.605469 136.332031 343.730469 136.011719 343.855469 L 135.527344 344.042969 C 135.367188 344.109375 135.207031 344.167969 135.046875 344.230469 C 133.75 344.710938 132.464844 345.203125 131.164062 345.65625 C 130.839844 345.769531 130.515625 345.886719 130.191406 346 L 129.707031 346.171875 L 129.21875 346.339844 C 128.566406 346.558594 127.914062 346.78125 127.265625 347 C 127.101562 347.054688 126.941406 347.113281 126.777344 347.164062 L 126.285156 347.320312 C 125.957031 347.425781 125.632812 347.53125 125.304688 347.636719 C 124.980469 347.742188 124.652344 347.847656 124.324219 347.949219 L 124.082031 348.027344 L 123.835938 348.105469 L 123.34375 348.253906 C 122.6875 348.449219 122.03125 348.652344 121.375 348.847656 C 121.210938 348.902344 121.046875 348.945312 120.882812 348.992188 L 120.386719 349.132812 C 120.058594 349.226562 119.730469 349.320312 119.402344 349.414062 C 119.074219 349.507812 118.746094 349.597656 118.414062 349.695312 C 118.085938 349.78125 117.753906 349.871094 117.425781 349.960938 C 116.765625 350.136719 116.105469 350.308594 115.445312 350.484375 C 112.8125 351.160156 110.183594 351.738281 107.558594 352.046875 C 106.246094 352.199219 104.933594 352.28125 103.636719 352.269531 C 102.335938 352.253906 101.046875 352.152344 99.789062 351.929688 C 99.632812 351.898438 99.472656 351.875 99.320312 351.839844 L 99.085938 351.792969 L 98.964844 351.769531 L 98.855469 351.742188 C 98.554688 351.675781 98.257812 351.59375 97.964844 351.503906 C 97.671875 351.417969 97.382812 351.3125 97.097656 351.203125 C 96.8125 351.09375 96.53125 350.972656 96.257812 350.84375 C 95.984375 350.710938 95.714844 350.574219 95.457031 350.417969 L 95.359375 350.363281 L 95.265625 350.304688 L 95.078125 350.183594 C 94.953125 350.101562 94.828125 350.019531 94.710938 349.933594 C 94.652344 349.890625 94.589844 349.847656 94.53125 349.804688 L 94.359375 349.671875 C 94.300781 349.625 94.25 349.578125 94.191406 349.53125 L 94.109375 349.460938 C 94.082031 349.441406 94.054688 349.417969 94.03125 349.390625 C 93.8125 349.199219 93.617188 349 93.429688 348.792969 C 93.066406 348.375 92.765625 347.921875 92.558594 347.449219 C 92.453125 347.210938 92.378906 346.964844 92.316406 346.71875 C 92.253906 346.472656 92.226562 346.21875 92.207031 345.964844 C 92.179688 345.453125 92.246094 344.929688 92.394531 344.394531 C 92.542969 343.867188 92.769531 343.332031 93.050781 342.800781 C 93.335938 342.269531 93.671875 341.742188 94.035156 341.222656 C 94.21875 340.960938 94.410156 340.699219 94.605469 340.4375 C 94.703125 340.308594 94.800781 340.175781 94.902344 340.046875 L 95.199219 339.660156 C 95.601562 339.148438 96.019531 338.644531 96.449219 338.148438 C 96.878906 337.652344 97.316406 337.160156 97.761719 336.671875 C 98.65625 335.703125 99.582031 334.75 100.523438 333.808594 C 101.460938 332.867188 102.417969 331.9375 103.378906 331.011719 C 105.300781 329.160156 107.246094 327.320312 109.160156 325.445312 C 111.078125 323.570312 112.964844 321.664062 114.773438 319.671875 C 115.675781 318.671875 116.558594 317.65625 117.410156 316.613281 C 117.621094 316.347656 117.835938 316.085938 118.042969 315.820312 L 118.355469 315.421875 L 118.664062 315.015625 C 118.867188 314.75 119.066406 314.472656 119.269531 314.203125 C 119.367188 314.0625 119.464844 313.925781 119.5625 313.789062 C 119.660156 313.648438 119.761719 313.515625 119.855469 313.371094 L 120.144531 312.953125 C 120.242188 312.8125 120.332031 312.667969 120.425781 312.527344 C 120.617188 312.246094 120.796875 311.957031 120.976562 311.667969 C 121.335938 311.089844 121.683594 310.503906 122.007812 309.902344 C 122.175781 309.601562 122.328125 309.296875 122.484375 308.992188 C 122.5625 308.839844 122.636719 308.683594 122.710938 308.53125 L 122.824219 308.300781 L 122.929688 308.066406 L 123.144531 307.59375 L 123.34375 307.117188 C 123.410156 306.960938 123.472656 306.796875 123.535156 306.636719 L 123.628906 306.394531 C 123.660156 306.316406 123.691406 306.234375 123.71875 306.152344 L 123.890625 305.664062 C 123.921875 305.582031 123.945312 305.5 123.972656 305.417969 L 124.050781 305.167969 L 124.128906 304.921875 C 124.152344 304.839844 124.175781 304.753906 124.199219 304.671875 C 124.246094 304.503906 124.296875 304.335938 124.339844 304.167969 C 124.511719 303.492188 124.65625 302.8125 124.761719 302.121094 C 124.863281 301.429688 124.929688 300.726562 124.949219 300.023438 C 124.964844 299.316406 124.933594 298.601562 124.847656 297.890625 C 124.679688 296.476562 124.269531 295.070312 123.625 293.78125 C 123.300781 293.136719 122.925781 292.523438 122.496094 291.949219 C 122.070312 291.375 121.597656 290.84375 121.089844 290.347656 C 120.070312 289.363281 118.921875 288.554688 117.71875 287.882812 C 116.507812 287.21875 115.242188 286.695312 113.953125 286.285156 C 113.304688 286.082031 112.65625 285.90625 112 285.757812 C 111.671875 285.679688 111.34375 285.613281 111.015625 285.546875 L 110.519531 285.457031 C 110.355469 285.429688 110.1875 285.40625 110.023438 285.378906 C 109.363281 285.277344 108.699219 285.199219 108.035156 285.144531 C 107.371094 285.089844 106.707031 285.058594 106.042969 285.046875 C 105.378906 285.035156 104.714844 285.046875 104.050781 285.082031 C 103.386719 285.117188 102.726562 285.171875 102.066406 285.25 C 100.75 285.410156 99.441406 285.660156 98.15625 286.023438 L 97.675781 286.164062 C 97.515625 286.214844 97.355469 286.265625 97.195312 286.320312 C 97.117188 286.34375 97.042969 286.371094 96.964844 286.398438 L 96.734375 286.476562 L 96.277344 286.636719 L 96.046875 286.71875 L 95.820312 286.800781 L 95.367188 286.972656 C 95.214844 287.027344 95.0625 287.082031 94.914062 287.140625 L 94.460938 287.316406 C 93.261719 287.785156 92.078125 288.285156 90.910156 288.820312 C 89.742188 289.351562 88.59375 289.910156 87.457031 290.488281 C 87.175781 290.636719 86.890625 290.78125 86.609375 290.925781 C 86.328125 291.078125 86.046875 291.226562 85.765625 291.375 C 85.488281 291.527344 85.207031 291.675781 84.929688 291.828125 C 84.648438 291.976562 84.375 292.136719 84.097656 292.289062 C 82.988281 292.90625 81.894531 293.542969 80.8125 294.1875 C 79.730469 294.828125 78.65625 295.484375 77.59375 296.148438 C 75.464844 297.46875 73.367188 298.820312 71.277344 300.160156 C 70.234375 300.828125 69.191406 301.496094 68.152344 302.152344 C 67.628906 302.484375 67.109375 302.8125 66.585938 303.140625 C 66.066406 303.46875 65.542969 303.792969 65.019531 304.117188 C 63.976562 304.769531 62.933594 305.425781 61.890625 306.078125 C 60.851562 306.738281 59.816406 307.394531 58.785156 308.050781 C 54.664062 310.699219 50.609375 313.378906 46.621094 316.09375 C 45.625 316.777344 44.628906 317.449219 43.644531 318.140625 C 43.152344 318.480469 42.660156 318.824219 42.167969 319.167969 C 41.675781 319.507812 41.183594 319.847656 40.695312 320.195312 C 39.71875 320.886719 38.746094 321.574219 37.769531 322.261719 C 36.804688 322.957031 35.839844 323.652344 34.878906 324.34375 C 27.195312 329.917969 19.789062 335.609375 12.703125 341.429688 C 28.59375 329.011719 46.015625 317.050781 64.78125 305.761719 C 65.367188 305.410156 65.953125 305.058594 66.542969 304.703125 C 67.132812 304.351562 67.722656 303.992188 68.3125 303.636719 C 69.488281 302.921875 70.664062 302.195312 71.839844 301.464844 C 74.191406 300.011719 76.546875 298.546875 78.933594 297.121094 C 81.324219 295.691406 83.746094 294.304688 86.222656 293.011719 C 88.703125 291.722656 91.234375 290.523438 93.84375 289.480469 C 94.492188 289.21875 95.148438 288.972656 95.808594 288.730469 L 96.304688 288.554688 C 96.472656 288.496094 96.636719 288.433594 96.804688 288.378906 L 97.304688 288.214844 L 97.554688 288.128906 C 97.636719 288.101562 97.71875 288.074219 97.800781 288.050781 C 99.101562 287.636719 100.460938 287.355469 101.835938 287.183594 C 103.210938 287.011719 104.605469 286.949219 105.996094 286.988281 C 107.390625 287.03125 108.78125 287.171875 110.152344 287.421875 C 111.523438 287.671875 112.871094 288.035156 114.167969 288.519531 C 115.460938 289.011719 116.703125 289.632812 117.824219 290.402344 C 118.945312 291.175781 119.945312 292.101562 120.738281 293.179688 C 121.132812 293.714844 121.476562 294.289062 121.753906 294.890625 C 122.035156 295.492188 122.257812 296.121094 122.414062 296.769531 C 122.574219 297.417969 122.671875 298.085938 122.707031 298.761719 C 122.746094 299.433594 122.726562 300.117188 122.664062 300.800781 C 122.597656 301.480469 122.488281 302.167969 122.332031 302.84375 C 122.175781 303.519531 121.984375 304.191406 121.757812 304.855469 C 121.523438 305.515625 121.257812 306.167969 120.96875 306.816406 L 120.746094 307.296875 L 120.507812 307.773438 C 120.429688 307.933594 120.34375 308.089844 120.261719 308.246094 L 120.136719 308.480469 C 120.09375 308.5625 120.050781 308.640625 120.007812 308.714844 C 119.664062 309.34375 119.289062 309.957031 118.902344 310.5625 C 118.515625 311.167969 118.105469 311.761719 117.683594 312.351562 C 115.988281 314.703125 114.054688 316.914062 112.019531 319.058594 C 109.980469 321.203125 107.839844 323.273438 105.660156 325.339844 C 103.484375 327.410156 101.265625 329.464844 99.085938 331.601562 C 98.542969 332.136719 98 332.675781 97.460938 333.222656 C 96.921875 333.769531 96.390625 334.324219 95.863281 334.890625 C 95.335938 335.453125 94.816406 336.03125 94.304688 336.617188 C 93.796875 337.210938 93.296875 337.8125 92.8125 338.4375 C 92.335938 339.050781 91.863281 339.691406 91.414062 340.371094 C 90.96875 341.054688 90.546875 341.78125 90.210938 342.585938 C 90.039062 342.984375 89.894531 343.402344 89.78125 343.839844 C 89.722656 344.058594 89.675781 344.28125 89.632812 344.507812 C 89.597656 344.730469 89.5625 344.960938 89.546875 345.195312 C 89.523438 345.425781 89.519531 345.660156 89.523438 345.894531 C 89.527344 346.011719 89.53125 346.128906 89.539062 346.246094 L 89.570312 346.597656 C 89.628906 347.066406 89.734375 347.527344 89.882812 347.976562 L 89.941406 348.140625 C 89.960938 348.199219 89.980469 348.253906 90.003906 348.304688 L 90.140625 348.632812 L 90.292969 348.945312 C 90.34375 349.050781 90.402344 349.152344 90.457031 349.253906 C 90.6875 349.652344 90.949219 350.03125 91.234375 350.378906 C 91.523438 350.726562 91.835938 351.046875 92.160156 351.347656 C 92.484375 351.644531 92.824219 351.917969 93.175781 352.171875 C 93.53125 352.421875 93.890625 352.652344 94.261719 352.867188 C 94.636719 353.078125 95.015625 353.265625 95.398438 353.445312 C 96.171875 353.792969 96.96875 354.078125 97.78125 354.292969 C 97.984375 354.347656 98.191406 354.398438 98.398438 354.441406 C 98.597656 354.484375 98.796875 354.527344 99 354.570312 C 99.199219 354.605469 99.402344 354.644531 99.601562 354.675781 L 100.054688 354.75 L 100.207031 354.769531 C 101.015625 354.886719 101.828125 354.957031 102.640625 354.996094 C 104.265625 355.070312 105.882812 355.007812 107.480469 354.84375 C 109.078125 354.679688 110.65625 354.417969 112.214844 354.105469 C 112.992188 353.945312 113.765625 353.773438 114.535156 353.59375 C 115.304688 353.410156 116.074219 353.222656 116.832031 353.015625 C 117.589844 352.820312 118.351562 352.621094 119.113281 352.417969 C 119.871094 352.207031 120.628906 351.992188 121.386719 351.777344 L 121.957031 351.621094 C 122.144531 351.5625 122.332031 351.503906 122.519531 351.449219 C 122.898438 351.335938 123.277344 351.222656 123.65625 351.109375 C 124.03125 350.996094 124.410156 350.882812 124.789062 350.769531 C 125.164062 350.652344 125.542969 350.53125 125.917969 350.410156 C 126.292969 350.292969 126.667969 350.171875 127.046875 350.054688 C 127.421875 349.933594 127.800781 349.816406 128.171875 349.683594 C 128.921875 349.433594 129.671875 349.183594 130.421875 348.929688 C 130.613281 348.867188 130.796875 348.800781 130.984375 348.738281 L 131.542969 348.539062 C 131.917969 348.40625 132.292969 348.273438 132.664062 348.140625 C 133.414062 347.878906 134.15625 347.601562 134.898438 347.324219 C 135.269531 347.1875 135.640625 347.050781 136.015625 346.910156 C 136.199219 346.84375 136.386719 346.769531 136.570312 346.699219 L 137.125 346.484375 C 137.496094 346.339844 137.867188 346.195312 138.238281 346.054688 L 139.347656 345.617188 C 140.082031 345.320312 140.820312 345.015625 141.558594 344.71875 L 141.835938 344.609375 L 142.109375 344.488281 L 142.660156 344.257812 C 143.027344 344.105469 143.394531 343.949219 143.761719 343.792969 L 144.585938 343.445312 L 144.859375 343.324219 C 145.226562 343.167969 145.589844 343.003906 145.957031 342.847656 C 146.320312 342.683594 146.6875 342.527344 147.050781 342.367188 L 147.328125 342.246094 L 147.597656 342.125 L 148.144531 341.875 C 148.507812 341.710938 148.871094 341.546875 149.234375 341.378906 L 149.777344 341.132812 L 150.324219 340.882812 C 151.046875 340.542969 151.769531 340.199219 152.496094 339.863281 C 155.382812 338.480469 158.25 337.050781 161.097656 335.566406 C 161.808594 335.191406 162.519531 334.816406 163.230469 334.4375 C 163.585938 334.253906 163.9375 334.058594 164.292969 333.867188 C 164.644531 333.675781 165 333.484375 165.351562 333.292969 C 165.703125 333.097656 166.058594 332.910156 166.410156 332.714844 C 166.765625 332.519531 167.113281 332.324219 167.46875 332.128906 C 168.171875 331.738281 168.875 331.347656 169.574219 330.945312 C 170.183594 330.601562 170.792969 330.257812 171.398438 329.914062 C 172.003906 329.558594 172.605469 329.210938 173.210938 328.859375 L 174.113281 328.332031 L 175.015625 327.800781 C 175.613281 327.441406 176.210938 327.085938 176.8125 326.734375 C 178.003906 326.011719 179.195312 325.296875 180.378906 324.5625 C 180.96875 324.199219 181.5625 323.835938 182.148438 323.46875 C 182.738281 323.101562 183.324219 322.734375 183.914062 322.367188 C 184.5 322 185.082031 321.625 185.667969 321.253906 L 186.542969 320.695312 L 186.984375 320.417969 L 187.417969 320.132812 C 188 319.761719 188.578125 319.382812 189.160156 319.011719 C 189.449219 318.820312 189.738281 318.632812 190.027344 318.445312 C 190.316406 318.253906 190.605469 318.066406 190.894531 317.875 C 192.050781 317.121094 193.195312 316.355469 194.34375 315.59375 C 194.917969 315.214844 195.484375 314.828125 196.058594 314.445312 C 196.628906 314.0625 197.199219 313.679688 197.765625 313.292969 C 198.335938 312.90625 198.902344 312.519531 199.46875 312.132812 C 200.035156 311.746094 200.601562 311.359375 201.164062 310.972656 C 202.296875 310.199219 203.417969 309.414062 204.542969 308.636719 C 206.785156 307.070312 209.019531 305.503906 211.234375 303.925781 C 215.671875 300.777344 220.058594 297.605469 224.421875 294.441406 C 233.136719 288.113281 241.734375 281.804688 250.335938 275.71875 C 258.933594 269.628906 267.546875 263.761719 276.269531 258.304688 C 276.8125 257.964844 277.359375 257.628906 277.90625 257.289062 C 278.179688 257.117188 278.449219 256.949219 278.726562 256.78125 C 278.996094 256.613281 279.269531 256.449219 279.546875 256.28125 C 280.089844 255.949219 280.640625 255.617188 281.183594 255.28125 C 281.734375 254.953125 282.28125 254.628906 282.832031 254.300781 C 285.023438 253.003906 287.234375 251.75 289.46875 250.542969 C 293.925781 248.136719 298.453125 245.925781 303.046875 243.960938 C 307.644531 241.996094 312.308594 240.289062 317.039062 238.898438 C 321.757812 237.515625 326.546875 236.457031 331.355469 235.816406 C 333.761719 235.5 336.167969 235.28125 338.570312 235.179688 L 339.023438 235.164062 L 339.472656 235.152344 C 339.773438 235.144531 340.074219 235.136719 340.375 235.128906 C 340.671875 235.121094 340.976562 235.125 341.273438 235.121094 C 341.574219 235.121094 341.875 235.121094 342.171875 235.121094 C 342.472656 235.125 342.773438 235.128906 343.070312 235.136719 L 343.519531 235.144531 C 343.671875 235.148438 343.820312 235.148438 343.96875 235.15625 C 344.269531 235.171875 344.566406 235.183594 344.867188 235.195312 C 345.164062 235.210938 345.460938 235.21875 345.757812 235.238281 C 350.527344 235.523438 355.230469 236.320312 359.746094 237.632812 C 362.007812 238.289062 364.222656 239.070312 366.375 239.972656 C 368.527344 240.875 370.621094 241.902344 372.648438 243.03125 C 376.703125 245.289062 380.46875 247.976562 383.945312 250.941406 C 380.203125 247.585938 376.078125 244.550781 371.570312 242.046875 " fill-opacity="1" fill-rule="nonzero"/></g><g clip-path="url(#1f9ce85764)"><path fill="#231f20" d="M 168.300781 136.761719 C 168.300781 136.761719 142.671875 154.054688 118.304688 137.058594 C 118.304688 137.058594 148.300781 138.820312 168.300781 136.761719 Z M 143.003906 174.785156 C 142.414062 175.074219 141.546875 175.484375 140.453125 175.96875 C 139.355469 176.445312 138.035156 176.996094 136.519531 177.566406 C 136.144531 177.703125 135.753906 177.847656 135.355469 177.996094 C 134.960938 178.144531 134.554688 178.292969 134.136719 178.445312 C 133.304688 178.742188 132.429688 179.039062 131.519531 179.328125 C 129.699219 179.902344 127.738281 180.445312 125.679688 180.90625 C 125.421875 180.960938 125.164062 181.015625 124.902344 181.070312 C 124.644531 181.128906 124.386719 181.179688 124.125 181.238281 C 123.605469 181.34375 123.078125 181.445312 122.550781 181.539062 C 121.488281 181.726562 120.410156 181.886719 119.316406 182.011719 C 117.128906 182.253906 114.894531 182.355469 112.65625 182.242188 C 110.417969 182.136719 108.171875 181.816406 105.992188 181.234375 C 106.390625 181.140625 106.78125 181.046875 107.183594 180.957031 L 108.378906 180.695312 L 110.773438 180.175781 C 112.363281 179.835938 113.953125 179.5 115.539062 179.167969 C 117.121094 178.839844 118.699219 178.515625 120.28125 178.203125 C 121.871094 177.898438 123.460938 177.601562 125.042969 177.316406 C 126.625 177.027344 128.203125 176.746094 129.777344 176.472656 L 132.132812 176.066406 C 132.523438 175.996094 132.921875 175.9375 133.316406 175.875 L 134.503906 175.691406 C 137.660156 175.203125 140.796875 174.746094 143.914062 174.320312 C 143.914062 174.320312 143.597656 174.492188 143.003906 174.785156 Z M 13.203125 323.773438 C 12.675781 324.589844 11.578125 325.03125 10.523438 324.847656 C 8.785156 324.542969 7.902344 322.859375 8.773438 321.507812 C 9.304688 320.691406 10.398438 320.253906 11.453125 320.433594 C 13.195312 320.734375 14.078125 322.421875 13.203125 323.773438 Z M 237.792969 37.304688 C 237.75 37.070312 237.636719 36.835938 237.457031 36.617188 C 237.277344 36.402344 237.03125 36.199219 236.726562 36.042969 C 234.890625 35.101562 232.976562 34.273438 231.003906 33.542969 L 230.628906 33.40625 C 230.507812 33.359375 230.371094 33.316406 230.242188 33.273438 L 229.460938 33.011719 L 228.675781 32.757812 C 228.542969 32.714844 228.417969 32.675781 228.289062 32.632812 L 227.902344 32.515625 C 227.386719 32.359375 226.871094 32.207031 226.347656 32.054688 C 225.832031 31.914062 225.324219 31.777344 224.808594 31.640625 C 220.699219 30.5625 216.613281 29.835938 212.539062 29.398438 C 208.46875 28.957031 204.417969 28.8125 200.386719 28.898438 C 199.390625 28.929688 198.378906 28.960938 197.371094 29.007812 C 196.382812 29.070312 195.386719 29.140625 194.386719 29.21875 C 193.378906 29.289062 192.40625 29.402344 191.417969 29.511719 L 189.933594 29.683594 L 189.1875 29.773438 L 188.457031 29.882812 C 188.457031 29.882812 188.039062 29.925781 187.242188 30.0625 C 186.84375 30.132812 186.351562 30.222656 185.769531 30.34375 C 185.480469 30.40625 185.164062 30.472656 184.832031 30.550781 C 184.503906 30.632812 184.15625 30.722656 183.789062 30.824219 C 182.324219 31.226562 180.5 31.765625 178.503906 32.574219 C 178 32.769531 177.480469 32.980469 176.945312 33.207031 C 176.675781 33.320312 176.40625 33.4375 176.128906 33.554688 C 175.863281 33.679688 175.589844 33.808594 175.316406 33.9375 C 174.214844 34.464844 173.054688 35.046875 171.851562 35.695312 C 170.675781 36.363281 169.460938 37.09375 168.207031 37.894531 C 167.570312 38.289062 166.964844 38.726562 166.339844 39.167969 C 165.714844 39.617188 165.082031 40.082031 164.445312 40.5625 C 164.125 40.804688 163.804688 41.050781 163.484375 41.300781 C 163.167969 41.554688 162.855469 41.816406 162.542969 42.082031 C 161.914062 42.613281 161.28125 43.160156 160.644531 43.726562 C 160.328125 44.011719 160.007812 44.300781 159.691406 44.59375 C 159.609375 44.667969 159.53125 44.742188 159.449219 44.816406 C 159.371094 44.890625 159.296875 44.96875 159.21875 45.042969 C 159.066406 45.195312 158.910156 45.347656 158.753906 45.503906 C 158.136719 46.121094 157.515625 46.753906 156.894531 47.414062 C 155.636719 48.714844 154.460938 50.140625 153.277344 51.632812 C 152.980469 52.003906 152.6875 52.382812 152.394531 52.769531 C 152.246094 52.960938 152.097656 53.152344 151.957031 53.347656 C 151.816406 53.546875 151.675781 53.742188 151.535156 53.941406 C 150.972656 54.738281 150.417969 55.558594 149.871094 56.398438 C 149.597656 56.8125 149.324219 57.238281 149.054688 57.664062 C 148.921875 57.882812 148.78125 58.09375 148.652344 58.316406 C 148.527344 58.535156 148.394531 58.753906 148.269531 58.976562 C 147.757812 59.867188 147.253906 60.777344 146.761719 61.703125 C 146.515625 62.171875 146.269531 62.636719 146.03125 63.113281 C 145.910156 63.351562 145.789062 63.585938 145.675781 63.828125 C 145.5625 64.070312 145.449219 64.316406 145.335938 64.5625 C 144.886719 65.539062 144.449219 66.539062 144.027344 67.558594 C 144.027344 67.558594 143.890625 67.191406 143.878906 66.285156 C 143.875 65.828125 143.902344 65.242188 143.996094 64.492188 C 144.042969 64.121094 144.109375 63.707031 144.195312 63.25 C 144.238281 63.023438 144.285156 62.785156 144.339844 62.53125 C 144.367188 62.410156 144.394531 62.28125 144.425781 62.152344 C 144.457031 62.019531 144.492188 61.886719 144.527344 61.753906 C 144.8125 60.675781 145.210938 59.414062 145.761719 57.945312 C 146.035156 57.210938 146.347656 56.425781 146.707031 55.582031 C 147.082031 54.753906 147.503906 53.867188 147.976562 52.921875 C 148.453125 51.976562 148.976562 50.976562 149.5625 49.914062 C 150.175781 48.859375 150.847656 47.75 151.59375 46.574219 C 151.964844 45.988281 152.351562 45.382812 152.757812 44.765625 C 153.179688 44.148438 153.625 43.527344 154.085938 42.878906 C 154.550781 42.234375 155.03125 41.574219 155.535156 40.898438 C 155.789062 40.558594 156.042969 40.21875 156.308594 39.871094 C 156.582031 39.527344 156.863281 39.183594 157.144531 38.832031 L 156.132812 39.265625 C 155.960938 39.335938 155.796875 39.410156 155.632812 39.488281 L 155.136719 39.710938 L 153.164062 40.628906 L 151.1875 41.558594 C 150.851562 41.714844 150.535156 41.878906 150.214844 42.039062 L 149.253906 42.527344 L 147.335938 43.519531 L 145.894531 44.269531 C 145.738281 44.355469 145.574219 44.441406 145.421875 44.527344 C 144.179688 45.21875 142.9375 45.917969 141.699219 46.628906 L 140.769531 47.164062 L 140.304688 47.433594 L 139.851562 47.707031 L 138.050781 48.816406 L 136.25 49.941406 C 135.652344 50.316406 135.046875 50.691406 134.472656 51.078125 C 133.3125 51.855469 132.152344 52.636719 130.996094 53.425781 L 130.128906 54.023438 L 129.699219 54.320312 L 129.277344 54.625 L 127.601562 55.84375 C 118.648438 62.378906 110.558594 69.585938 103.265625 77.144531 C 103.109375 77.300781 102.964844 77.457031 102.820312 77.613281 L 102.386719 78.089844 C 102.097656 78.40625 101.8125 78.726562 101.53125 79.050781 C 100.96875 79.695312 100.421875 80.351562 99.886719 81.019531 C 99.351562 81.683594 98.832031 82.359375 98.328125 83.039062 C 98.199219 83.210938 98.082031 83.382812 97.960938 83.558594 L 97.605469 84.078125 C 97.371094 84.421875 97.136719 84.773438 96.910156 85.125 C 95.996094 86.53125 95.144531 87.96875 94.355469 89.429688 L 94.0625 89.980469 C 93.964844 90.164062 93.878906 90.351562 93.789062 90.535156 C 93.605469 90.902344 93.429688 91.277344 93.257812 91.648438 C 92.914062 92.394531 92.585938 93.144531 92.273438 93.902344 C 91.960938 94.65625 91.667969 95.417969 91.390625 96.183594 C 91.25 96.5625 91.117188 96.945312 90.984375 97.332031 C 90.921875 97.523438 90.855469 97.714844 90.792969 97.90625 L 90.621094 98.488281 C 90.164062 100.035156 89.777344 101.597656 89.460938 103.164062 C 89.304688 103.949219 89.164062 104.734375 89.039062 105.519531 C 88.980469 105.914062 88.925781 106.304688 88.871094 106.695312 C 88.824219 107.09375 88.785156 107.488281 88.746094 107.882812 C 88.605469 109.464844 88.53125 111.046875 88.535156 112.625 C 88.535156 113.582031 88.550781 114.523438 88.582031 115.441406 C 88.59375 115.898438 88.613281 116.355469 88.636719 116.800781 C 88.640625 116.914062 88.648438 117.023438 88.652344 117.132812 C 88.660156 117.246094 88.667969 117.355469 88.675781 117.46875 C 88.695312 117.6875 88.710938 117.910156 88.726562 118.125 C 88.871094 119.867188 89.078125 121.5 89.347656 122.976562 C 89.890625 125.925781 90.707031 128.257812 91.84375 129.640625 C 91.84375 129.640625 91.503906 129.476562 90.902344 128.886719 C 90.300781 128.300781 89.433594 127.289062 88.382812 125.582031 C 87.332031 123.875 86.097656 121.476562 84.785156 118.085938 C 84.457031 117.238281 84.125 116.328125 83.789062 115.347656 C 83.457031 114.371094 83.105469 113.324219 82.785156 112.210938 C 82.136719 109.980469 81.488281 107.460938 80.867188 104.601562 C 72.433594 116.757812 65.429688 129.15625 59.578125 141.347656 C 53.722656 153.542969 49.019531 165.535156 45.167969 176.984375 C 44.839844 177.945312 44.542969 178.914062 44.265625 179.886719 C 43.996094 180.863281 43.734375 181.839844 43.53125 182.824219 C 43.113281 184.796875 42.796875 186.785156 42.582031 188.773438 C 42.476562 189.769531 42.394531 190.765625 42.339844 191.765625 C 42.3125 192.261719 42.292969 192.761719 42.277344 193.257812 C 42.273438 193.507812 42.265625 193.757812 42.265625 194.007812 L 42.265625 194.757812 C 42.289062 196.753906 42.414062 198.746094 42.644531 200.730469 C 42.828125 202.285156 43.035156 203.800781 43.273438 205.238281 C 43.390625 205.960938 43.519531 206.660156 43.652344 207.335938 C 43.789062 208.015625 43.9375 208.667969 44.09375 209.292969 C 44.714844 211.800781 45.457031 213.855469 46.332031 215.175781 C 46.332031 215.175781 45.363281 213.921875 43.824219 211.566406 C 43.054688 210.390625 42.144531 208.9375 41.140625 207.222656 C 40.890625 206.792969 40.632812 206.347656 40.371094 205.890625 C 40.113281 205.429688 39.851562 204.953125 39.585938 204.460938 C 39.054688 203.480469 38.507812 202.433594 37.949219 201.324219 C 37.144531 204.328125 36.464844 207.277344 35.796875 210.152344 C 35.464844 211.589844 35.140625 213.011719 34.828125 214.410156 C 34.671875 215.113281 34.519531 215.808594 34.367188 216.5 C 34.222656 217.195312 34.082031 217.882812 33.945312 218.570312 C 33.390625 221.304688 32.871094 223.964844 32.382812 226.542969 C 32.261719 227.183594 32.140625 227.824219 32.023438 228.460938 C 31.996094 228.617188 31.964844 228.777344 31.933594 228.933594 C 31.910156 229.09375 31.882812 229.25 31.855469 229.40625 C 31.800781 229.722656 31.746094 230.035156 31.695312 230.351562 C 31.484375 231.601562 31.28125 232.832031 31.085938 234.039062 C 30.691406 236.449219 30.328125 238.777344 29.992188 241.011719 C 29.949219 241.289062 29.910156 241.566406 29.867188 241.839844 C 29.828125 242.117188 29.789062 242.394531 29.753906 242.671875 C 29.679688 243.214844 29.609375 243.757812 29.539062 244.292969 C 29.398438 245.367188 29.261719 246.414062 29.132812 247.4375 C 28.875 249.488281 28.640625 251.433594 28.425781 253.277344 C 28.371094 253.738281 28.320312 254.191406 28.269531 254.640625 C 28.21875 255.089844 28.167969 255.53125 28.128906 255.964844 C 28.046875 256.835938 27.964844 257.679688 27.886719 258.5 C 27.875 258.636719 27.84375 258.773438 27.792969 258.902344 L 25.523438 264.75 L 24.386719 267.671875 L 24.101562 268.40625 L 23.828125 269.136719 L 23.28125 270.605469 L 21.085938 276.46875 L 19.992188 279.402344 L 19.445312 280.867188 L 19.171875 281.601562 L 18.90625 282.335938 L 16.542969 288.90625 L 16.65625 288.953125 C 16.347656 289.792969 16.039062 290.632812 15.730469 291.484375 C 14.722656 294.273438 13.75 297.042969 12.820312 299.777344 C 12.589844 300.460938 12.363281 301.144531 12.132812 301.820312 C 11.914062 302.5 11.695312 303.179688 11.476562 303.855469 C 11.046875 305.207031 10.625 306.546875 10.214844 307.878906 C 9.878906 308.960938 9.554688 310.03125 9.234375 311.097656 L 0.269531 337.226562 C 0.0703125 337.808594 0.929688 338.214844 1.363281 337.742188 C 6.308594 332.371094 16.371094 325.816406 19.207031 324.015625 C 19.542969 323.800781 19.492188 323.355469 19.121094 323.1875 C 16.617188 322.066406 14.691406 320.296875 13.238281 318.441406 C 16.511719 309.136719 19.753906 300.175781 22.964844 291.554688 L 23.035156 291.582031 L 25.28125 285.480469 C 25.835938 283.941406 26.433594 282.414062 27.015625 280.882812 L 30.53125 271.695312 C 30.816406 270.925781 31.128906 270.167969 31.429688 269.40625 L 32.335938 267.117188 L 34.152344 262.539062 L 35.0625 260.253906 L 35.742188 258.535156 L 35.976562 257.96875 L 39.730469 248.851562 L 40.671875 246.574219 L 41.640625 244.308594 L 43.582031 239.769531 L 45.523438 235.234375 C 45.683594 234.855469 45.855469 234.480469 46.019531 234.101562 L 46.523438 232.972656 L 49.535156 226.199219 L 50.539062 223.945312 C 50.878906 223.191406 51.226562 222.445312 51.574219 221.695312 L 55.730469 212.714844 L 60.023438 203.777344 C 65.832031 191.898438 71.96875 180.136719 78.535156 168.546875 C 80.144531 165.636719 81.863281 162.773438 83.542969 159.894531 L 84.8125 157.734375 L 84.96875 157.464844 L 85.132812 157.199219 L 85.460938 156.664062 L 86.113281 155.59375 L 88.730469 151.3125 L 89.382812 150.246094 C 89.601562 149.886719 89.816406 149.53125 90.042969 149.179688 L 94.097656 142.816406 L 94.4375 142.289062 L 94.605469 142.023438 L 94.78125 141.761719 L 95.476562 140.710938 L 96.875 138.613281 L 98.269531 136.511719 L 98.96875 135.464844 L 99.316406 134.9375 C 99.433594 134.765625 99.554688 134.589844 99.675781 134.417969 L 102.558594 130.265625 L 104 128.1875 C 104.492188 127.496094 104.992188 126.816406 105.488281 126.132812 L 108.464844 122.023438 L 108.839844 121.515625 L 109.222656 121.007812 L 109.992188 119.992188 L 111.53125 117.964844 L 113.066406 115.9375 L 113.453125 115.429688 C 113.582031 115.261719 113.714844 115.097656 113.847656 114.929688 L 114.640625 113.929688 L 117.816406 109.929688 C 117.953125 109.765625 118.082031 109.597656 118.21875 109.433594 L 118.628906 108.941406 L 119.445312 107.953125 L 121.085938 105.980469 L 122.726562 104.011719 L 124.417969 102.070312 L 126.109375 100.132812 L 126.957031 99.160156 C 127.097656 99 127.234375 98.839844 127.382812 98.679688 L 127.816406 98.203125 L 131.308594 94.390625 L 131.746094 93.914062 C 131.890625 93.753906 132.042969 93.601562 132.191406 93.445312 L 133.09375 92.507812 L 135.792969 89.703125 L 136.246094 89.234375 C 136.398438 89.082031 136.554688 88.929688 136.707031 88.777344 L 138.566406 86.941406 C 143.519531 82.054688 148.71875 77.335938 154.234375 72.875 L 153.871094 73.171875 C 153.75 73.269531 153.628906 73.371094 153.515625 73.476562 L 152.808594 74.089844 L 151.398438 75.3125 L 149.984375 76.542969 L 149.632812 76.851562 L 149.457031 77.003906 L 149.285156 77.164062 L 145.867188 80.308594 L 145.183594 80.941406 L 144.519531 81.582031 L 143.195312 82.871094 L 141.867188 84.160156 L 141.207031 84.800781 C 141.097656 84.914062 140.984375 85.015625 140.878906 85.128906 L 140.554688 85.457031 L 137.988281 88.085938 L 136.703125 89.398438 C 136.28125 89.84375 135.871094 90.292969 135.457031 90.738281 L 132.96875 93.421875 C 126.398438 100.613281 120.308594 108.085938 114.582031 115.75 C 108.859375 123.414062 103.503906 131.257812 98.417969 139.226562 L 96.511719 142.214844 L 96.035156 142.960938 L 95.574219 143.71875 L 94.652344 145.222656 L 92.8125 148.242188 L 91.429688 150.503906 L 90.984375 151.265625 L 87.421875 157.351562 L 86.980469 158.113281 L 86.757812 158.492188 L 86.539062 158.875 L 85.679688 160.40625 L 83.960938 163.476562 L 82.242188 166.542969 C 82.09375 166.796875 81.957031 167.054688 81.820312 167.3125 L 81.402344 168.085938 L 80.574219 169.632812 C 79.464844 171.691406 78.351562 173.75 77.253906 175.8125 L 74.042969 182.035156 L 73.238281 183.589844 C 72.972656 184.109375 72.699219 184.628906 72.445312 185.152344 L 70.894531 188.28125 L 69.34375 191.414062 L 68.566406 192.980469 L 68.179688 193.761719 L 67.988281 194.152344 L 67.800781 194.546875 L 64.804688 200.847656 L 63.304688 203.996094 L 61.855469 207.164062 L 58.964844 213.5 L 58.601562 214.289062 C 58.484375 214.558594 58.367188 214.824219 58.25 215.085938 L 57.550781 216.679688 L 54.757812 223.046875 C 54.292969 224.109375 53.820312 225.167969 53.378906 226.234375 L 50.679688 232.636719 L 49.332031 235.835938 C 49.105469 236.367188 48.890625 236.902344 48.671875 237.4375 L 48.023438 239.046875 L 45.417969 245.476562 L 44.765625 247.078125 L 44.441406 247.882812 L 44.128906 248.691406 L 39.726562 259.984375 L 39.121094 261.605469 L 37.90625 264.84375 C 37.390625 266.226562 39 267.484375 40.261719 266.695312 C 42.195312 265.484375 44.097656 264.277344 45.972656 263.074219 C 46.914062 262.476562 47.855469 261.878906 48.789062 261.285156 C 49.71875 260.691406 50.644531 260.09375 51.5625 259.507812 C 53.398438 258.320312 55.207031 257.140625 56.984375 255.960938 C 57.871094 255.375 58.75 254.785156 59.628906 254.199219 C 60.511719 253.617188 61.390625 253.035156 62.261719 252.457031 C 64.003906 251.300781 65.71875 250.144531 67.402344 248.992188 C 68.242188 248.414062 69.074219 247.839844 69.90625 247.269531 C 70.734375 246.695312 71.546875 246.117188 72.378906 245.550781 C 75.675781 243.285156 78.859375 241.03125 81.9375 238.789062 C 94.328125 229.871094 105.253906 221.308594 114.917969 213.066406 C 112.011719 213.339844 109.359375 213.546875 106.949219 213.6875 C 104.546875 213.839844 102.394531 213.9375 100.453125 213.972656 C 96.582031 214.054688 93.589844 213.925781 91.328125 213.703125 C 89.0625 213.484375 87.53125 213.179688 86.566406 212.925781 C 85.601562 212.671875 85.199219 212.46875 85.199219 212.46875 C 89.585938 213.882812 94.585938 213.585938 99.617188 212.398438 C 100.246094 212.246094 100.875 212.085938 101.503906 211.910156 C 101.820312 211.820312 102.132812 211.730469 102.449219 211.636719 C 102.765625 211.542969 103.082031 211.449219 103.398438 211.351562 C 104.664062 210.960938 105.921875 210.527344 107.167969 210.0625 C 109.660156 209.128906 112.089844 208.066406 114.390625 206.960938 C 114.96875 206.683594 115.539062 206.410156 116.105469 206.136719 C 116.671875 205.863281 117.226562 205.585938 117.773438 205.3125 C 118.863281 204.761719 119.914062 204.207031 120.917969 203.664062 C 121.917969 203.125 122.867188 202.59375 123.761719 202.085938 C 124.65625 201.574219 125.503906 201.09375 126.285156 200.644531 C 129.410156 198.847656 131.472656 197.523438 131.933594 197.308594 C 131.980469 197.289062 132.042969 197.300781 132.085938 197.339844 C 132.136719 197.390625 132.21875 197.394531 132.265625 197.347656 C 140.527344 189.371094 147.613281 181.707031 153.742188 174.304688 C 159.871094 166.898438 165.042969 159.757812 169.488281 152.828125 C 169.761719 152.394531 170.035156 151.957031 170.304688 151.519531 C 170.578125 151.09375 170.851562 150.671875 171.121094 150.242188 C 171.65625 149.390625 172.179688 148.53125 172.6875 147.671875 C 172.8125 147.457031 172.941406 147.238281 173.066406 147.023438 L 173.253906 146.703125 L 173.445312 146.386719 C 173.695312 145.96875 173.949219 145.546875 174.195312 145.128906 C 174.6875 144.285156 175.167969 143.441406 175.636719 142.585938 C 175.753906 142.375 175.871094 142.160156 175.988281 141.945312 C 176.101562 141.738281 176.222656 141.535156 176.339844 141.328125 C 176.570312 140.914062 176.800781 140.5 177.03125 140.082031 C 177.484375 139.25 177.929688 138.414062 178.359375 137.570312 C 178.46875 137.355469 178.578125 137.15625 178.6875 136.949219 C 178.796875 136.746094 178.902344 136.542969 179.011719 136.335938 C 179.230469 135.929688 179.441406 135.519531 179.652344 135.105469 C 179.863281 134.695312 180.070312 134.28125 180.273438 133.867188 C 180.375 133.660156 180.476562 133.453125 180.578125 133.242188 C 180.679688 133.035156 180.78125 132.824219 180.882812 132.625 C 184.128906 126.082031 186.890625 119.699219 189.445312 113.4375 C 188.492188 113.484375 187.558594 113.53125 186.644531 113.574219 C 185.71875 113.644531 184.816406 113.714844 183.9375 113.78125 C 183.488281 113.816406 183.046875 113.851562 182.609375 113.886719 C 182.390625 113.902344 182.171875 113.917969 181.957031 113.933594 C 181.847656 113.941406 181.738281 113.949219 181.628906 113.957031 C 181.523438 113.964844 181.414062 113.980469 181.308594 113.988281 C 180.445312 114.078125 179.605469 114.164062 178.785156 114.246094 C 177.953125 114.328125 177.140625 114.402344 176.347656 114.484375 C 176.25 114.492188 176.148438 114.5 176.050781 114.511719 C 175.953125 114.523438 175.855469 114.535156 175.757812 114.546875 C 175.5625 114.570312 175.367188 114.59375 175.171875 114.617188 C 174.785156 114.664062 174.402344 114.707031 174.023438 114.753906 C 173.257812 114.84375 172.511719 114.929688 171.789062 115.011719 C 171.421875 115.050781 171.0625 115.09375 170.707031 115.132812 C 170.527344 115.152344 170.351562 115.171875 170.175781 115.191406 C 170 115.214844 169.824219 115.234375 169.652344 115.257812 C 168.273438 115.441406 166.953125 115.605469 165.699219 115.75 C 165.066406 115.824219 164.457031 115.894531 163.863281 115.964844 C 163.5625 115.992188 163.273438 116.035156 162.984375 116.070312 C 162.699219 116.109375 162.414062 116.144531 162.136719 116.179688 C 161.019531 116.320312 159.96875 116.441406 158.976562 116.546875 C 158.476562 116.597656 157.996094 116.648438 157.535156 116.695312 C 157.300781 116.71875 157.074219 116.738281 156.847656 116.761719 C 156.625 116.78125 156.402344 116.800781 156.1875 116.824219 C 152.757812 117.191406 150.300781 117.296875 148.71875 117.304688 C 148.519531 117.304688 148.335938 117.304688 148.164062 117.304688 C 147.996094 117.300781 147.839844 117.300781 147.695312 117.296875 C 147.410156 117.292969 147.171875 117.285156 146.988281 117.277344 C 146.613281 117.257812 146.4375 117.234375 146.4375 117.234375 C 146.75 117.207031 147.070312 117.179688 147.390625 117.140625 C 147.550781 117.121094 147.714844 117.101562 147.878906 117.078125 C 148.042969 117.054688 148.207031 117.035156 148.375 117.011719 C 149.042969 116.917969 149.730469 116.796875 150.429688 116.652344 C 151.828125 116.359375 153.28125 115.972656 154.773438 115.503906 C 154.957031 115.441406 155.148438 115.386719 155.335938 115.328125 C 155.527344 115.273438 155.71875 115.214844 155.910156 115.15625 C 156.292969 115.035156 156.675781 114.914062 157.0625 114.785156 C 157.835938 114.527344 158.617188 114.253906 159.402344 113.964844 C 160.960938 113.371094 162.589844 112.789062 164.203125 112.140625 C 164.609375 111.980469 165.011719 111.820312 165.417969 111.652344 C 165.617188 111.570312 165.820312 111.488281 166.023438 111.402344 L 166.324219 111.273438 L 166.632812 111.15625 C 167.453125 110.832031 168.273438 110.503906 169.085938 110.167969 C 169.492188 110 169.898438 109.828125 170.304688 109.65625 L 170.914062 109.398438 L 171.214844 109.269531 C 171.316406 109.226562 171.417969 109.1875 171.523438 109.148438 C 172.339844 108.820312 173.152344 108.488281 173.953125 108.15625 C 174.355469 107.984375 174.753906 107.816406 175.152344 107.648438 C 175.351562 107.5625 175.550781 107.480469 175.75 107.394531 C 175.945312 107.308594 176.148438 107.234375 176.347656 107.15625 C 177.144531 106.839844 177.929688 106.519531 178.703125 106.199219 C 179.089844 106.042969 179.476562 105.878906 179.859375 105.722656 L 180.144531 105.601562 L 180.429688 105.488281 C 180.621094 105.417969 180.8125 105.339844 181.003906 105.269531 C 181.761719 104.972656 182.507812 104.679688 183.234375 104.386719 C 184.199219 103.980469 185.148438 103.59375 186.046875 103.128906 C 186.496094 102.898438 186.933594 102.652344 187.363281 102.394531 L 187.683594 102.199219 L 188.003906 102.011719 C 188.21875 101.886719 188.425781 101.757812 188.632812 101.625 C 189.046875 101.355469 189.453125 101.078125 189.847656 100.785156 C 190.042969 100.640625 190.238281 100.492188 190.429688 100.335938 L 190.71875 100.105469 L 191.003906 99.882812 C 191.761719 99.28125 192.480469 98.628906 193.160156 97.917969 C 195.902344 95.164062 198.09375 91.804688 199.8125 87.820312 C 200.15625 87.027344 200.492188 86.246094 200.832031 85.46875 C 201.183594 84.695312 201.527344 83.929688 201.875 83.167969 C 202.050781 82.78125 202.226562 82.394531 202.402344 82.011719 C 202.578125 81.632812 202.757812 81.261719 202.9375 80.886719 C 203.292969 80.132812 203.652344 79.371094 204.019531 78.621094 C 204.390625 77.878906 204.757812 77.140625 205.125 76.410156 C 205.21875 76.226562 205.3125 76.039062 205.40625 75.855469 C 205.496094 75.671875 205.59375 75.484375 205.6875 75.304688 C 205.875 74.945312 206.066406 74.585938 206.257812 74.226562 C 206.449219 73.863281 206.644531 73.503906 206.832031 73.148438 C 206.929688 72.964844 207.027344 72.785156 207.121094 72.605469 L 207.265625 72.335938 L 207.414062 72.074219 C 207.8125 71.367188 208.207031 70.667969 208.601562 69.972656 C 208.996094 69.265625 209.402344 68.597656 209.808594 67.917969 C 210.015625 67.578125 210.21875 67.238281 210.421875 66.902344 C 210.527344 66.734375 210.628906 66.5625 210.730469 66.394531 C 210.832031 66.226562 210.9375 66.066406 211.042969 65.898438 C 211.460938 65.242188 211.878906 64.589844 212.300781 63.9375 C 212.40625 63.777344 212.511719 63.613281 212.617188 63.453125 C 212.722656 63.292969 212.832031 63.136719 212.9375 62.980469 C 213.15625 62.660156 213.367188 62.347656 213.582031 62.035156 C 213.796875 61.71875 214.015625 61.410156 214.226562 61.101562 C 214.335938 60.941406 214.441406 60.785156 214.554688 60.632812 C 214.664062 60.484375 214.769531 60.332031 214.882812 60.183594 C 215.316406 59.582031 215.757812 58.980469 216.199219 58.386719 C 216.417969 58.089844 216.640625 57.804688 216.863281 57.519531 C 217.085938 57.230469 217.3125 56.945312 217.53125 56.664062 C 217.757812 56.378906 217.980469 56.097656 218.199219 55.816406 C 218.425781 55.535156 218.652344 55.269531 218.875 54.996094 C 219.324219 54.457031 219.777344 53.921875 220.226562 53.394531 C 220.679688 52.878906 221.132812 52.375 221.585938 51.875 C 221.8125 51.625 222.039062 51.378906 222.261719 51.132812 C 222.488281 50.894531 222.71875 50.65625 222.941406 50.421875 C 223.394531 49.953125 223.84375 49.488281 224.292969 49.039062 C 225.199219 48.15625 226.078125 47.292969 226.964844 46.515625 C 227.1875 46.316406 227.40625 46.121094 227.625 45.929688 C 227.839844 45.738281 228.054688 45.546875 228.277344 45.363281 C 228.710938 45 229.144531 44.644531 229.566406 44.300781 C 232.875 41.566406 235.589844 39.671875 237.226562 38.554688 C 237.695312 38.238281 237.878906 37.777344 237.792969 37.304688 " fill-opacity="1" fill-rule="nonzero"/></g><g fill="#ffffff" fill-opacity="1"><g transform="translate(272.811049, 199.621419)"><g><path d="M 8.40625 0.40625 C 7.019531 0.40625 5.816406 0.15625 4.796875 -0.34375 C 3.785156 -0.851562 3.003906 -1.597656 2.453125 -2.578125 C 1.910156 -3.566406 1.640625 -4.753906 1.640625 -6.140625 C 1.640625 -7.410156 1.910156 -8.476562 2.453125 -9.34375 C 3.003906 -10.207031 3.851562 -10.914062 5 -11.46875 C 6.144531 -12.03125 7.644531 -12.457031 9.5 -12.75 C 10.78125 -12.957031 11.753906 -13.1875 12.421875 -13.4375 C 13.097656 -13.6875 13.550781 -13.96875 13.78125 -14.28125 C 14.019531 -14.59375 14.140625 -14.988281 14.140625 -15.46875 C 14.140625 -16.15625 13.898438 -16.679688 13.421875 -17.046875 C 12.941406 -17.410156 12.140625 -17.59375 11.015625 -17.59375 C 9.816406 -17.59375 8.675781 -17.328125 7.59375 -16.796875 C 6.519531 -16.265625 5.582031 -15.5625 4.78125 -14.6875 L 4.390625 -14.6875 L 2.125 -18.109375 C 3.21875 -19.316406 4.550781 -20.257812 6.125 -20.9375 C 7.707031 -21.613281 9.429688 -21.953125 11.296875 -21.953125 C 14.140625 -21.953125 16.195312 -21.347656 17.46875 -20.140625 C 18.75 -18.929688 19.390625 -17.210938 19.390625 -14.984375 L 19.390625 -5.625 C 19.390625 -4.664062 19.816406 -4.1875 20.671875 -4.1875 C 20.992188 -4.1875 21.3125 -4.242188 21.625 -4.359375 L 21.890625 -4.28125 L 22.28125 -0.515625 C 21.988281 -0.316406 21.570312 -0.15625 21.03125 -0.03125 C 20.5 0.09375 19.914062 0.15625 19.28125 0.15625 C 17.988281 0.15625 16.976562 -0.0859375 16.25 -0.578125 C 15.53125 -1.078125 15.015625 -1.851562 14.703125 -2.90625 L 14.296875 -2.953125 C 13.242188 -0.710938 11.28125 0.40625 8.40625 0.40625 Z M 10.125 -3.640625 C 11.375 -3.640625 12.367188 -4.054688 13.109375 -4.890625 C 13.859375 -5.734375 14.234375 -6.90625 14.234375 -8.40625 L 14.234375 -10.59375 L 13.875 -10.671875 C 13.539062 -10.410156 13.109375 -10.191406 12.578125 -10.015625 C 12.054688 -9.835938 11.300781 -9.664062 10.3125 -9.5 C 9.144531 -9.300781 8.300781 -8.960938 7.78125 -8.484375 C 7.269531 -8.015625 7.015625 -7.34375 7.015625 -6.46875 C 7.015625 -5.539062 7.285156 -4.835938 7.828125 -4.359375 C 8.378906 -3.878906 9.144531 -3.640625 10.125 -3.640625 Z M 10.125 -3.640625 "/></g></g></g><g fill="#ffffff" fill-opacity="1"><g transform="translate(295.523678, 199.621419)"><g><path d="M 8.40625 0.40625 C 7.019531 0.40625 5.816406 0.15625 4.796875 -0.34375 C 3.785156 -0.851562 3.003906 -1.597656 2.453125 -2.578125 C 1.910156 -3.566406 1.640625 -4.753906 1.640625 -6.140625 C 1.640625 -7.410156 1.910156 -8.476562 2.453125 -9.34375 C 3.003906 -10.207031 3.851562 -10.914062 5 -11.46875 C 6.144531 -12.03125 7.644531 -12.457031 9.5 -12.75 C 10.78125 -12.957031 11.753906 -13.1875 12.421875 -13.4375 C 13.097656 -13.6875 13.550781 -13.96875 13.78125 -14.28125 C 14.019531 -14.59375 14.140625 -14.988281 14.140625 -15.46875 C 14.140625 -16.15625 13.898438 -16.679688 13.421875 -17.046875 C 12.941406 -17.410156 12.140625 -17.59375 11.015625 -17.59375 C 9.816406 -17.59375 8.675781 -17.328125 7.59375 -16.796875 C 6.519531 -16.265625 5.582031 -15.5625 4.78125 -14.6875 L 4.390625 -14.6875 L 2.125 -18.109375 C 3.21875 -19.316406 4.550781 -20.257812 6.125 -20.9375 C 7.707031 -21.613281 9.429688 -21.953125 11.296875 -21.953125 C 14.140625 -21.953125 16.195312 -21.347656 17.46875 -20.140625 C 18.75 -18.929688 19.390625 -17.210938 19.390625 -14.984375 L 19.390625 -5.625 C 19.390625 -4.664062 19.816406 -4.1875 20.671875 -4.1875 C 20.992188 -4.1875 21.3125 -4.242188 21.625 -4.359375 L 21.890625 -4.28125 L 22.28125 -0.515625 C 21.988281 -0.316406 21.570312 -0.15625 21.03125 -0.03125 C 20.5 0.09375 19.914062 0.15625 19.28125 0.15625 C 17.988281 0.15625 16.976562 -0.0859375 16.25 -0.578125 C 15.53125 -1.078125 15.015625 -1.851562 14.703125 -2.90625 L 14.296875 -2.953125 C 13.242188 -0.710938 11.28125 0.40625 8.40625 0.40625 Z M 10.125 -3.640625 C 11.375 -3.640625 12.367188 -4.054688 13.109375 -4.890625 C 13.859375 -5.734375 14.234375 -6.90625 14.234375 -8.40625 L 14.234375 -10.59375 L 13.875 -10.671875 C 13.539062 -10.410156 13.109375 -10.191406 12.578125 -10.015625 C 12.054688 -9.835938 11.300781 -9.664062 10.3125 -9.5 C 9.144531 -9.300781 8.300781 -8.960938 7.78125 -8.484375 C 7.269531 -8.015625 7.015625 -7.34375 7.015625 -6.46875 C 7.015625 -5.539062 7.285156 -4.835938 7.828125 -4.359375 C 8.378906 -3.878906 9.144531 -3.640625 10.125 -3.640625 Z M 10.125 -3.640625 "/></g></g></g></svg>