<svg xmlns="http://www.w3.org/2000/svg" xmlns:xlink="http://www.w3.org/1999/xlink" width="512" zoomAndPan="magnify" viewBox="0 0 384 191.999996" height="256" preserveAspectRatio="xMidYMid meet" version="1.0"><defs><g/><clipPath id="8e04a314c2"><path d="M 25 115 L 199.949219 115 L 199.949219 172.949219 L 25 172.949219 Z M 25 115 " clip-rule="nonzero"/></clipPath><clipPath id="92d0e2effd"><path d="M 19.199219 19.199219 L 132 19.199219 L 132 165 L 19.199219 165 Z M 19.199219 19.199219 " clip-rule="nonzero"/></clipPath></defs><g clip-path="url(#8e04a314c2)"><path fill="#231f20" d="M 194.101562 119.695312 C 191.980469 118.515625 189.6875 117.582031 187.28125 116.949219 C 186.078125 116.640625 184.847656 116.398438 183.601562 116.234375 L 183.425781 116.210938 L 183.367188 116.207031 L 183.132812 116.179688 C 182.976562 116.160156 182.820312 116.144531 182.664062 116.128906 C 182.503906 116.113281 182.347656 116.097656 182.191406 116.085938 L 181.957031 116.066406 C 181.917969 116.0625 181.878906 116.058594 181.835938 116.054688 L 181.71875 116.046875 C 181.5625 116.035156 181.402344 116.027344 181.246094 116.019531 C 181.167969 116.011719 181.085938 116.007812 181.007812 116.003906 L 180.769531 115.996094 C 180.613281 115.988281 180.453125 115.984375 180.296875 115.976562 C 180.136719 115.972656 179.976562 115.972656 179.820312 115.96875 C 179.183594 115.957031 178.546875 115.972656 177.90625 115.992188 C 177.746094 116 177.589844 116.011719 177.429688 116.019531 L 177.1875 116.03125 L 177.070312 116.039062 L 176.949219 116.046875 C 176.789062 116.058594 176.632812 116.070312 176.46875 116.082031 C 176.390625 116.089844 176.308594 116.09375 176.230469 116.101562 L 175.992188 116.125 C 175.828125 116.140625 175.671875 116.15625 175.511719 116.167969 C 175.351562 116.1875 175.191406 116.207031 175.03125 116.226562 L 174.792969 116.253906 L 174.550781 116.285156 C 174.390625 116.304688 174.234375 116.328125 174.074219 116.351562 C 173.992188 116.359375 173.914062 116.371094 173.832031 116.382812 L 173.59375 116.421875 C 173.433594 116.445312 173.273438 116.46875 173.113281 116.496094 C 172.953125 116.519531 172.796875 116.550781 172.636719 116.578125 L 172.398438 116.621094 C 172.316406 116.636719 172.238281 116.648438 172.160156 116.664062 C 170.886719 116.90625 169.613281 117.203125 168.351562 117.546875 L 168.234375 117.578125 L 168.117188 117.613281 L 167.878906 117.679688 C 167.722656 117.726562 167.566406 117.769531 167.40625 117.816406 C 167.25 117.863281 167.09375 117.910156 166.9375 117.957031 C 166.777344 118.003906 166.621094 118.050781 166.464844 118.101562 C 166.152344 118.203125 165.839844 118.300781 165.527344 118.40625 C 165.371094 118.457031 165.214844 118.511719 165.058594 118.5625 C 164.902344 118.617188 164.746094 118.671875 164.589844 118.726562 C 163.96875 118.945312 163.347656 119.175781 162.730469 119.414062 C 162.574219 119.472656 162.421875 119.535156 162.265625 119.597656 C 162.113281 119.660156 161.957031 119.71875 161.804688 119.78125 C 161.652344 119.84375 161.496094 119.910156 161.34375 119.972656 L 161.113281 120.066406 L 160.882812 120.164062 C 159.65625 120.683594 158.441406 121.238281 157.234375 121.824219 C 156.027344 122.414062 154.832031 123.035156 153.644531 123.683594 L 153.421875 123.804688 L 153.199219 123.929688 C 153.050781 124.011719 152.90625 124.09375 152.753906 124.175781 C 152.609375 124.257812 152.460938 124.34375 152.3125 124.425781 C 152.164062 124.511719 152.019531 124.59375 151.871094 124.679688 C 151.722656 124.761719 151.574219 124.851562 151.429688 124.933594 C 151.28125 125.019531 151.136719 125.105469 150.992188 125.191406 C 150.699219 125.367188 150.40625 125.539062 150.113281 125.710938 C 149.964844 125.796875 149.820312 125.886719 149.675781 125.976562 C 149.527344 126.0625 149.382812 126.152344 149.234375 126.238281 C 149.089844 126.328125 148.945312 126.414062 148.796875 126.503906 C 148.652344 126.59375 148.507812 126.683594 148.363281 126.769531 C 148.070312 126.949219 147.777344 127.128906 147.488281 127.308594 C 147.199219 127.492188 146.910156 127.671875 146.617188 127.855469 L 146.398438 127.988281 L 146.183594 128.128906 C 146.039062 128.21875 145.890625 128.3125 145.746094 128.40625 C 145.601562 128.496094 145.457031 128.589844 145.3125 128.679688 C 145.167969 128.773438 145.023438 128.867188 144.878906 128.960938 C 144.589844 129.144531 144.300781 129.332031 144.007812 129.519531 C 143.71875 129.707031 143.433594 129.898438 143.144531 130.085938 C 138.523438 133.117188 133.941406 136.347656 129.332031 139.648438 C 124.71875 142.949219 120.074219 146.324219 115.304688 149.625 C 114.113281 150.453125 112.914062 151.273438 111.707031 152.089844 C 110.496094 152.902344 109.28125 153.710938 108.054688 154.507812 C 107.746094 154.707031 107.4375 154.90625 107.128906 155.105469 C 106.820312 155.304688 106.515625 155.503906 106.203125 155.699219 C 105.894531 155.894531 105.582031 156.089844 105.273438 156.285156 C 104.960938 156.480469 104.648438 156.675781 104.335938 156.871094 C 103.085938 157.644531 101.828125 158.410156 100.550781 159.15625 C 99.277344 159.902344 97.988281 160.632812 96.6875 161.347656 C 95.386719 162.058594 94.070312 162.75 92.742188 163.421875 C 91.414062 164.09375 90.066406 164.738281 88.707031 165.359375 C 88.027344 165.671875 87.34375 165.972656 86.65625 166.269531 C 86.3125 166.417969 85.964844 166.5625 85.621094 166.710938 C 85.449219 166.785156 85.273438 166.851562 85.101562 166.925781 C 84.929688 166.996094 84.753906 167.066406 84.582031 167.136719 C 84.429688 167.199219 84.28125 167.257812 84.128906 167.320312 C 83.976562 167.378906 83.824219 167.4375 83.675781 167.496094 C 83.523438 167.554688 83.371094 167.617188 83.21875 167.675781 L 82.992188 167.761719 C 82.917969 167.792969 82.839844 167.824219 82.765625 167.851562 C 82.15625 168.078125 81.550781 168.308594 80.9375 168.523438 C 80.785156 168.578125 80.632812 168.632812 80.480469 168.6875 L 80.253906 168.765625 L 80.023438 168.84375 C 79.714844 168.949219 79.410156 169.054688 79.101562 169.15625 C 79.027344 169.183594 78.949219 169.207031 78.871094 169.234375 L 78.640625 169.308594 C 78.488281 169.359375 78.335938 169.40625 78.179688 169.457031 C 78.027344 169.503906 77.875 169.554688 77.71875 169.605469 L 77.605469 169.640625 L 77.488281 169.675781 L 77.257812 169.746094 C 76.949219 169.839844 76.640625 169.933594 76.332031 170.027344 C 76.253906 170.050781 76.175781 170.074219 76.097656 170.09375 L 75.867188 170.160156 C 75.710938 170.203125 75.554688 170.25 75.402344 170.292969 C 75.246094 170.339844 75.09375 170.382812 74.9375 170.425781 C 74.78125 170.46875 74.625 170.507812 74.472656 170.550781 C 74.160156 170.632812 73.851562 170.714844 73.539062 170.796875 C 72.300781 171.117188 71.0625 171.390625 69.828125 171.535156 C 69.207031 171.605469 68.59375 171.644531 67.980469 171.640625 C 67.371094 171.632812 66.761719 171.585938 66.171875 171.480469 C 66.097656 171.464844 66.023438 171.453125 65.949219 171.4375 L 65.839844 171.414062 L 65.78125 171.402344 L 65.730469 171.390625 C 65.589844 171.359375 65.449219 171.320312 65.3125 171.28125 C 65.171875 171.238281 65.039062 171.1875 64.902344 171.136719 C 64.769531 171.085938 64.636719 171.027344 64.507812 170.96875 C 64.378906 170.90625 64.253906 170.839844 64.132812 170.769531 L 64.039062 170.714844 L 63.953125 170.65625 C 63.894531 170.617188 63.835938 170.582031 63.777344 170.539062 C 63.75 170.519531 63.722656 170.5 63.695312 170.476562 L 63.613281 170.414062 C 63.585938 170.394531 63.5625 170.371094 63.535156 170.347656 L 63.496094 170.316406 C 63.484375 170.304688 63.472656 170.296875 63.457031 170.285156 C 63.355469 170.195312 63.265625 170.097656 63.175781 170 C 63.003906 169.804688 62.863281 169.589844 62.765625 169.367188 C 62.714844 169.257812 62.679688 169.140625 62.652344 169.023438 C 62.621094 168.90625 62.609375 168.789062 62.601562 168.667969 C 62.589844 168.425781 62.617188 168.179688 62.6875 167.929688 C 62.757812 167.679688 62.867188 167.425781 63 167.179688 C 63.132812 166.929688 63.289062 166.679688 63.460938 166.433594 C 63.546875 166.308594 63.636719 166.1875 63.730469 166.0625 C 63.773438 166.003906 63.824219 165.941406 63.871094 165.878906 L 64.011719 165.695312 C 64.199219 165.457031 64.394531 165.21875 64.597656 164.984375 C 64.800781 164.75 65.003906 164.519531 65.214844 164.289062 C 65.636719 163.832031 66.070312 163.382812 66.515625 162.941406 C 66.957031 162.496094 67.40625 162.058594 67.859375 161.621094 C 68.765625 160.75 69.679688 159.882812 70.582031 159 C 71.484375 158.113281 72.371094 157.214844 73.222656 156.277344 C 73.648438 155.808594 74.0625 155.328125 74.464844 154.835938 C 74.5625 154.710938 74.664062 154.589844 74.761719 154.460938 L 74.910156 154.273438 L 75.054688 154.082031 C 75.152344 153.957031 75.242188 153.828125 75.339844 153.699219 C 75.386719 153.636719 75.429688 153.570312 75.476562 153.503906 C 75.523438 153.4375 75.570312 153.375 75.617188 153.308594 L 75.75 153.109375 C 75.796875 153.042969 75.839844 152.976562 75.882812 152.910156 C 75.972656 152.777344 76.058594 152.640625 76.144531 152.507812 C 76.3125 152.234375 76.476562 151.957031 76.628906 151.671875 C 76.707031 151.53125 76.78125 151.386719 76.855469 151.246094 C 76.890625 151.171875 76.925781 151.097656 76.960938 151.027344 L 77.0625 150.808594 L 77.164062 150.585938 L 77.257812 150.363281 C 77.289062 150.285156 77.316406 150.210938 77.347656 150.136719 L 77.390625 150.019531 C 77.40625 149.984375 77.421875 149.945312 77.433594 149.90625 L 77.515625 149.675781 C 77.527344 149.636719 77.539062 149.597656 77.554688 149.558594 L 77.589844 149.441406 L 77.625 149.328125 C 77.640625 149.285156 77.648438 149.246094 77.660156 149.207031 C 77.683594 149.128906 77.707031 149.050781 77.726562 148.972656 C 77.808594 148.652344 77.875 148.332031 77.925781 148.003906 C 77.972656 147.679688 78.003906 147.347656 78.011719 147.015625 C 78.019531 146.683594 78.003906 146.347656 77.964844 146.015625 C 77.886719 145.347656 77.691406 144.683594 77.390625 144.074219 C 77.238281 143.773438 77.058594 143.484375 76.859375 143.210938 C 76.660156 142.941406 76.433594 142.691406 76.195312 142.457031 C 75.71875 141.996094 75.175781 141.613281 74.609375 141.296875 C 74.039062 140.984375 73.441406 140.738281 72.835938 140.542969 C 72.53125 140.449219 72.226562 140.367188 71.917969 140.292969 C 71.765625 140.257812 71.609375 140.226562 71.453125 140.195312 L 71.222656 140.152344 C 71.144531 140.140625 71.066406 140.128906 70.988281 140.117188 C 70.675781 140.070312 70.363281 140.03125 70.050781 140.003906 C 69.738281 139.980469 69.425781 139.964844 69.113281 139.960938 C 68.800781 139.953125 68.488281 139.960938 68.175781 139.976562 C 67.863281 139.992188 67.550781 140.019531 67.242188 140.054688 C 66.621094 140.132812 66.003906 140.25 65.402344 140.417969 L 65.175781 140.488281 C 65.097656 140.511719 65.023438 140.535156 64.949219 140.558594 C 64.910156 140.570312 64.875 140.585938 64.839844 140.597656 L 64.734375 140.632812 L 64.515625 140.710938 L 64.410156 140.746094 L 64.300781 140.785156 L 64.089844 140.867188 C 64.015625 140.894531 63.945312 140.917969 63.875 140.945312 L 63.664062 141.027344 C 63.097656 141.25 62.539062 141.488281 61.992188 141.738281 C 61.441406 141.988281 60.898438 142.253906 60.367188 142.523438 C 60.230469 142.59375 60.097656 142.660156 59.964844 142.730469 C 59.832031 142.800781 59.699219 142.871094 59.570312 142.941406 C 59.4375 143.015625 59.304688 143.085938 59.175781 143.15625 C 59.042969 143.226562 58.914062 143.300781 58.78125 143.375 C 58.261719 143.664062 57.746094 143.964844 57.238281 144.265625 C 56.726562 144.570312 56.222656 144.878906 55.722656 145.191406 C 54.71875 145.816406 53.730469 146.449219 52.75 147.082031 C 52.257812 147.398438 51.765625 147.710938 51.277344 148.023438 C 51.03125 148.175781 50.785156 148.332031 50.542969 148.488281 C 50.296875 148.640625 50.050781 148.792969 49.804688 148.949219 C 49.3125 149.253906 48.820312 149.5625 48.328125 149.871094 C 47.839844 150.179688 47.355469 150.492188 46.867188 150.800781 C 44.929688 152.046875 43.019531 153.3125 41.144531 154.59375 C 40.675781 154.914062 40.207031 155.230469 39.742188 155.554688 C 39.511719 155.714844 39.277344 155.878906 39.046875 156.039062 C 38.816406 156.199219 38.582031 156.359375 38.355469 156.523438 C 37.894531 156.847656 37.433594 157.175781 36.976562 157.496094 C 36.523438 157.824219 36.066406 158.152344 35.613281 158.480469 C 31.996094 161.105469 28.511719 163.789062 25.175781 166.53125 C 32.65625 160.679688 40.855469 155.042969 49.691406 149.722656 C 49.964844 149.558594 50.242188 149.390625 50.519531 149.222656 C 50.796875 149.058594 51.074219 148.890625 51.351562 148.71875 C 51.90625 148.382812 52.460938 148.042969 53.011719 147.699219 C 54.121094 147.011719 55.230469 146.320312 56.355469 145.648438 C 57.476562 144.976562 58.617188 144.324219 59.785156 143.714844 C 60.949219 143.105469 62.144531 142.539062 63.371094 142.050781 C 63.675781 141.925781 63.984375 141.808594 64.296875 141.695312 L 64.53125 141.613281 C 64.609375 141.585938 64.6875 141.554688 64.765625 141.53125 L 65.117188 141.414062 C 65.15625 141.398438 65.195312 141.386719 65.234375 141.375 C 65.847656 141.179688 66.484375 141.046875 67.132812 140.96875 C 67.78125 140.886719 68.4375 140.855469 69.089844 140.875 C 69.746094 140.894531 70.402344 140.960938 71.046875 141.078125 C 71.691406 141.195312 72.328125 141.367188 72.9375 141.597656 C 73.546875 141.828125 74.132812 142.121094 74.660156 142.484375 C 75.1875 142.847656 75.660156 143.285156 76.03125 143.792969 C 76.214844 144.046875 76.378906 144.316406 76.511719 144.597656 C 76.640625 144.882812 76.746094 145.179688 76.820312 145.484375 C 76.894531 145.789062 76.941406 146.105469 76.957031 146.421875 C 76.976562 146.738281 76.96875 147.0625 76.9375 147.382812 C 76.90625 147.707031 76.855469 148.027344 76.78125 148.347656 C 76.707031 148.667969 76.617188 148.980469 76.511719 149.292969 C 76.402344 149.605469 76.277344 149.914062 76.140625 150.21875 L 76.035156 150.445312 L 75.921875 150.667969 C 75.886719 150.746094 75.84375 150.820312 75.804688 150.894531 L 75.746094 151.003906 C 75.726562 151.042969 75.707031 151.078125 75.6875 151.113281 C 75.527344 151.410156 75.347656 151.699219 75.167969 151.984375 C 74.984375 152.269531 74.792969 152.550781 74.59375 152.828125 C 73.792969 153.933594 72.882812 154.976562 71.925781 155.988281 C 70.96875 157 69.957031 157.976562 68.933594 158.949219 C 67.910156 159.921875 66.867188 160.890625 65.839844 161.898438 C 65.582031 162.152344 65.328125 162.40625 65.074219 162.664062 C 64.820312 162.921875 64.570312 163.183594 64.320312 163.449219 C 64.074219 163.714844 63.828125 163.984375 63.589844 164.265625 C 63.347656 164.542969 63.113281 164.828125 62.886719 165.121094 C 62.660156 165.410156 62.4375 165.710938 62.226562 166.035156 C 62.019531 166.355469 61.820312 166.699219 61.660156 167.078125 C 61.582031 167.265625 61.511719 167.460938 61.457031 167.667969 C 61.429688 167.769531 61.410156 167.875 61.390625 167.980469 C 61.371094 168.085938 61.355469 168.195312 61.347656 168.304688 C 61.339844 168.414062 61.335938 168.523438 61.335938 168.636719 C 61.339844 168.691406 61.339844 168.746094 61.34375 168.800781 L 61.359375 168.96875 C 61.386719 169.1875 61.4375 169.40625 61.507812 169.617188 L 61.535156 169.695312 C 61.542969 169.722656 61.550781 169.746094 61.5625 169.773438 L 61.628906 169.925781 L 61.699219 170.074219 C 61.722656 170.121094 61.75 170.167969 61.777344 170.21875 C 61.886719 170.40625 62.007812 170.585938 62.144531 170.75 C 62.277344 170.914062 62.425781 171.0625 62.578125 171.203125 C 62.730469 171.34375 62.890625 171.476562 63.058594 171.59375 C 63.222656 171.710938 63.394531 171.820312 63.570312 171.921875 C 63.742188 172.019531 63.921875 172.109375 64.101562 172.195312 C 64.46875 172.355469 64.839844 172.492188 65.226562 172.59375 C 65.320312 172.621094 65.417969 172.640625 65.515625 172.664062 C 65.609375 172.683594 65.703125 172.703125 65.796875 172.722656 C 65.890625 172.738281 65.988281 172.757812 66.082031 172.773438 L 66.296875 172.808594 L 66.367188 172.816406 C 66.746094 172.871094 67.128906 172.90625 67.511719 172.925781 C 68.277344 172.960938 69.039062 172.929688 69.789062 172.851562 C 70.542969 172.773438 71.285156 172.652344 72.019531 172.503906 C 72.382812 172.429688 72.75 172.347656 73.113281 172.261719 C 73.472656 172.175781 73.835938 172.089844 74.191406 171.992188 C 74.550781 171.898438 74.90625 171.804688 75.265625 171.710938 C 75.621094 171.609375 75.980469 171.507812 76.335938 171.40625 L 76.605469 171.332031 C 76.691406 171.304688 76.78125 171.28125 76.871094 171.253906 C 77.046875 171.199219 77.226562 171.148438 77.402344 171.09375 C 77.582031 171.039062 77.757812 170.984375 77.9375 170.933594 C 78.113281 170.878906 78.292969 170.820312 78.46875 170.765625 C 78.644531 170.707031 78.824219 170.652344 79 170.59375 C 79.175781 170.539062 79.355469 170.484375 79.53125 170.421875 C 79.882812 170.304688 80.238281 170.183594 80.589844 170.066406 C 80.679688 170.035156 80.765625 170.003906 80.855469 169.976562 L 81.117188 169.878906 C 81.292969 169.820312 81.46875 169.757812 81.644531 169.695312 C 81.996094 169.570312 82.347656 169.441406 82.695312 169.308594 C 82.871094 169.246094 83.046875 169.179688 83.222656 169.113281 C 83.308594 169.082031 83.398438 169.046875 83.484375 169.015625 L 83.746094 168.914062 C 83.917969 168.84375 84.09375 168.777344 84.269531 168.710938 L 84.53125 168.605469 L 84.789062 168.503906 C 85.136719 168.363281 85.484375 168.222656 85.832031 168.082031 L 86.089844 167.972656 L 86.351562 167.863281 C 86.523438 167.792969 86.695312 167.71875 86.867188 167.644531 L 87.257812 167.480469 L 87.386719 167.425781 C 87.558594 167.351562 87.730469 167.273438 87.902344 167.199219 C 88.074219 167.121094 88.246094 167.046875 88.417969 166.972656 L 88.546875 166.917969 L 88.675781 166.859375 L 88.929688 166.742188 C 89.101562 166.664062 89.273438 166.585938 89.445312 166.507812 L 89.699219 166.390625 L 89.957031 166.273438 C 90.296875 166.113281 90.636719 165.953125 90.980469 165.792969 C 92.339844 165.140625 93.6875 164.46875 95.027344 163.765625 C 95.363281 163.589844 95.699219 163.414062 96.03125 163.234375 C 96.199219 163.148438 96.367188 163.058594 96.53125 162.96875 C 96.699219 162.878906 96.863281 162.785156 97.03125 162.695312 C 97.199219 162.605469 97.363281 162.515625 97.53125 162.425781 C 97.695312 162.332031 97.859375 162.242188 98.027344 162.148438 C 98.359375 161.964844 98.691406 161.78125 99.019531 161.589844 C 99.304688 161.429688 99.589844 161.265625 99.878906 161.105469 C 100.160156 160.9375 100.445312 160.773438 100.730469 160.609375 L 101.15625 160.359375 L 101.578125 160.109375 C 101.863281 159.941406 102.144531 159.773438 102.425781 159.605469 C 102.984375 159.265625 103.546875 158.929688 104.105469 158.582031 C 104.382812 158.410156 104.660156 158.242188 104.9375 158.066406 C 105.214844 157.894531 105.492188 157.722656 105.769531 157.546875 C 106.046875 157.375 106.320312 157.199219 106.59375 157.023438 L 107.007812 156.761719 L 107.214844 156.628906 L 107.417969 156.496094 C 107.691406 156.320312 107.964844 156.140625 108.238281 155.964844 C 108.375 155.878906 108.511719 155.789062 108.648438 155.699219 C 108.78125 155.609375 108.917969 155.519531 109.054688 155.429688 C 109.597656 155.074219 110.136719 154.714844 110.675781 154.355469 C 110.949219 154.175781 111.214844 153.996094 111.484375 153.816406 C 111.753906 153.632812 112.023438 153.453125 112.289062 153.273438 C 112.558594 153.089844 112.824219 152.90625 113.089844 152.726562 C 113.355469 152.542969 113.625 152.359375 113.890625 152.175781 C 114.421875 151.8125 114.949219 151.445312 115.480469 151.078125 C 116.535156 150.339844 117.585938 149.601562 118.628906 148.855469 C 120.71875 147.375 122.785156 145.878906 124.835938 144.386719 C 128.9375 141.40625 132.984375 138.433594 137.035156 135.566406 C 141.082031 132.695312 145.136719 129.929688 149.242188 127.359375 C 149.496094 127.199219 149.753906 127.039062 150.011719 126.878906 C 150.140625 126.796875 150.269531 126.71875 150.398438 126.640625 C 150.527344 126.558594 150.65625 126.484375 150.785156 126.402344 C 151.039062 126.246094 151.300781 126.089844 151.554688 125.933594 C 151.8125 125.777344 152.074219 125.625 152.332031 125.46875 C 153.363281 124.859375 154.402344 124.269531 155.453125 123.699219 C 157.554688 122.566406 159.683594 121.523438 161.847656 120.597656 C 164.011719 119.671875 166.207031 118.867188 168.433594 118.210938 C 170.65625 117.558594 172.910156 117.0625 175.171875 116.761719 C 176.304688 116.609375 177.4375 116.507812 178.570312 116.460938 L 178.992188 116.445312 C 179.136719 116.441406 179.277344 116.4375 179.417969 116.433594 C 179.558594 116.433594 179.699219 116.433594 179.839844 116.433594 C 179.980469 116.429688 180.125 116.429688 180.261719 116.429688 C 180.40625 116.433594 180.546875 116.4375 180.6875 116.4375 L 180.898438 116.441406 C 180.96875 116.445312 181.039062 116.445312 181.109375 116.449219 C 181.25 116.457031 181.390625 116.460938 181.53125 116.464844 C 181.671875 116.472656 181.8125 116.476562 181.953125 116.488281 C 184.195312 116.621094 186.410156 116.996094 188.535156 117.613281 C 189.601562 117.925781 190.644531 118.292969 191.65625 118.71875 C 192.671875 119.144531 193.65625 119.628906 194.609375 120.160156 C 196.519531 121.222656 198.289062 122.488281 199.925781 123.886719 C 198.167969 122.304688 196.222656 120.875 194.101562 119.695312 " fill-opacity="1" fill-rule="nonzero"/></g><g clip-path="url(#92d0e2effd)"><path fill="#231f20" d="M 98.417969 70.078125 C 98.417969 70.078125 86.355469 78.226562 74.886719 70.21875 C 74.886719 70.21875 89.003906 71.046875 98.417969 70.078125 Z M 86.511719 87.996094 C 86.234375 88.132812 85.824219 88.328125 85.3125 88.554688 C 84.796875 88.78125 84.171875 89.039062 83.460938 89.308594 C 83.28125 89.375 83.097656 89.441406 82.910156 89.511719 C 82.726562 89.582031 82.535156 89.652344 82.339844 89.722656 C 81.945312 89.863281 81.535156 90.003906 81.105469 90.136719 C 80.25 90.410156 79.324219 90.664062 78.359375 90.882812 C 78.234375 90.90625 78.113281 90.933594 77.992188 90.960938 C 77.871094 90.988281 77.746094 91.011719 77.625 91.039062 C 77.378906 91.089844 77.132812 91.136719 76.882812 91.179688 C 76.382812 91.269531 75.875 91.34375 75.359375 91.402344 C 74.332031 91.519531 73.28125 91.566406 72.226562 91.511719 C 71.171875 91.460938 70.117188 91.3125 69.089844 91.035156 C 69.277344 90.992188 69.460938 90.949219 69.648438 90.90625 L 70.214844 90.78125 L 71.339844 90.539062 C 72.089844 90.378906 72.835938 90.21875 73.582031 90.0625 C 74.328125 89.90625 75.070312 89.753906 75.816406 89.609375 C 76.5625 89.464844 77.3125 89.324219 78.058594 89.191406 C 78.800781 89.054688 79.542969 88.921875 80.285156 88.792969 L 81.394531 88.601562 C 81.578125 88.570312 81.765625 88.539062 81.953125 88.511719 L 82.511719 88.425781 C 83.996094 88.195312 85.472656 87.980469 86.941406 87.777344 C 86.941406 87.777344 86.789062 87.859375 86.511719 87.996094 Z M 25.414062 158.210938 C 25.164062 158.59375 24.648438 158.804688 24.152344 158.71875 C 23.332031 158.574219 22.917969 157.78125 23.328125 157.144531 C 23.578125 156.757812 24.09375 156.550781 24.589844 156.636719 C 25.410156 156.777344 25.824219 157.574219 25.414062 158.210938 Z M 131.128906 23.207031 C 131.109375 23.097656 131.058594 22.988281 130.972656 22.882812 C 130.886719 22.78125 130.773438 22.6875 130.628906 22.613281 C 129.765625 22.167969 128.863281 21.777344 127.933594 21.4375 L 127.757812 21.371094 C 127.699219 21.347656 127.636719 21.328125 127.578125 21.308594 L 127.210938 21.183594 L 126.839844 21.0625 C 126.777344 21.042969 126.71875 21.027344 126.65625 21.007812 L 126.476562 20.953125 C 126.230469 20.878906 125.988281 20.804688 125.742188 20.734375 C 125.5 20.667969 125.261719 20.601562 125.019531 20.539062 C 123.082031 20.03125 121.160156 19.6875 119.242188 19.480469 C 117.328125 19.273438 115.417969 19.203125 113.523438 19.246094 C 113.054688 19.261719 112.578125 19.277344 112.105469 19.296875 C 111.636719 19.328125 111.167969 19.359375 110.699219 19.398438 C 110.222656 19.429688 109.765625 19.484375 109.300781 19.535156 L 108.601562 19.617188 L 108.25 19.660156 L 107.90625 19.710938 C 107.90625 19.710938 107.710938 19.730469 107.335938 19.792969 C 107.148438 19.828125 106.914062 19.871094 106.640625 19.925781 C 106.503906 19.957031 106.359375 19.988281 106.199219 20.023438 C 106.046875 20.0625 105.882812 20.105469 105.710938 20.152344 C 105.019531 20.34375 104.164062 20.597656 103.222656 20.976562 C 102.984375 21.070312 102.742188 21.171875 102.488281 21.277344 C 102.363281 21.332031 102.234375 21.382812 102.105469 21.441406 C 101.980469 21.5 101.851562 21.558594 101.722656 21.621094 C 101.203125 21.867188 100.65625 22.144531 100.089844 22.449219 C 99.539062 22.765625 98.964844 23.109375 98.375 23.484375 C 98.078125 23.671875 97.789062 23.878906 97.496094 24.085938 C 97.203125 24.296875 96.902344 24.515625 96.605469 24.742188 C 96.453125 24.859375 96.304688 24.972656 96.152344 25.089844 C 96.003906 25.210938 95.855469 25.332031 95.707031 25.460938 C 95.414062 25.707031 95.117188 25.96875 94.816406 26.234375 C 94.667969 26.371094 94.515625 26.503906 94.367188 26.644531 C 94.328125 26.679688 94.292969 26.710938 94.253906 26.746094 C 94.21875 26.785156 94.179688 26.820312 94.144531 26.855469 C 94.070312 26.925781 94 26.996094 93.925781 27.070312 C 93.632812 27.363281 93.34375 27.660156 93.050781 27.972656 C 92.457031 28.585938 91.90625 29.257812 91.347656 29.960938 C 91.207031 30.136719 91.070312 30.3125 90.929688 30.496094 C 90.863281 30.585938 90.792969 30.675781 90.726562 30.769531 C 90.660156 30.863281 90.59375 30.953125 90.527344 31.046875 C 90.261719 31.425781 90.003906 31.808594 89.746094 32.207031 C 89.617188 32.402344 89.488281 32.601562 89.359375 32.804688 C 89.296875 32.90625 89.230469 33.003906 89.171875 33.109375 C 89.109375 33.210938 89.050781 33.316406 88.988281 33.421875 C 88.75 33.839844 88.511719 34.269531 88.28125 34.707031 C 88.164062 34.925781 88.050781 35.144531 87.9375 35.371094 C 87.878906 35.484375 87.820312 35.59375 87.769531 35.707031 C 87.714844 35.820312 87.664062 35.9375 87.609375 36.054688 C 87.398438 36.515625 87.191406 36.984375 86.992188 37.464844 C 86.992188 37.464844 86.929688 37.292969 86.925781 36.863281 C 86.921875 36.652344 86.933594 36.375 86.980469 36.019531 C 87 35.84375 87.03125 35.652344 87.070312 35.433594 C 87.09375 35.328125 87.113281 35.214844 87.140625 35.097656 C 87.152344 35.039062 87.167969 34.976562 87.179688 34.917969 C 87.195312 34.855469 87.210938 34.792969 87.230469 34.730469 C 87.363281 34.222656 87.550781 33.628906 87.808594 32.933594 C 87.9375 32.589844 88.085938 32.21875 88.253906 31.820312 C 88.429688 31.429688 88.628906 31.011719 88.851562 30.566406 C 89.078125 30.121094 89.324219 29.652344 89.597656 29.148438 C 89.886719 28.652344 90.203125 28.128906 90.554688 27.578125 C 90.730469 27.300781 90.910156 27.015625 91.101562 26.722656 C 91.300781 26.433594 91.511719 26.140625 91.726562 25.835938 C 91.945312 25.53125 92.171875 25.222656 92.410156 24.902344 C 92.53125 24.742188 92.648438 24.582031 92.773438 24.417969 C 92.902344 24.253906 93.035156 24.09375 93.167969 23.925781 L 92.691406 24.132812 C 92.609375 24.164062 92.53125 24.199219 92.457031 24.234375 L 92.222656 24.34375 L 91.292969 24.773438 L 90.363281 25.214844 C 90.207031 25.285156 90.058594 25.363281 89.90625 25.4375 L 89.453125 25.667969 L 88.550781 26.136719 L 88.097656 26.371094 L 87.875 26.492188 C 87.796875 26.53125 87.722656 26.570312 87.648438 26.613281 C 87.066406 26.9375 86.480469 27.269531 85.898438 27.601562 L 85.460938 27.855469 L 85.242188 27.980469 L 85.027344 28.109375 L 84.179688 28.632812 L 83.332031 29.164062 C 83.050781 29.339844 82.765625 29.515625 82.496094 29.699219 C 81.949219 30.066406 81.402344 30.433594 80.859375 30.804688 L 80.25 31.226562 L 80.050781 31.371094 L 79.261719 31.945312 C 75.046875 35.023438 71.238281 38.421875 67.804688 41.984375 C 67.734375 42.058594 67.664062 42.128906 67.597656 42.203125 L 67.390625 42.429688 C 67.257812 42.578125 67.121094 42.730469 66.988281 42.882812 C 66.726562 43.183594 66.46875 43.496094 66.214844 43.808594 C 65.964844 44.121094 65.71875 44.441406 65.484375 44.761719 C 65.421875 44.839844 65.367188 44.921875 65.308594 45.003906 L 65.140625 45.25 C 65.03125 45.414062 64.921875 45.578125 64.8125 45.742188 C 64.382812 46.40625 63.984375 47.085938 63.613281 47.773438 L 63.472656 48.03125 C 63.429688 48.117188 63.386719 48.207031 63.34375 48.292969 C 63.261719 48.46875 63.175781 48.644531 63.09375 48.820312 C 62.933594 49.171875 62.777344 49.523438 62.632812 49.878906 C 62.484375 50.234375 62.347656 50.59375 62.214844 50.957031 C 62.152344 51.136719 62.085938 51.316406 62.027344 51.496094 C 61.996094 51.585938 61.964844 51.675781 61.9375 51.765625 L 61.855469 52.042969 C 61.640625 52.769531 61.457031 53.507812 61.308594 54.246094 C 61.234375 54.613281 61.167969 54.984375 61.109375 55.355469 C 61.082031 55.539062 61.054688 55.726562 61.03125 55.910156 C 61.007812 56.097656 60.988281 56.28125 60.972656 56.46875 C 60.90625 57.214844 60.871094 57.960938 60.871094 58.703125 C 60.871094 59.15625 60.878906 59.597656 60.894531 60.03125 C 60.902344 60.246094 60.910156 60.460938 60.917969 60.671875 C 60.921875 60.726562 60.925781 60.777344 60.929688 60.828125 C 60.929688 60.882812 60.933594 60.933594 60.9375 60.984375 C 60.945312 61.089844 60.957031 61.195312 60.964844 61.296875 C 61.03125 62.117188 61.128906 62.886719 61.253906 63.582031 C 61.511719 64.972656 61.894531 66.070312 62.429688 66.722656 C 62.429688 66.722656 62.269531 66.644531 61.988281 66.367188 C 61.703125 66.089844 61.296875 65.613281 60.800781 64.808594 C 60.304688 64.007812 59.726562 62.875 59.109375 61.277344 C 58.953125 60.878906 58.796875 60.449219 58.636719 59.988281 C 58.480469 59.527344 58.316406 59.03125 58.167969 58.507812 C 57.859375 57.457031 57.554688 56.269531 57.261719 54.921875 C 53.292969 60.652344 49.996094 66.492188 47.242188 72.238281 C 44.484375 77.988281 42.273438 83.640625 40.457031 89.035156 C 40.304688 89.488281 40.164062 89.945312 40.035156 90.402344 C 39.90625 90.863281 39.785156 91.324219 39.6875 91.785156 C 39.492188 92.714844 39.34375 93.652344 39.242188 94.589844 C 39.191406 95.058594 39.152344 95.527344 39.128906 96 C 39.117188 96.234375 39.105469 96.46875 39.097656 96.703125 C 39.09375 96.820312 39.089844 96.9375 39.089844 97.054688 L 39.09375 97.410156 C 39.105469 98.351562 39.164062 99.289062 39.273438 100.222656 C 39.355469 100.957031 39.457031 101.671875 39.566406 102.347656 C 39.621094 102.6875 39.683594 103.019531 39.746094 103.339844 C 39.808594 103.65625 39.878906 103.964844 39.953125 104.261719 C 40.246094 105.441406 40.59375 106.410156 41.007812 107.03125 C 41.007812 107.03125 40.550781 106.441406 39.828125 105.332031 C 39.464844 104.777344 39.035156 104.09375 38.5625 103.285156 C 38.445312 103.082031 38.324219 102.871094 38.199219 102.65625 C 38.082031 102.441406 37.957031 102.214844 37.832031 101.984375 C 37.582031 101.519531 37.324219 101.027344 37.0625 100.503906 C 36.683594 101.917969 36.363281 103.308594 36.046875 104.664062 C 35.890625 105.34375 35.738281 106.011719 35.589844 106.671875 C 35.519531 107.003906 35.445312 107.332031 35.375 107.65625 C 35.308594 107.984375 35.242188 108.308594 35.175781 108.632812 C 34.914062 109.921875 34.667969 111.171875 34.441406 112.390625 C 34.382812 112.691406 34.328125 112.992188 34.273438 113.292969 C 34.257812 113.367188 34.242188 113.441406 34.230469 113.515625 C 34.21875 113.589844 34.203125 113.664062 34.191406 113.738281 C 34.167969 113.886719 34.140625 114.035156 34.117188 114.183594 C 34.015625 114.773438 33.921875 115.351562 33.828125 115.921875 C 33.644531 117.058594 33.472656 118.152344 33.316406 119.207031 C 33.296875 119.335938 33.277344 119.46875 33.257812 119.597656 C 33.238281 119.730469 33.21875 119.859375 33.203125 119.988281 C 33.167969 120.246094 33.132812 120.503906 33.101562 120.753906 C 33.035156 121.261719 32.972656 121.753906 32.910156 122.234375 C 32.789062 123.203125 32.679688 124.121094 32.578125 124.988281 C 32.554688 125.207031 32.527344 125.417969 32.503906 125.628906 C 32.480469 125.839844 32.457031 126.050781 32.4375 126.253906 C 32.398438 126.664062 32.359375 127.0625 32.324219 127.449219 C 32.320312 127.515625 32.304688 127.578125 32.28125 127.640625 L 31.210938 130.394531 L 30.675781 131.773438 L 30.542969 132.117188 L 30.414062 132.460938 L 28.351562 137.992188 L 28.222656 138.335938 L 28.097656 138.683594 L 26.984375 141.777344 L 27.039062 141.800781 C 26.894531 142.195312 26.746094 142.59375 26.601562 142.992188 C 26.128906 144.308594 25.671875 145.613281 25.234375 146.902344 C 25.125 147.222656 25.015625 147.546875 24.910156 147.863281 C 24.804688 148.183594 24.703125 148.503906 24.601562 148.824219 C 24.398438 149.460938 24.199219 150.09375 24.003906 150.71875 C 23.847656 151.230469 23.695312 151.734375 23.542969 152.234375 L 19.324219 164.550781 C 19.230469 164.824219 19.636719 165.015625 19.839844 164.792969 C 22.167969 162.261719 26.902344 159.171875 28.238281 158.324219 C 28.394531 158.222656 28.371094 158.011719 28.199219 157.933594 C 27.019531 157.40625 26.113281 156.570312 25.429688 155.695312 C 26.96875 151.3125 28.496094 147.089844 30.007812 143.027344 L 30.039062 143.039062 L 31.097656 140.164062 C 31.359375 139.441406 31.640625 138.71875 31.914062 137.996094 L 32.742188 135.832031 L 33.566406 133.667969 C 33.703125 133.304688 33.847656 132.949219 33.992188 132.589844 L 34.417969 131.511719 L 35.273438 129.351562 L 35.703125 128.277344 L 36.023438 127.464844 L 36.132812 127.199219 L 38.339844 121.828125 L 38.796875 120.761719 L 39.710938 118.621094 L 40.625 116.484375 C 40.703125 116.304688 40.78125 116.128906 40.859375 115.953125 L 41.097656 115.417969 L 41.570312 114.355469 L 42.515625 112.226562 L 42.988281 111.164062 C 43.148438 110.808594 43.3125 110.457031 43.472656 110.105469 L 45.429688 105.871094 L 47.449219 101.660156 C 50.183594 96.0625 53.074219 90.519531 56.164062 85.058594 C 56.921875 83.6875 57.730469 82.335938 58.523438 80.980469 L 59.121094 79.960938 L 59.269531 79.710938 L 59.425781 79.457031 L 59.730469 78.953125 L 60.964844 76.9375 L 61.269531 76.433594 C 61.375 76.265625 61.476562 76.097656 61.582031 75.929688 L 62.21875 74.929688 L 63.492188 72.933594 L 63.648438 72.683594 L 63.8125 72.433594 L 64.140625 71.9375 L 65.453125 69.960938 L 65.78125 69.464844 L 65.949219 69.21875 C 66.003906 69.136719 66.058594 69.054688 66.117188 68.972656 L 67.472656 67.015625 L 68.152344 66.035156 C 68.382812 65.710938 68.617188 65.390625 68.851562 65.070312 L 70.253906 63.132812 L 70.429688 62.894531 L 70.609375 62.652344 L 70.972656 62.175781 L 71.695312 61.21875 L 72.421875 60.265625 L 72.601562 60.027344 C 72.664062 59.945312 72.726562 59.871094 72.789062 59.789062 L 73.160156 59.320312 L 74.65625 57.433594 C 74.71875 57.355469 74.78125 57.277344 74.84375 57.199219 L 75.039062 56.96875 L 75.421875 56.503906 L 76.195312 55.574219 L 76.964844 54.644531 L 78.957031 52.359375 C 79.023438 52.285156 79.089844 52.207031 79.15625 52.132812 L 79.363281 51.90625 L 81.007812 50.109375 L 81.210938 49.886719 C 81.28125 49.8125 81.351562 49.738281 81.421875 49.664062 L 81.847656 49.222656 L 83.117188 47.902344 L 83.332031 47.679688 C 83.402344 47.609375 83.476562 47.535156 83.546875 47.464844 L 84.421875 46.601562 C 86.753906 44.296875 89.203125 42.074219 91.800781 39.96875 L 91.628906 40.113281 C 91.570312 40.15625 91.511719 40.203125 91.460938 40.253906 L 91.125 40.542969 L 89.796875 41.699219 L 89.632812 41.84375 L 89.46875 41.992188 L 89.148438 42.289062 L 87.859375 43.472656 L 87.539062 43.773438 L 87.226562 44.074219 L 86.601562 44.683594 L 85.976562 45.289062 L 85.664062 45.59375 C 85.613281 45.644531 85.5625 45.691406 85.511719 45.746094 L 85.359375 45.898438 L 84.148438 47.140625 L 83.546875 47.757812 C 83.347656 47.96875 83.15625 48.179688 82.957031 48.390625 L 81.789062 49.652344 C 78.695312 53.042969 75.828125 56.566406 73.132812 60.175781 C 70.4375 63.789062 67.917969 67.484375 65.523438 71.242188 L 64.628906 72.648438 L 64.402344 73 L 64.1875 73.355469 L 62.453125 76.199219 L 62.234375 76.554688 L 62.023438 76.914062 L 60.347656 79.78125 L 60.140625 80.140625 L 60.035156 80.320312 L 59.933594 80.5 L 59.527344 81.222656 L 57.910156 84.113281 C 57.839844 84.234375 57.777344 84.355469 57.710938 84.476562 L 57.515625 84.839844 L 57.125 85.570312 C 56.601562 86.539062 56.078125 87.507812 55.5625 88.480469 L 54.050781 91.414062 L 53.671875 92.148438 C 53.546875 92.390625 53.417969 92.636719 53.296875 92.882812 L 52.566406 94.359375 L 51.839844 95.835938 L 51.472656 96.570312 L 51.292969 96.941406 L 51.199219 97.125 L 51.113281 97.308594 L 49.699219 100.28125 L 48.996094 101.765625 L 48.316406 103.257812 L 46.953125 106.242188 L 46.78125 106.617188 C 46.726562 106.742188 46.671875 106.867188 46.617188 106.992188 L 46.289062 107.742188 L 44.972656 110.742188 C 44.753906 111.242188 44.53125 111.742188 44.324219 112.246094 L 43.054688 115.261719 L 42.417969 116.769531 C 42.3125 117.019531 42.210938 117.273438 42.109375 117.523438 L 41.800781 118.28125 L 40.578125 121.3125 L 40.269531 122.066406 L 40.117188 122.445312 L 39.96875 122.828125 L 39.375 124.347656 L 38.195312 127.390625 L 37.898438 128.148438 L 37.613281 128.914062 L 37.039062 130.4375 C 36.796875 131.089844 37.554688 131.683594 38.148438 131.3125 C 39.058594 130.742188 39.957031 130.171875 40.835938 129.605469 C 41.28125 129.324219 41.722656 129.042969 42.164062 128.761719 C 42.601562 128.480469 43.035156 128.199219 43.46875 127.925781 C 44.332031 127.363281 45.183594 126.808594 46.019531 126.253906 C 46.4375 125.976562 46.851562 125.699219 47.265625 125.421875 C 47.679688 125.148438 48.09375 124.875 48.503906 124.601562 C 49.324219 124.054688 50.132812 123.511719 50.925781 122.96875 C 51.320312 122.695312 51.710938 122.425781 52.101562 122.15625 C 52.492188 121.886719 52.875 121.613281 53.265625 121.347656 C 54.820312 120.28125 56.320312 119.21875 57.765625 118.160156 C 63.597656 113.957031 68.742188 109.921875 73.292969 106.039062 C 71.921875 106.167969 70.675781 106.265625 69.539062 106.332031 C 68.410156 106.402344 67.394531 106.449219 66.484375 106.464844 C 64.660156 106.503906 63.25 106.441406 62.1875 106.339844 C 61.121094 106.234375 60.398438 106.09375 59.945312 105.972656 C 59.492188 105.851562 59.304688 105.757812 59.304688 105.757812 C 61.367188 106.421875 63.722656 106.28125 66.089844 105.722656 C 66.386719 105.652344 66.679688 105.574219 66.976562 105.492188 C 67.125 105.449219 67.273438 105.410156 67.421875 105.363281 C 67.570312 105.320312 67.71875 105.277344 67.867188 105.230469 C 68.464844 105.046875 69.058594 104.839844 69.644531 104.621094 C 70.816406 104.183594 71.960938 103.679688 73.042969 103.160156 C 73.3125 103.03125 73.582031 102.902344 73.851562 102.773438 C 74.117188 102.644531 74.378906 102.511719 74.636719 102.382812 C 75.148438 102.125 75.644531 101.863281 76.113281 101.609375 C 76.585938 101.351562 77.035156 101.101562 77.453125 100.863281 C 77.875 100.621094 78.273438 100.394531 78.640625 100.183594 C 80.113281 99.335938 81.085938 98.714844 81.300781 98.613281 C 81.324219 98.601562 81.351562 98.609375 81.371094 98.628906 C 81.394531 98.652344 81.433594 98.652344 81.457031 98.632812 C 85.347656 94.871094 88.679688 91.257812 91.566406 87.769531 C 94.453125 84.28125 96.886719 80.917969 98.976562 77.652344 C 99.109375 77.445312 99.234375 77.238281 99.363281 77.035156 C 99.492188 76.832031 99.621094 76.632812 99.746094 76.429688 C 100 76.03125 100.246094 75.625 100.484375 75.21875 C 100.542969 75.117188 100.601562 75.015625 100.664062 74.914062 L 100.75 74.761719 L 100.839844 74.613281 C 100.960938 74.417969 101.078125 74.21875 101.195312 74.019531 C 101.425781 73.625 101.652344 73.226562 101.871094 72.824219 C 101.925781 72.722656 101.984375 72.621094 102.039062 72.523438 C 102.09375 72.425781 102.148438 72.328125 102.203125 72.230469 C 102.3125 72.035156 102.421875 71.839844 102.527344 71.644531 C 102.742188 71.25 102.953125 70.855469 103.15625 70.460938 C 103.207031 70.359375 103.257812 70.265625 103.308594 70.167969 C 103.359375 70.070312 103.410156 69.976562 103.460938 69.878906 C 103.5625 69.6875 103.664062 69.492188 103.761719 69.296875 C 103.859375 69.105469 103.960938 68.910156 104.054688 68.714844 C 104.105469 68.617188 104.152344 68.519531 104.199219 68.417969 C 104.246094 68.320312 104.292969 68.222656 104.34375 68.128906 C 105.871094 65.046875 107.171875 62.039062 108.375 59.085938 C 107.921875 59.109375 107.484375 59.128906 107.054688 59.152344 C 106.617188 59.183594 106.195312 59.21875 105.777344 59.25 C 105.570312 59.265625 105.359375 59.28125 105.15625 59.296875 C 105.050781 59.304688 104.949219 59.3125 104.847656 59.320312 C 104.796875 59.324219 104.746094 59.328125 104.695312 59.332031 C 104.644531 59.335938 104.59375 59.34375 104.542969 59.347656 C 104.136719 59.386719 103.742188 59.429688 103.355469 59.46875 C 102.964844 59.503906 102.582031 59.542969 102.207031 59.578125 C 102.160156 59.585938 102.113281 59.585938 102.066406 59.59375 C 102.019531 59.597656 101.976562 59.605469 101.929688 59.609375 C 101.835938 59.621094 101.746094 59.632812 101.65625 59.644531 C 101.472656 59.664062 101.289062 59.6875 101.113281 59.707031 C 100.753906 59.75 100.402344 59.789062 100.0625 59.828125 C 99.890625 59.847656 99.71875 59.867188 99.550781 59.886719 C 99.46875 59.894531 99.382812 59.902344 99.300781 59.914062 C 99.21875 59.921875 99.136719 59.933594 99.054688 59.945312 C 98.40625 60.03125 97.785156 60.109375 97.195312 60.175781 C 96.898438 60.210938 96.609375 60.246094 96.328125 60.277344 C 96.1875 60.292969 96.054688 60.3125 95.917969 60.328125 C 95.78125 60.34375 95.648438 60.363281 95.519531 60.378906 C 94.992188 60.445312 94.496094 60.5 94.03125 60.550781 C 93.796875 60.578125 93.570312 60.597656 93.351562 60.621094 C 93.242188 60.632812 93.132812 60.640625 93.027344 60.652344 C 92.921875 60.664062 92.820312 60.671875 92.71875 60.683594 C 91.101562 60.855469 89.945312 60.90625 89.203125 60.910156 C 89.109375 60.910156 89.019531 60.910156 88.941406 60.910156 C 88.859375 60.90625 88.789062 60.90625 88.71875 60.90625 C 88.585938 60.902344 88.472656 60.898438 88.386719 60.894531 C 88.210938 60.886719 88.128906 60.875 88.128906 60.875 C 88.273438 60.863281 88.425781 60.851562 88.578125 60.832031 C 88.652344 60.824219 88.730469 60.8125 88.804688 60.804688 C 88.882812 60.792969 88.960938 60.78125 89.039062 60.769531 C 89.355469 60.726562 89.679688 60.671875 90.007812 60.601562 C 90.664062 60.464844 91.351562 60.28125 92.050781 60.058594 C 92.136719 60.03125 92.226562 60.007812 92.316406 59.976562 C 92.40625 59.953125 92.496094 59.921875 92.585938 59.894531 C 92.765625 59.839844 92.949219 59.78125 93.128906 59.722656 C 93.492188 59.601562 93.859375 59.472656 94.230469 59.335938 C 94.964844 59.054688 95.730469 58.78125 96.492188 58.476562 C 96.679688 58.402344 96.871094 58.324219 97.0625 58.246094 C 97.15625 58.207031 97.25 58.167969 97.347656 58.125 L 97.488281 58.066406 L 97.632812 58.011719 C 98.019531 57.859375 98.40625 57.703125 98.789062 57.546875 C 98.980469 57.464844 99.171875 57.386719 99.363281 57.304688 L 99.648438 57.183594 L 99.792969 57.121094 C 99.839844 57.101562 99.886719 57.082031 99.933594 57.0625 C 100.320312 56.910156 100.703125 56.753906 101.082031 56.597656 C 101.269531 56.515625 101.457031 56.4375 101.644531 56.359375 C 101.738281 56.320312 101.832031 56.277344 101.925781 56.238281 C 102.019531 56.199219 102.113281 56.164062 102.207031 56.125 C 102.582031 55.976562 102.953125 55.828125 103.316406 55.675781 C 103.5 55.601562 103.679688 55.523438 103.859375 55.449219 L 103.992188 55.394531 L 104.128906 55.339844 C 104.21875 55.308594 104.308594 55.269531 104.398438 55.238281 C 104.753906 55.097656 105.105469 54.960938 105.449219 54.820312 C 105.902344 54.628906 106.347656 54.449219 106.773438 54.226562 C 106.984375 54.121094 107.191406 54.003906 107.394531 53.882812 L 107.542969 53.792969 L 107.695312 53.703125 C 107.792969 53.644531 107.894531 53.582031 107.992188 53.519531 C 108.183594 53.394531 108.375 53.261719 108.5625 53.125 C 108.652344 53.054688 108.746094 52.984375 108.835938 52.914062 L 108.972656 52.804688 L 109.105469 52.699219 C 109.464844 52.414062 109.800781 52.105469 110.121094 51.773438 C 111.414062 50.476562 112.445312 48.890625 113.253906 47.011719 C 113.414062 46.640625 113.574219 46.273438 113.734375 45.90625 C 113.898438 45.542969 114.0625 45.179688 114.222656 44.820312 C 114.304688 44.640625 114.386719 44.457031 114.46875 44.277344 C 114.554688 44.097656 114.640625 43.921875 114.722656 43.746094 C 114.890625 43.390625 115.058594 43.03125 115.230469 42.679688 C 115.40625 42.328125 115.582031 41.980469 115.753906 41.636719 C 115.796875 41.550781 115.839844 41.460938 115.886719 41.375 C 115.929688 41.289062 115.972656 41.199219 116.015625 41.117188 C 116.105469 40.945312 116.195312 40.777344 116.285156 40.609375 C 116.375 40.4375 116.46875 40.269531 116.558594 40.097656 C 116.601562 40.015625 116.648438 39.929688 116.691406 39.84375 L 116.832031 39.59375 C 117.019531 39.261719 117.203125 38.929688 117.390625 38.605469 C 117.574219 38.269531 117.765625 37.953125 117.957031 37.636719 C 118.054688 37.472656 118.152344 37.316406 118.246094 37.15625 C 118.296875 37.078125 118.34375 36.996094 118.390625 36.917969 C 118.441406 36.835938 118.488281 36.761719 118.539062 36.683594 C 118.734375 36.375 118.933594 36.066406 119.132812 35.761719 C 119.179688 35.683594 119.230469 35.605469 119.28125 35.53125 C 119.328125 35.457031 119.378906 35.382812 119.429688 35.308594 C 119.53125 35.15625 119.632812 35.011719 119.734375 34.863281 C 119.835938 34.714844 119.9375 34.566406 120.039062 34.421875 C 120.089844 34.347656 120.140625 34.273438 120.191406 34.203125 C 120.242188 34.132812 120.292969 34.058594 120.34375 33.988281 C 120.550781 33.707031 120.757812 33.421875 120.964844 33.144531 C 121.070312 33.003906 121.171875 32.871094 121.277344 32.734375 C 121.382812 32.597656 121.488281 32.464844 121.59375 32.332031 C 121.699219 32.199219 121.804688 32.0625 121.90625 31.933594 C 122.011719 31.800781 122.121094 31.675781 122.226562 31.546875 C 122.4375 31.292969 122.648438 31.039062 122.863281 30.792969 C 123.074219 30.546875 123.289062 30.308594 123.5 30.074219 C 123.609375 29.957031 123.714844 29.839844 123.820312 29.726562 C 123.925781 29.613281 124.035156 29.5 124.140625 29.390625 C 124.351562 29.167969 124.5625 28.949219 124.773438 28.738281 C 125.203125 28.320312 125.617188 27.914062 126.035156 27.546875 C 126.140625 27.457031 126.242188 27.363281 126.34375 27.273438 C 126.445312 27.183594 126.546875 27.089844 126.652344 27.007812 C 126.855469 26.835938 127.058594 26.667969 127.257812 26.503906 C 128.816406 25.214844 130.09375 24.324219 130.863281 23.796875 C 131.085938 23.648438 131.171875 23.429688 131.128906 23.207031 " fill-opacity="1" fill-rule="nonzero"/></g><g fill="#000000" fill-opacity="1"><g transform="translate(129.352818, 108.911719)"><g><path d="M 23.78125 0.640625 C 19.445312 0.640625 16.21875 -0.976562 14.09375 -4.21875 L 13.453125 -4.109375 L 13.453125 0 L 4.90625 0 L 4.90625 -47.6875 L 13.453125 -47.6875 L 13.453125 -30.015625 L 14.09375 -29.890625 C 15.269531 -31.515625 16.65625 -32.71875 18.25 -33.5 C 19.84375 -34.28125 21.75 -34.671875 23.96875 -34.671875 C 26.71875 -34.671875 29.117188 -34.019531 31.171875 -32.71875 C 33.234375 -31.425781 34.835938 -29.457031 35.984375 -26.8125 C 37.140625 -24.175781 37.71875 -20.90625 37.71875 -17 C 37.71875 -13.132812 37.117188 -9.878906 35.921875 -7.234375 C 34.734375 -4.585938 33.09375 -2.613281 31 -1.3125 C 28.90625 -0.0078125 26.5 0.640625 23.78125 0.640625 Z M 21.1875 -6.59375 C 23.695312 -6.59375 25.609375 -7.429688 26.921875 -9.109375 C 28.242188 -10.785156 28.90625 -13.414062 28.90625 -17 C 28.90625 -20.59375 28.242188 -23.226562 26.921875 -24.90625 C 25.609375 -26.582031 23.695312 -27.421875 21.1875 -27.421875 C 18.78125 -27.421875 16.875 -26.554688 15.46875 -24.828125 C 14.0625 -23.097656 13.359375 -20.488281 13.359375 -17 C 13.359375 -13.5 14.0625 -10.890625 15.46875 -9.171875 C 16.875 -7.453125 18.78125 -6.59375 21.1875 -6.59375 Z M 21.1875 -6.59375 "/></g></g></g><g fill="#000000" fill-opacity="1"><g transform="translate(170.096148, 108.911719)"><g><path d="M 14.125 0.640625 C 11.0625 0.640625 8.722656 -0.179688 7.109375 -1.828125 C 5.492188 -3.484375 4.6875 -6 4.6875 -9.375 L 4.6875 -47.6875 L 13.234375 -47.6875 L 13.234375 -9.71875 C 13.234375 -7.632812 14.097656 -6.59375 15.828125 -6.59375 C 16.316406 -6.59375 16.835938 -6.675781 17.390625 -6.84375 L 17.828125 -6.71875 L 18.59375 -0.15625 C 18.125 0.09375 17.5 0.285156 16.71875 0.421875 C 15.9375 0.566406 15.070312 0.640625 14.125 0.640625 Z M 14.125 0.640625 "/></g></g></g><g fill="#000000" fill-opacity="1"><g transform="translate(189.650479, 108.911719)"><g><path d="M 19.765625 0.640625 C 16.441406 0.640625 13.519531 -0.0390625 11 -1.40625 C 8.476562 -2.769531 6.519531 -4.769531 5.125 -7.40625 C 3.738281 -10.050781 3.046875 -13.25 3.046875 -17 C 3.046875 -20.738281 3.738281 -23.929688 5.125 -26.578125 C 6.519531 -29.234375 8.476562 -31.242188 11 -32.609375 C 13.519531 -33.984375 16.441406 -34.671875 19.765625 -34.671875 C 23.097656 -34.671875 26.023438 -33.984375 28.546875 -32.609375 C 31.066406 -31.242188 33.023438 -29.234375 34.421875 -26.578125 C 35.816406 -23.929688 36.515625 -20.738281 36.515625 -17 C 36.515625 -13.25 35.816406 -10.050781 34.421875 -7.40625 C 33.023438 -4.769531 31.066406 -2.769531 28.546875 -1.40625 C 26.023438 -0.0390625 23.097656 0.640625 19.765625 0.640625 Z M 19.765625 -6.59375 C 25.054688 -6.59375 27.703125 -10.0625 27.703125 -17 C 27.703125 -20.59375 27.019531 -23.226562 25.65625 -24.90625 C 24.300781 -26.582031 22.335938 -27.421875 19.765625 -27.421875 C 14.484375 -27.421875 11.84375 -23.945312 11.84375 -17 C 11.84375 -10.0625 14.484375 -6.59375 19.765625 -6.59375 Z M 19.765625 -6.59375 "/></g></g></g><g fill="#000000" fill-opacity="1"><g transform="translate(229.19094, 108.911719)"><g><path d="M 17.640625 14.4375 C 12.023438 14.4375 7.878906 13.613281 5.203125 11.96875 C 2.535156 10.320312 1.203125 8.03125 1.203125 5.09375 C 1.203125 3.300781 1.769531 1.832031 2.90625 0.6875 C 4.050781 -0.445312 5.691406 -1.210938 7.828125 -1.609375 L 7.828125 -2.25 C 6.679688 -2.945312 5.851562 -3.722656 5.34375 -4.578125 C 4.84375 -5.429688 4.59375 -6.425781 4.59375 -7.5625 C 4.59375 -10.289062 6.375 -12.128906 9.9375 -13.078125 L 9.9375 -13.71875 C 8.101562 -14.769531 6.722656 -16.070312 5.796875 -17.625 C 4.867188 -19.175781 4.40625 -21.050781 4.40625 -23.25 C 4.40625 -25.519531 4.925781 -27.507812 5.96875 -29.21875 C 7.007812 -30.9375 8.53125 -32.273438 10.53125 -33.234375 C 12.539062 -34.191406 14.941406 -34.671875 17.734375 -34.671875 C 20.578125 -34.671875 22.835938 -34.175781 24.515625 -33.1875 C 25.566406 -34.707031 26.175781 -36.46875 26.34375 -38.46875 L 26.984375 -38.859375 L 33.125 -37.359375 C 32.9375 -35.734375 32.460938 -34.367188 31.703125 -33.265625 C 30.941406 -32.160156 29.757812 -31.179688 28.15625 -30.328125 L 28.15625 -29.640625 C 30.070312 -27.953125 31.03125 -25.597656 31.03125 -22.578125 C 31.03125 -20.484375 30.503906 -18.601562 29.453125 -16.9375 C 28.410156 -15.269531 26.882812 -13.953125 24.875 -12.984375 C 22.875 -12.015625 20.492188 -11.53125 17.734375 -11.53125 L 16.4375 -11.5625 C 15.613281 -11.601562 15.039062 -11.625 14.71875 -11.625 C 13.9375 -11.625 13.320312 -11.410156 12.875 -10.984375 C 12.4375 -10.566406 12.21875 -10.03125 12.21875 -9.375 C 12.21875 -8.65625 12.503906 -8.09375 13.078125 -7.6875 C 13.648438 -7.289062 14.492188 -7.070312 15.609375 -7.03125 L 23.234375 -6.75 C 30.753906 -6.53125 34.515625 -3.289062 34.515625 2.96875 C 34.515625 5.164062 33.953125 7.117188 32.828125 8.828125 C 31.710938 10.546875 29.898438 11.910156 27.390625 12.921875 C 24.878906 13.929688 21.628906 14.4375 17.640625 14.4375 Z M 17.734375 -17.515625 C 19.378906 -17.515625 20.664062 -18 21.59375 -18.96875 C 22.519531 -19.9375 22.984375 -21.316406 22.984375 -23.109375 C 22.984375 -24.890625 22.519531 -26.257812 21.59375 -27.21875 C 20.664062 -28.175781 19.378906 -28.65625 17.734375 -28.65625 C 16.066406 -28.65625 14.78125 -28.175781 13.875 -27.21875 C 12.96875 -26.257812 12.515625 -24.890625 12.515625 -23.109375 C 12.515625 -21.296875 12.96875 -19.910156 13.875 -18.953125 C 14.78125 -17.992188 16.066406 -17.515625 17.734375 -17.515625 Z M 17.640625 8.234375 C 20.566406 8.234375 22.691406 7.820312 24.015625 7 C 25.335938 6.175781 26 5.109375 26 3.796875 C 26 2.722656 25.660156 1.929688 24.984375 1.421875 C 24.304688 0.921875 23.226562 0.648438 21.75 0.609375 L 15.015625 0.3125 C 14.796875 0.3125 14.585938 0.300781 14.390625 0.28125 C 14.191406 0.257812 14 0.25 13.8125 0.25 C 12.375 0.25 11.28125 0.554688 10.53125 1.171875 C 9.78125 1.785156 9.40625 2.640625 9.40625 3.734375 C 9.40625 5.171875 10.09375 6.28125 11.46875 7.0625 C 12.851562 7.84375 14.910156 8.234375 17.640625 8.234375 Z M 17.640625 8.234375 "/></g></g></g><g fill="#000000" fill-opacity="1"><g transform="translate(264.567624, 108.911719)"><g><path d="M 23.46875 -8.109375 L 25.6875 -1.78125 C 24.769531 -1.019531 23.609375 -0.425781 22.203125 0 C 20.804688 0.425781 19.222656 0.640625 17.453125 0.640625 C 13.773438 0.640625 10.976562 -0.359375 9.0625 -2.359375 C 7.15625 -4.359375 6.203125 -7.273438 6.203125 -11.109375 L 6.203125 -27.265625 L 1.015625 -27.265625 L 1.015625 -34.046875 L 6.203125 -34.046875 L 6.203125 -40.6875 L 14.75 -42.078125 L 14.75 -34.046875 L 24.40625 -34.046875 L 24.40625 -27.265625 L 14.75 -27.265625 L 14.75 -11.71875 C 14.75 -10.03125 15.097656 -8.800781 15.796875 -8.03125 C 16.492188 -7.257812 17.507812 -6.875 18.84375 -6.875 C 20.363281 -6.875 21.691406 -7.285156 22.828125 -8.109375 Z M 23.46875 -8.109375 "/></g></g></g><g fill="#000000" fill-opacity="1"><g transform="translate(290.999898, 108.911719)"><g><path d="M 13.265625 0.640625 C 11.085938 0.640625 9.195312 0.238281 7.59375 -0.5625 C 5.988281 -1.363281 4.753906 -2.539062 3.890625 -4.09375 C 3.023438 -5.644531 2.59375 -7.507812 2.59375 -9.6875 C 2.59375 -11.695312 3.023438 -13.382812 3.890625 -14.75 C 4.753906 -16.125 6.085938 -17.25 7.890625 -18.125 C 9.703125 -19 12.066406 -19.671875 14.984375 -20.140625 C 17.023438 -20.472656 18.570312 -20.832031 19.625 -21.21875 C 20.6875 -21.613281 21.398438 -22.054688 21.765625 -22.546875 C 22.140625 -23.035156 22.328125 -23.664062 22.328125 -24.4375 C 22.328125 -25.519531 21.945312 -26.347656 21.1875 -26.921875 C 20.425781 -27.503906 19.160156 -27.796875 17.390625 -27.796875 C 15.503906 -27.796875 13.707031 -27.375 12 -26.53125 C 10.289062 -25.6875 8.8125 -24.578125 7.5625 -23.203125 L 6.9375 -23.203125 L 3.359375 -28.59375 C 5.085938 -30.507812 7.195312 -32 9.6875 -33.0625 C 12.175781 -34.132812 14.890625 -34.671875 17.828125 -34.671875 C 22.328125 -34.671875 25.582031 -33.710938 27.59375 -31.796875 C 29.613281 -29.890625 30.625 -27.175781 30.625 -23.65625 L 30.625 -8.890625 C 30.625 -7.359375 31.296875 -6.59375 32.640625 -6.59375 C 33.148438 -6.59375 33.648438 -6.6875 34.140625 -6.875 L 34.578125 -6.75 L 35.1875 -0.796875 C 34.71875 -0.492188 34.0625 -0.242188 33.21875 -0.046875 C 32.375 0.148438 31.445312 0.25 30.4375 0.25 C 28.40625 0.25 26.816406 -0.140625 25.671875 -0.921875 C 24.535156 -1.703125 23.722656 -2.925781 23.234375 -4.59375 L 22.578125 -4.65625 C 20.910156 -1.125 17.804688 0.640625 13.265625 0.640625 Z M 15.984375 -5.734375 C 17.953125 -5.734375 19.523438 -6.394531 20.703125 -7.71875 C 21.890625 -9.050781 22.484375 -10.898438 22.484375 -13.265625 L 22.484375 -16.71875 L 21.90625 -16.84375 C 21.382812 -16.425781 20.707031 -16.078125 19.875 -15.796875 C 19.039062 -15.523438 17.84375 -15.253906 16.28125 -14.984375 C 14.4375 -14.679688 13.109375 -14.15625 12.296875 -13.40625 C 11.484375 -12.65625 11.078125 -11.585938 11.078125 -10.203125 C 11.078125 -8.742188 11.507812 -7.632812 12.375 -6.875 C 13.238281 -6.113281 14.441406 -5.734375 15.984375 -5.734375 Z M 15.984375 -5.734375 "/></g></g></g><g fill="#000000" fill-opacity="1"><g transform="translate(326.870067, 108.911719)"><g><path d="M 9.15625 -38.09375 C 7.613281 -38.09375 6.359375 -38.5625 5.390625 -39.5 C 4.429688 -40.4375 3.953125 -41.644531 3.953125 -43.125 C 3.953125 -44.582031 4.429688 -45.78125 5.390625 -46.71875 C 6.359375 -47.65625 7.613281 -48.125 9.15625 -48.125 C 10.1875 -48.125 11.101562 -47.90625 11.90625 -47.46875 C 12.707031 -47.039062 13.328125 -46.453125 13.765625 -45.703125 C 14.210938 -44.953125 14.4375 -44.09375 14.4375 -43.125 C 14.4375 -42.15625 14.210938 -41.289062 13.765625 -40.53125 C 13.328125 -39.769531 12.707031 -39.171875 11.90625 -38.734375 C 11.101562 -38.304688 10.1875 -38.09375 9.15625 -38.09375 Z M 4.90625 0 L 4.90625 -34.015625 L 13.453125 -34.015625 L 13.453125 0 Z M 4.90625 0 "/></g></g></g><g fill="#000000" fill-opacity="1"><g transform="translate(345.190687, 108.911719)"><g><path d="M 14.125 0.640625 C 11.0625 0.640625 8.722656 -0.179688 7.109375 -1.828125 C 5.492188 -3.484375 4.6875 -6 4.6875 -9.375 L 4.6875 -47.6875 L 13.234375 -47.6875 L 13.234375 -9.71875 C 13.234375 -7.632812 14.097656 -6.59375 15.828125 -6.59375 C 16.316406 -6.59375 16.835938 -6.675781 17.390625 -6.84375 L 17.828125 -6.71875 L 18.59375 -0.15625 C 18.125 0.09375 17.5 0.285156 16.71875 0.421875 C 15.9375 0.566406 15.070312 0.640625 14.125 0.640625 Z M 14.125 0.640625 "/></g></g></g></svg>