<svg xmlns="http://www.w3.org/2000/svg" xmlns:xlink="http://www.w3.org/1999/xlink" width="512" zoomAndPan="magnify" viewBox="0 0 384 191.999996" height="256" preserveAspectRatio="xMidYMid meet" version="1.0"><defs><g/><clipPath id="77118ff0be"><path d="M 25 115 L 199.949219 115 L 199.949219 172.949219 L 25 172.949219 Z M 25 115 " clip-rule="nonzero"/></clipPath><clipPath id="885237fe14"><path d="M 19.199219 19.199219 L 132 19.199219 L 132 165 L 19.199219 165 Z M 19.199219 19.199219 " clip-rule="nonzero"/></clipPath></defs><g clip-path="url(#77118ff0be)"><path fill="#ffffff" d="M 194.058594 119.59375 C 191.9375 118.414062 189.644531 117.484375 187.238281 116.851562 C 186.035156 116.542969 184.804688 116.304688 183.558594 116.140625 L 183.441406 116.121094 L 183.382812 116.117188 L 183.324219 116.109375 L 183.089844 116.082031 C 182.933594 116.066406 182.777344 116.046875 182.621094 116.03125 C 182.460938 116.015625 182.304688 116.003906 182.148438 115.988281 L 181.914062 115.96875 C 181.875 115.964844 181.835938 115.960938 181.792969 115.957031 L 181.675781 115.949219 C 181.519531 115.941406 181.363281 115.929688 181.203125 115.921875 C 181.125 115.917969 181.046875 115.910156 180.964844 115.90625 L 180.726562 115.898438 C 180.570312 115.894531 180.410156 115.886719 180.253906 115.878906 C 180.09375 115.875 179.9375 115.875 179.777344 115.871094 C 179.140625 115.863281 178.503906 115.875 177.867188 115.898438 C 177.707031 115.90625 177.546875 115.914062 177.386719 115.921875 L 177.148438 115.933594 L 177.027344 115.941406 L 176.910156 115.949219 C 176.75 115.960938 176.589844 115.976562 176.429688 115.988281 C 176.347656 115.992188 176.269531 115.996094 176.191406 116.003906 L 175.949219 116.027344 C 175.789062 116.042969 175.628906 116.058594 175.46875 116.074219 C 175.3125 116.089844 175.152344 116.109375 174.992188 116.128906 L 174.75 116.15625 L 174.632812 116.171875 L 174.511719 116.1875 C 174.351562 116.210938 174.191406 116.230469 174.03125 116.253906 C 173.953125 116.261719 173.875 116.273438 173.792969 116.285156 L 173.554688 116.324219 C 173.394531 116.347656 173.234375 116.375 173.074219 116.398438 C 172.914062 116.425781 172.757812 116.453125 172.597656 116.484375 L 172.359375 116.523438 C 172.277344 116.539062 172.199219 116.550781 172.121094 116.566406 C 170.847656 116.808594 169.574219 117.105469 168.3125 117.449219 L 168.195312 117.480469 L 168.078125 117.515625 L 167.839844 117.582031 C 167.683594 117.628906 167.527344 117.671875 167.367188 117.71875 C 167.210938 117.765625 167.054688 117.8125 166.898438 117.859375 C 166.742188 117.90625 166.585938 117.953125 166.425781 118.003906 C 166.113281 118.105469 165.800781 118.203125 165.488281 118.308594 C 165.332031 118.359375 165.175781 118.414062 165.019531 118.464844 C 164.863281 118.519531 164.710938 118.574219 164.554688 118.628906 C 163.929688 118.84375 163.3125 119.078125 162.691406 119.316406 C 162.539062 119.375 162.386719 119.4375 162.230469 119.496094 C 162.074219 119.558594 161.921875 119.617188 161.769531 119.683594 C 161.613281 119.746094 161.460938 119.808594 161.308594 119.871094 L 161.078125 119.964844 L 160.847656 120.066406 C 159.621094 120.582031 158.40625 121.136719 157.199219 121.722656 C 155.992188 122.3125 154.796875 122.933594 153.609375 123.582031 L 153.164062 123.824219 C 153.015625 123.90625 152.871094 123.988281 152.71875 124.074219 C 152.574219 124.152344 152.425781 124.238281 152.277344 124.320312 C 152.128906 124.40625 151.984375 124.492188 151.835938 124.574219 C 151.6875 124.660156 151.542969 124.746094 151.394531 124.828125 C 151.25 124.914062 151.101562 125 150.957031 125.085938 C 150.664062 125.261719 150.371094 125.433594 150.078125 125.605469 C 149.929688 125.691406 149.785156 125.78125 149.640625 125.867188 C 149.496094 125.957031 149.351562 126.046875 149.203125 126.132812 C 149.058594 126.222656 148.910156 126.308594 148.765625 126.398438 C 148.621094 126.484375 148.476562 126.574219 148.328125 126.664062 C 148.039062 126.84375 147.746094 127.019531 147.457031 127.203125 C 147.164062 127.382812 146.875 127.5625 146.585938 127.746094 L 146.148438 128.019531 C 146.003906 128.113281 145.859375 128.203125 145.714844 128.296875 C 145.570312 128.390625 145.425781 128.480469 145.28125 128.574219 C 145.132812 128.664062 144.992188 128.757812 144.84375 128.851562 C 144.554688 129.035156 144.265625 129.222656 143.976562 129.410156 C 143.6875 129.597656 143.402344 129.789062 143.109375 129.976562 C 138.492188 133.003906 133.914062 136.230469 129.304688 139.53125 C 124.691406 142.828125 120.046875 146.195312 115.28125 149.496094 C 114.089844 150.320312 112.890625 151.144531 111.683594 151.957031 C 110.472656 152.769531 109.257812 153.578125 108.03125 154.375 C 107.722656 154.574219 107.414062 154.773438 107.105469 154.96875 C 106.800781 155.167969 106.492188 155.367188 106.179688 155.5625 C 105.871094 155.757812 105.5625 155.953125 105.25 156.152344 C 104.9375 156.34375 104.628906 156.539062 104.316406 156.734375 C 103.066406 157.507812 101.804688 158.269531 100.53125 159.019531 C 99.257812 159.765625 97.96875 160.496094 96.667969 161.207031 C 95.367188 161.917969 94.050781 162.609375 92.722656 163.28125 C 91.394531 163.953125 90.046875 164.59375 88.6875 165.214844 C 88.011719 165.527344 87.324219 165.824219 86.636719 166.125 C 86.292969 166.273438 85.949219 166.417969 85.605469 166.5625 C 85.433594 166.636719 85.257812 166.707031 85.085938 166.777344 C 84.910156 166.847656 84.738281 166.917969 84.5625 166.988281 C 84.414062 167.050781 84.261719 167.113281 84.113281 167.171875 C 83.960938 167.234375 83.808594 167.292969 83.65625 167.351562 C 83.503906 167.410156 83.355469 167.46875 83.203125 167.527344 L 82.976562 167.617188 C 82.902344 167.644531 82.824219 167.675781 82.75 167.703125 C 82.140625 167.929688 81.535156 168.160156 80.921875 168.375 C 80.769531 168.429688 80.617188 168.484375 80.464844 168.539062 L 80.234375 168.617188 L 80.007812 168.699219 C 79.699219 168.800781 79.394531 168.90625 79.085938 169.007812 C 79.011719 169.035156 78.933594 169.058594 78.859375 169.085938 L 78.625 169.160156 C 78.472656 169.207031 78.320312 169.257812 78.164062 169.308594 C 78.011719 169.355469 77.859375 169.40625 77.703125 169.457031 L 77.589844 169.492188 L 77.472656 169.527344 L 77.242188 169.597656 C 76.933594 169.691406 76.625 169.785156 76.316406 169.878906 C 76.238281 169.902344 76.160156 169.921875 76.085938 169.945312 L 75.851562 170.011719 C 75.695312 170.054688 75.542969 170.101562 75.386719 170.144531 C 75.230469 170.1875 75.078125 170.230469 74.921875 170.277344 C 74.769531 170.316406 74.613281 170.359375 74.457031 170.402344 C 74.144531 170.484375 73.835938 170.566406 73.527344 170.648438 C 72.285156 170.964844 71.050781 171.238281 69.8125 171.382812 C 69.195312 171.457031 68.578125 171.492188 67.96875 171.488281 C 67.355469 171.480469 66.75 171.433594 66.15625 171.328125 C 66.085938 171.3125 66.007812 171.300781 65.9375 171.285156 L 65.824219 171.265625 L 65.769531 171.253906 L 65.71875 171.242188 C 65.578125 171.207031 65.4375 171.171875 65.300781 171.128906 C 65.160156 171.085938 65.023438 171.039062 64.890625 170.988281 C 64.757812 170.933594 64.625 170.878906 64.496094 170.816406 C 64.367188 170.753906 64.242188 170.691406 64.121094 170.617188 L 64.074219 170.589844 L 64.03125 170.5625 L 63.941406 170.507812 C 63.882812 170.46875 63.824219 170.429688 63.769531 170.390625 C 63.738281 170.367188 63.710938 170.347656 63.683594 170.328125 L 63.601562 170.265625 C 63.574219 170.246094 63.550781 170.222656 63.523438 170.199219 L 63.484375 170.167969 C 63.472656 170.15625 63.460938 170.144531 63.445312 170.132812 C 63.34375 170.042969 63.253906 169.949219 63.164062 169.851562 C 62.992188 169.652344 62.851562 169.441406 62.753906 169.21875 C 62.703125 169.105469 62.667969 168.992188 62.640625 168.875 C 62.609375 168.757812 62.597656 168.640625 62.589844 168.519531 C 62.578125 168.28125 62.609375 168.03125 62.675781 167.78125 C 62.746094 167.53125 62.855469 167.28125 62.988281 167.03125 C 63.121094 166.78125 63.277344 166.53125 63.449219 166.289062 C 63.535156 166.164062 63.625 166.042969 63.71875 165.917969 C 63.765625 165.855469 63.8125 165.792969 63.859375 165.734375 L 64 165.550781 C 64.1875 165.3125 64.382812 165.074219 64.585938 164.839844 C 64.789062 164.605469 64.992188 164.375 65.203125 164.144531 C 65.625 163.6875 66.058594 163.242188 66.503906 162.796875 C 66.945312 162.355469 67.394531 161.917969 67.847656 161.480469 C 68.75 160.609375 69.667969 159.742188 70.566406 158.859375 C 71.46875 157.976562 72.359375 157.078125 73.210938 156.140625 C 73.632812 155.671875 74.050781 155.195312 74.449219 154.699219 C 74.550781 154.578125 74.652344 154.453125 74.75 154.328125 L 74.894531 154.140625 L 75.039062 153.949219 C 75.136719 153.824219 75.230469 153.695312 75.324219 153.566406 C 75.371094 153.5 75.417969 153.4375 75.464844 153.371094 C 75.507812 153.304688 75.554688 153.242188 75.601562 153.175781 L 75.738281 152.976562 C 75.78125 152.914062 75.824219 152.84375 75.871094 152.777344 C 75.957031 152.644531 76.042969 152.507812 76.128906 152.375 C 76.296875 152.101562 76.460938 151.824219 76.613281 151.542969 C 76.691406 151.402344 76.765625 151.257812 76.839844 151.113281 C 76.875 151.042969 76.910156 150.96875 76.945312 150.894531 L 76.996094 150.789062 L 77.046875 150.675781 L 77.148438 150.457031 L 77.242188 150.230469 C 77.273438 150.15625 77.304688 150.082031 77.332031 150.003906 L 77.375 149.890625 C 77.390625 149.851562 77.40625 149.816406 77.417969 149.777344 L 77.5 149.546875 C 77.515625 149.507812 77.527344 149.46875 77.539062 149.429688 L 77.574219 149.3125 L 77.613281 149.199219 C 77.625 149.15625 77.632812 149.117188 77.644531 149.078125 C 77.667969 149 77.691406 148.921875 77.710938 148.84375 C 77.792969 148.523438 77.859375 148.203125 77.910156 147.878906 C 77.957031 147.554688 77.988281 147.222656 77.996094 146.890625 C 78.003906 146.558594 77.992188 146.222656 77.949219 145.886719 C 77.871094 145.222656 77.675781 144.558594 77.375 143.953125 C 77.222656 143.648438 77.046875 143.359375 76.84375 143.089844 C 76.644531 142.820312 76.417969 142.570312 76.179688 142.335938 C 75.703125 141.875 75.160156 141.492188 74.59375 141.175781 C 74.027344 140.863281 73.429688 140.617188 72.824219 140.421875 C 72.519531 140.328125 72.210938 140.246094 71.902344 140.175781 C 71.75 140.136719 71.59375 140.105469 71.441406 140.074219 L 71.207031 140.035156 C 71.128906 140.019531 71.050781 140.011719 70.972656 139.996094 C 70.664062 139.949219 70.351562 139.910156 70.039062 139.886719 C 69.726562 139.863281 69.414062 139.847656 69.101562 139.839844 C 68.789062 139.835938 68.476562 139.839844 68.164062 139.855469 C 67.851562 139.871094 67.539062 139.898438 67.230469 139.9375 C 66.609375 140.011719 65.992188 140.128906 65.390625 140.300781 L 65.164062 140.367188 C 65.085938 140.390625 65.011719 140.414062 64.9375 140.4375 C 64.898438 140.453125 64.863281 140.464844 64.828125 140.476562 L 64.71875 140.515625 L 64.503906 140.589844 L 64.398438 140.628906 L 64.289062 140.667969 L 64.078125 140.746094 C 64.003906 140.773438 63.933594 140.796875 63.863281 140.828125 L 63.652344 140.910156 C 63.085938 141.128906 62.527344 141.367188 61.980469 141.617188 C 61.429688 141.867188 60.890625 142.128906 60.355469 142.402344 C 60.222656 142.472656 60.085938 142.539062 59.957031 142.609375 C 59.824219 142.679688 59.691406 142.75 59.558594 142.820312 C 59.425781 142.890625 59.296875 142.960938 59.164062 143.03125 C 59.03125 143.105469 58.902344 143.179688 58.773438 143.25 C 58.25 143.539062 57.738281 143.839844 57.226562 144.144531 C 56.71875 144.445312 56.214844 144.753906 55.710938 145.066406 C 54.710938 145.6875 53.722656 146.324219 52.742188 146.957031 C 52.25 147.269531 51.757812 147.585938 51.269531 147.894531 C 51.023438 148.050781 50.777344 148.203125 50.53125 148.359375 C 50.289062 148.511719 50.042969 148.664062 49.796875 148.820312 C 49.304688 149.125 48.8125 149.433594 48.324219 149.742188 C 47.835938 150.050781 47.347656 150.363281 46.859375 150.671875 C 44.921875 151.917969 43.011719 153.179688 41.136719 154.457031 C 40.667969 154.777344 40.199219 155.097656 39.738281 155.421875 C 39.503906 155.582031 39.273438 155.742188 39.042969 155.902344 C 38.808594 156.066406 38.578125 156.222656 38.347656 156.386719 C 37.890625 156.710938 37.429688 157.039062 36.972656 157.359375 C 36.515625 157.6875 36.0625 158.015625 35.609375 158.34375 C 31.996094 160.964844 28.507812 163.644531 25.175781 166.386719 C 32.652344 160.539062 40.851562 154.90625 49.683594 149.59375 C 49.957031 149.429688 50.234375 149.261719 50.511719 149.09375 C 50.789062 148.929688 51.066406 148.761719 51.34375 148.59375 C 51.898438 148.253906 52.449219 147.914062 53.003906 147.570312 C 54.109375 146.886719 55.21875 146.195312 56.34375 145.523438 C 57.46875 144.851562 58.609375 144.199219 59.773438 143.589844 C 60.941406 142.984375 62.132812 142.417969 63.359375 141.925781 C 63.664062 141.804688 63.972656 141.6875 64.285156 141.574219 L 64.519531 141.492188 C 64.597656 141.464844 64.675781 141.433594 64.753906 141.410156 L 65.105469 141.292969 C 65.144531 141.277344 65.183594 141.265625 65.222656 141.253906 C 65.835938 141.058594 66.472656 140.925781 67.121094 140.847656 C 67.765625 140.765625 68.421875 140.738281 69.078125 140.753906 C 69.734375 140.773438 70.390625 140.839844 71.035156 140.957031 C 71.679688 141.074219 72.316406 141.246094 72.925781 141.476562 C 73.53125 141.707031 74.117188 142 74.644531 142.363281 C 75.171875 142.726562 75.644531 143.164062 76.015625 143.667969 C 76.203125 143.921875 76.363281 144.191406 76.496094 144.476562 C 76.628906 144.757812 76.730469 145.054688 76.804688 145.359375 C 76.878906 145.664062 76.925781 145.980469 76.941406 146.296875 C 76.960938 146.613281 76.953125 146.933594 76.921875 147.257812 C 76.890625 147.578125 76.839844 147.902344 76.765625 148.21875 C 76.691406 148.539062 76.601562 148.851562 76.496094 149.164062 C 76.386719 149.476562 76.261719 149.785156 76.125 150.089844 L 76.019531 150.316406 L 75.90625 150.539062 C 75.871094 150.617188 75.832031 150.6875 75.792969 150.761719 L 75.734375 150.875 C 75.714844 150.910156 75.691406 150.949219 75.671875 150.984375 C 75.511719 151.277344 75.335938 151.566406 75.152344 151.851562 C 74.972656 152.136719 74.777344 152.417969 74.578125 152.695312 C 73.78125 153.800781 72.871094 154.84375 71.914062 155.851562 C 70.953125 156.863281 69.945312 157.839844 68.921875 158.8125 C 67.894531 159.785156 66.851562 160.75 65.828125 161.757812 C 65.570312 162.011719 65.316406 162.261719 65.0625 162.519531 C 64.808594 162.777344 64.558594 163.039062 64.308594 163.304688 C 64.0625 163.574219 63.816406 163.84375 63.578125 164.121094 C 63.335938 164.398438 63.101562 164.683594 62.875 164.976562 C 62.652344 165.265625 62.425781 165.566406 62.214844 165.886719 C 62.007812 166.210938 61.808594 166.550781 61.648438 166.929688 C 61.570312 167.117188 61.5 167.316406 61.445312 167.519531 C 61.417969 167.621094 61.398438 167.726562 61.378906 167.832031 C 61.359375 167.941406 61.34375 168.046875 61.335938 168.15625 C 61.328125 168.265625 61.324219 168.375 61.324219 168.488281 C 61.328125 168.542969 61.328125 168.597656 61.332031 168.652344 L 61.347656 168.820312 C 61.375 169.039062 61.425781 169.257812 61.496094 169.46875 L 61.523438 169.546875 C 61.535156 169.570312 61.542969 169.597656 61.554688 169.621094 L 61.617188 169.777344 L 61.6875 169.921875 C 61.710938 169.972656 61.742188 170.019531 61.765625 170.066406 C 61.875 170.257812 62 170.433594 62.132812 170.597656 C 62.265625 170.761719 62.414062 170.914062 62.566406 171.054688 C 62.71875 171.195312 62.878906 171.324219 63.046875 171.441406 C 63.210938 171.5625 63.382812 171.667969 63.558594 171.769531 C 63.730469 171.867188 63.910156 171.957031 64.089844 172.042969 C 64.457031 172.207031 64.828125 172.339844 65.214844 172.441406 C 65.308594 172.46875 65.40625 172.488281 65.503906 172.511719 C 65.597656 172.53125 65.691406 172.550781 65.785156 172.570312 C 65.878906 172.585938 65.976562 172.605469 66.070312 172.621094 L 66.285156 172.65625 L 66.355469 172.667969 C 66.734375 172.71875 67.117188 172.753906 67.5 172.773438 C 68.261719 172.808594 69.027344 172.777344 69.777344 172.699219 C 70.527344 172.625 71.273438 172.5 72.003906 172.351562 C 72.371094 172.277344 72.734375 172.195312 73.097656 172.113281 C 73.460938 172.027344 73.820312 171.9375 74.175781 171.839844 C 74.535156 171.746094 74.894531 171.652344 75.25 171.558594 C 75.605469 171.457031 75.964844 171.359375 76.320312 171.257812 L 76.589844 171.183594 C 76.679688 171.15625 76.765625 171.128906 76.855469 171.101562 C 77.03125 171.050781 77.210938 170.996094 77.386719 170.941406 C 77.566406 170.890625 77.746094 170.835938 77.921875 170.78125 C 78.097656 170.726562 78.277344 170.667969 78.453125 170.613281 C 78.628906 170.558594 78.808594 170.5 78.984375 170.445312 C 79.164062 170.390625 79.339844 170.332031 79.515625 170.273438 C 79.867188 170.152344 80.222656 170.035156 80.574219 169.917969 C 80.664062 169.886719 80.75 169.855469 80.835938 169.824219 L 81.101562 169.730469 C 81.277344 169.667969 81.453125 169.605469 81.628906 169.546875 C 81.980469 169.421875 82.328125 169.289062 82.679688 169.160156 C 82.855469 169.097656 83.03125 169.03125 83.207031 168.964844 C 83.292969 168.933594 83.378906 168.898438 83.46875 168.867188 L 83.726562 168.765625 C 83.902344 168.699219 84.078125 168.628906 84.25 168.5625 L 84.511719 168.457031 L 84.644531 168.410156 L 84.773438 168.355469 C 85.121094 168.214844 85.464844 168.074219 85.8125 167.933594 L 85.945312 167.882812 L 86.074219 167.824219 L 86.332031 167.71875 C 86.503906 167.644531 86.679688 167.570312 86.851562 167.496094 L 87.238281 167.335938 L 87.367188 167.277344 C 87.539062 167.203125 87.710938 167.128906 87.882812 167.050781 C 88.054688 166.976562 88.226562 166.902344 88.398438 166.824219 L 88.527344 166.769531 L 88.914062 166.59375 C 89.085938 166.515625 89.253906 166.441406 89.425781 166.359375 L 89.683594 166.246094 L 89.8125 166.1875 L 89.9375 166.128906 C 90.28125 165.96875 90.621094 165.808594 90.960938 165.648438 C 92.320312 164.996094 93.667969 164.324219 95.007812 163.625 C 95.34375 163.449219 95.679688 163.269531 96.011719 163.09375 C 96.179688 163.007812 96.34375 162.914062 96.511719 162.824219 C 96.679688 162.734375 96.84375 162.644531 97.011719 162.554688 C 97.175781 162.464844 97.34375 162.375 97.511719 162.28125 C 97.675781 162.191406 97.839844 162.097656 98.007812 162.007812 C 98.335938 161.824219 98.667969 161.640625 99 161.449219 C 99.285156 161.285156 99.570312 161.125 99.855469 160.964844 C 100.140625 160.796875 100.425781 160.632812 100.710938 160.46875 L 101.136719 160.21875 L 101.558594 159.96875 C 101.839844 159.800781 102.121094 159.632812 102.402344 159.464844 C 102.964844 159.125 103.527344 158.789062 104.082031 158.445312 C 104.359375 158.273438 104.640625 158.101562 104.914062 157.929688 C 105.191406 157.753906 105.46875 157.582031 105.746094 157.410156 C 106.023438 157.238281 106.296875 157.0625 106.570312 156.886719 L 106.984375 156.625 L 107.191406 156.492188 L 107.394531 156.359375 C 107.667969 156.183594 107.941406 156.007812 108.214844 155.828125 C 108.351562 155.742188 108.488281 155.652344 108.625 155.566406 C 108.757812 155.472656 108.894531 155.386719 109.03125 155.296875 C 109.574219 154.941406 110.113281 154.582031 110.652344 154.222656 C 110.925781 154.042969 111.191406 153.863281 111.460938 153.683594 C 111.730469 153.5 112 153.320312 112.265625 153.140625 C 112.53125 152.957031 112.800781 152.773438 113.066406 152.59375 C 113.332031 152.410156 113.597656 152.226562 113.863281 152.046875 C 114.398438 151.679688 114.925781 151.3125 115.453125 150.945312 C 116.507812 150.210938 117.5625 149.472656 118.605469 148.730469 C 120.691406 147.246094 122.757812 145.753906 124.808594 144.261719 C 128.910156 141.285156 132.957031 138.316406 137.003906 135.449219 C 141.050781 132.582031 145.101562 129.820312 149.207031 127.25 C 149.464844 127.089844 149.722656 126.929688 149.976562 126.773438 C 150.105469 126.691406 150.234375 126.613281 150.363281 126.535156 C 150.492188 126.453125 150.621094 126.378906 150.75 126.296875 C 151.007812 126.140625 151.265625 125.984375 151.523438 125.828125 C 151.78125 125.671875 152.039062 125.519531 152.296875 125.363281 C 153.328125 124.753906 154.371094 124.164062 155.417969 123.597656 C 157.515625 122.464844 159.648438 121.421875 161.808594 120.496094 C 163.972656 119.574219 166.167969 118.769531 168.394531 118.113281 C 170.617188 117.460938 172.867188 116.964844 175.132812 116.664062 C 176.261719 116.511719 177.398438 116.410156 178.527344 116.363281 L 178.738281 116.355469 L 178.953125 116.351562 C 179.09375 116.347656 179.234375 116.34375 179.375 116.339844 C 179.515625 116.335938 179.660156 116.335938 179.800781 116.335938 C 179.941406 116.335938 180.082031 116.335938 180.222656 116.335938 C 180.363281 116.335938 180.503906 116.339844 180.644531 116.34375 L 180.855469 116.347656 C 180.925781 116.347656 180.996094 116.347656 181.066406 116.351562 C 181.210938 116.359375 181.347656 116.363281 181.488281 116.371094 C 181.628906 116.378906 181.769531 116.382812 181.910156 116.390625 C 184.152344 116.527344 186.367188 116.898438 188.492188 117.515625 C 189.558594 117.828125 190.597656 118.195312 191.613281 118.621094 C 192.625 119.046875 193.609375 119.527344 194.5625 120.058594 C 196.472656 121.121094 198.246094 122.386719 199.878906 123.785156 C 198.121094 122.203125 196.179688 120.777344 194.058594 119.59375 " fill-opacity="1" fill-rule="nonzero"/></g><g clip-path="url(#885237fe14)"><path fill="#ffffff" d="M 98.398438 70.027344 C 98.398438 70.027344 86.339844 78.167969 74.871094 70.167969 C 74.871094 70.167969 88.988281 70.996094 98.398438 70.027344 Z M 86.496094 87.929688 C 86.214844 88.066406 85.808594 88.257812 85.292969 88.484375 C 84.777344 88.710938 84.15625 88.96875 83.445312 89.238281 C 83.265625 89.304688 83.082031 89.371094 82.894531 89.441406 C 82.710938 89.511719 82.519531 89.582031 82.320312 89.652344 C 81.929688 89.792969 81.519531 89.933594 81.089844 90.066406 C 80.234375 90.339844 79.308594 90.59375 78.34375 90.8125 C 78.21875 90.835938 78.097656 90.863281 77.976562 90.890625 C 77.855469 90.914062 77.734375 90.941406 77.609375 90.96875 C 77.367188 91.019531 77.117188 91.066406 76.867188 91.109375 C 76.367188 91.199219 75.859375 91.273438 75.347656 91.332031 C 74.320312 91.445312 73.265625 91.492188 72.214844 91.441406 C 71.160156 91.390625 70.101562 91.238281 69.078125 90.964844 C 69.261719 90.921875 69.449219 90.878906 69.636719 90.835938 L 70.199219 90.710938 L 71.324219 90.46875 C 72.074219 90.308594 72.824219 90.148438 73.570312 89.992188 C 74.316406 89.839844 75.054688 89.683594 75.800781 89.539062 C 76.550781 89.394531 77.296875 89.257812 78.042969 89.121094 C 78.785156 88.984375 79.527344 88.851562 80.269531 88.722656 L 81.378906 88.53125 C 81.5625 88.5 81.75 88.472656 81.9375 88.441406 L 82.492188 88.355469 C 83.980469 88.125 85.457031 87.910156 86.921875 87.710938 C 86.921875 87.710938 86.773438 87.792969 86.496094 87.929688 Z M 25.410156 158.074219 C 25.164062 158.457031 24.648438 158.664062 24.152344 158.578125 C 23.332031 158.433594 22.914062 157.644531 23.328125 157.007812 C 23.574219 156.621094 24.089844 156.414062 24.585938 156.5 C 25.40625 156.644531 25.824219 157.4375 25.410156 158.074219 Z M 131.101562 23.203125 C 131.082031 23.09375 131.027344 22.984375 130.945312 22.878906 C 130.859375 22.777344 130.742188 22.683594 130.597656 22.609375 C 129.734375 22.167969 128.835938 21.777344 127.90625 21.433594 L 127.730469 21.367188 C 127.671875 21.347656 127.609375 21.324219 127.546875 21.304688 L 126.8125 21.0625 C 126.75 21.042969 126.6875 21.023438 126.628906 21.003906 L 126.445312 20.949219 C 126.203125 20.875 125.960938 20.804688 125.714844 20.734375 C 125.472656 20.664062 125.234375 20.601562 124.992188 20.535156 C 123.054688 20.03125 121.136719 19.6875 119.21875 19.480469 C 117.300781 19.273438 115.394531 19.203125 113.5 19.246094 C 113.03125 19.261719 112.554688 19.277344 112.078125 19.296875 C 111.613281 19.328125 111.144531 19.359375 110.675781 19.398438 C 110.199219 19.429688 109.742188 19.484375 109.277344 19.535156 L 108.578125 19.617188 L 108.226562 19.660156 L 107.882812 19.710938 C 107.882812 19.710938 107.6875 19.730469 107.3125 19.792969 C 107.125 19.828125 106.894531 19.871094 106.621094 19.925781 C 106.484375 19.957031 106.335938 19.988281 106.179688 20.023438 C 106.023438 20.0625 105.859375 20.105469 105.6875 20.152344 C 104.996094 20.34375 104.140625 20.597656 103.199219 20.976562 C 102.964844 21.070312 102.71875 21.167969 102.46875 21.273438 C 102.339844 21.328125 102.210938 21.382812 102.082031 21.4375 C 101.957031 21.496094 101.828125 21.558594 101.699219 21.621094 C 101.179688 21.867188 100.636719 22.140625 100.070312 22.445312 C 99.515625 22.761719 98.945312 23.105469 98.355469 23.480469 C 98.054688 23.667969 97.769531 23.875 97.476562 24.082031 C 97.179688 24.292969 96.882812 24.511719 96.582031 24.738281 C 96.433594 24.851562 96.28125 24.96875 96.132812 25.085938 C 95.984375 25.203125 95.835938 25.328125 95.6875 25.453125 C 95.394531 25.703125 95.09375 25.960938 94.796875 26.226562 C 94.648438 26.363281 94.496094 26.496094 94.347656 26.636719 C 94.308594 26.671875 94.273438 26.703125 94.234375 26.742188 C 94.199219 26.777344 94.160156 26.8125 94.125 26.847656 C 94.050781 26.917969 93.980469 26.988281 93.90625 27.0625 C 93.613281 27.355469 93.324219 27.652344 93.03125 27.960938 C 92.4375 28.578125 91.886719 29.246094 91.328125 29.949219 C 91.1875 30.125 91.050781 30.304688 90.914062 30.484375 C 90.84375 30.574219 90.773438 30.664062 90.707031 30.757812 C 90.640625 30.851562 90.574219 30.941406 90.507812 31.035156 C 90.246094 31.414062 89.984375 31.796875 89.726562 32.191406 C 89.597656 32.386719 89.46875 32.589844 89.339844 32.789062 C 89.277344 32.890625 89.214844 32.992188 89.152344 33.097656 C 89.09375 33.199219 89.03125 33.304688 88.972656 33.40625 C 88.730469 33.828125 88.496094 34.253906 88.261719 34.691406 C 88.148438 34.910156 88.03125 35.128906 87.917969 35.355469 C 87.863281 35.464844 87.804688 35.578125 87.75 35.691406 C 87.699219 35.804688 87.644531 35.921875 87.589844 36.035156 C 87.378906 36.496094 87.175781 36.96875 86.976562 37.449219 C 86.976562 37.449219 86.910156 37.273438 86.90625 36.847656 C 86.90625 36.632812 86.917969 36.355469 86.960938 36.003906 C 86.984375 35.828125 87.015625 35.632812 87.054688 35.417969 C 87.074219 35.3125 87.097656 35.199219 87.121094 35.082031 C 87.136719 35.023438 87.148438 34.960938 87.164062 34.902344 C 87.175781 34.839844 87.195312 34.777344 87.210938 34.714844 C 87.347656 34.207031 87.53125 33.613281 87.792969 32.921875 C 87.921875 32.574219 88.066406 32.207031 88.234375 31.808594 C 88.414062 31.417969 88.613281 31 88.835938 30.554688 C 89.058594 30.113281 89.304688 29.640625 89.582031 29.140625 C 89.867188 28.644531 90.1875 28.121094 90.535156 27.570312 C 90.710938 27.292969 90.894531 27.007812 91.085938 26.71875 C 91.28125 26.425781 91.492188 26.132812 91.710938 25.828125 C 91.925781 25.527344 92.15625 25.214844 92.390625 24.894531 C 92.511719 24.738281 92.632812 24.574219 92.753906 24.414062 C 92.886719 24.25 93.015625 24.089844 93.148438 23.921875 L 92.671875 24.125 C 92.589844 24.160156 92.515625 24.195312 92.4375 24.230469 L 92.203125 24.335938 L 91.273438 24.769531 L 90.34375 25.207031 C 90.1875 25.28125 90.039062 25.355469 89.886719 25.433594 L 89.4375 25.664062 L 88.53125 26.128906 L 88.082031 26.363281 L 87.855469 26.484375 C 87.78125 26.523438 87.703125 26.5625 87.632812 26.605469 C 87.046875 26.929688 86.464844 27.261719 85.878906 27.59375 L 85.441406 27.847656 L 85.222656 27.972656 L 85.011719 28.101562 L 84.164062 28.625 L 83.316406 29.152344 C 83.035156 29.328125 82.75 29.507812 82.480469 29.6875 C 81.933594 30.054688 81.386719 30.421875 80.84375 30.792969 L 80.4375 31.074219 L 80.230469 31.214844 L 80.035156 31.359375 L 79.246094 31.929688 C 75.03125 35.007812 71.226562 38.402344 67.792969 41.960938 C 67.71875 42.035156 67.652344 42.109375 67.582031 42.179688 L 67.378906 42.40625 C 67.242188 42.554688 67.109375 42.707031 66.976562 42.859375 C 66.714844 43.160156 66.457031 43.46875 66.203125 43.785156 C 65.953125 44.097656 65.707031 44.414062 65.46875 44.734375 C 65.410156 44.816406 65.355469 44.898438 65.296875 44.980469 L 65.128906 45.222656 C 65.019531 45.386719 64.910156 45.550781 64.800781 45.71875 C 64.371094 46.378906 63.972656 47.058594 63.601562 47.746094 L 63.464844 48.003906 C 63.417969 48.089844 63.375 48.175781 63.332031 48.265625 C 63.25 48.4375 63.164062 48.613281 63.085938 48.789062 C 62.921875 49.140625 62.769531 49.492188 62.621094 49.851562 C 62.472656 50.207031 62.335938 50.5625 62.203125 50.921875 C 62.140625 51.101562 62.078125 51.28125 62.015625 51.464844 C 61.984375 51.554688 61.953125 51.644531 61.925781 51.734375 L 61.84375 52.007812 C 61.628906 52.738281 61.445312 53.472656 61.296875 54.210938 C 61.222656 54.578125 61.15625 54.949219 61.097656 55.320312 C 61.070312 55.503906 61.042969 55.6875 61.019531 55.875 C 60.996094 56.058594 60.980469 56.246094 60.960938 56.433594 C 60.894531 57.175781 60.859375 57.921875 60.859375 58.664062 C 60.863281 59.113281 60.867188 59.558594 60.882812 59.988281 C 60.890625 60.207031 60.898438 60.421875 60.910156 60.628906 C 60.910156 60.683594 60.914062 60.734375 60.917969 60.789062 C 60.921875 60.839844 60.925781 60.890625 60.929688 60.945312 C 60.9375 61.046875 60.945312 61.152344 60.953125 61.253906 C 61.019531 62.074219 61.117188 62.84375 61.246094 63.539062 C 61.5 64.925781 61.882812 66.023438 62.417969 66.675781 C 62.417969 66.675781 62.257812 66.597656 61.976562 66.320312 C 61.691406 66.042969 61.285156 65.566406 60.789062 64.765625 C 60.296875 63.960938 59.714844 62.832031 59.097656 61.234375 C 58.941406 60.835938 58.785156 60.40625 58.628906 59.945312 C 58.472656 59.488281 58.308594 58.992188 58.15625 58.46875 C 57.851562 57.417969 57.546875 56.234375 57.253906 54.886719 C 53.285156 60.609375 49.988281 66.445312 47.234375 72.1875 C 44.480469 77.929688 42.265625 83.574219 40.453125 88.964844 C 40.300781 89.417969 40.160156 89.875 40.027344 90.332031 C 39.902344 90.792969 39.777344 91.25 39.683594 91.714844 C 39.488281 92.644531 39.335938 93.578125 39.238281 94.515625 C 39.1875 94.984375 39.148438 95.453125 39.121094 95.921875 C 39.109375 96.15625 39.101562 96.394531 39.09375 96.625 C 39.089844 96.746094 39.085938 96.859375 39.085938 96.980469 L 39.089844 97.332031 C 39.097656 98.273438 39.15625 99.210938 39.265625 100.144531 C 39.351562 100.875 39.449219 101.589844 39.5625 102.265625 C 39.617188 102.605469 39.675781 102.9375 39.738281 103.253906 C 39.804688 103.574219 39.875 103.882812 39.949219 104.175781 C 40.242188 105.355469 40.589844 106.324219 41 106.945312 C 41 106.945312 40.546875 106.355469 39.820312 105.246094 C 39.460938 104.691406 39.03125 104.007812 38.558594 103.203125 C 38.441406 103 38.320312 102.789062 38.195312 102.574219 C 38.074219 102.355469 37.953125 102.132812 37.828125 101.902344 C 37.578125 101.4375 37.320312 100.945312 37.054688 100.425781 C 36.679688 101.835938 36.359375 103.226562 36.042969 104.582031 C 35.886719 105.257812 35.734375 105.925781 35.585938 106.585938 C 35.515625 106.914062 35.441406 107.242188 35.371094 107.570312 C 35.304688 107.894531 35.238281 108.21875 35.171875 108.542969 C 34.910156 109.832031 34.664062 111.082031 34.4375 112.296875 C 34.378906 112.597656 34.324219 112.902344 34.269531 113.199219 C 34.253906 113.273438 34.238281 113.347656 34.226562 113.421875 C 34.214844 113.496094 34.199219 113.570312 34.1875 113.644531 C 34.164062 113.792969 34.136719 113.941406 34.113281 114.089844 C 34.011719 114.679688 33.917969 115.257812 33.824219 115.824219 C 33.640625 116.960938 33.46875 118.054688 33.3125 119.109375 C 33.292969 119.238281 33.273438 119.371094 33.253906 119.5 C 33.234375 119.628906 33.214844 119.761719 33.199219 119.890625 C 33.164062 120.144531 33.128906 120.402344 33.097656 120.652344 C 33.03125 121.160156 32.96875 121.652344 32.90625 122.132812 C 32.785156 123.097656 32.675781 124.015625 32.574219 124.882812 C 32.550781 125.101562 32.523438 125.3125 32.5 125.523438 C 32.476562 125.734375 32.453125 125.945312 32.433594 126.148438 C 32.394531 126.558594 32.359375 126.957031 32.320312 127.339844 C 32.316406 127.40625 32.300781 127.472656 32.277344 127.53125 L 31.207031 130.285156 L 30.671875 131.660156 L 30.539062 132.003906 L 30.410156 132.351562 L 30.152344 133.042969 L 29.121094 135.800781 L 28.347656 137.875 L 28.21875 138.21875 L 28.09375 138.566406 L 26.980469 141.65625 L 27.035156 141.679688 C 26.890625 142.074219 26.746094 142.472656 26.601562 142.871094 C 26.125 144.183594 25.667969 145.488281 25.230469 146.773438 C 25.121094 147.097656 25.015625 147.417969 24.90625 147.738281 C 24.804688 148.058594 24.699219 148.375 24.597656 148.695312 C 24.394531 149.332031 24.195312 149.964844 24.003906 150.589844 C 23.847656 151.097656 23.695312 151.601562 23.542969 152.105469 L 19.324219 164.40625 C 19.230469 164.679688 19.636719 164.871094 19.839844 164.648438 C 22.167969 162.121094 26.902344 159.035156 28.234375 158.1875 C 28.394531 158.085938 28.371094 157.875 28.195312 157.796875 C 27.019531 157.269531 26.113281 156.433594 25.425781 155.5625 C 26.96875 151.179688 28.492188 146.964844 30.003906 142.90625 L 30.035156 142.917969 L 31.09375 140.046875 C 31.355469 139.320312 31.636719 138.601562 31.910156 137.878906 L 32.738281 135.71875 L 33.5625 133.554688 C 33.699219 133.191406 33.847656 132.835938 33.988281 132.476562 L 34.414062 131.398438 L 35.269531 129.242188 L 35.695312 128.167969 L 36.015625 127.359375 L 36.128906 127.089844 L 37.894531 122.800781 L 38.335938 121.726562 L 38.792969 120.660156 L 40.621094 116.386719 C 40.695312 116.210938 40.777344 116.03125 40.855469 115.855469 L 41.089844 115.324219 L 42.980469 111.074219 C 43.140625 110.71875 43.304688 110.367188 43.46875 110.015625 L 45.421875 105.785156 L 47.445312 101.578125 C 50.175781 95.984375 53.066406 90.449219 56.15625 84.992188 C 56.914062 83.621094 57.722656 82.273438 58.511719 80.917969 L 59.109375 79.902344 L 59.183594 79.777344 L 59.261719 79.648438 L 59.414062 79.398438 L 59.722656 78.894531 L 60.953125 76.878906 L 61.261719 76.375 C 61.363281 76.207031 61.464844 76.039062 61.570312 75.875 L 62.207031 74.875 L 63.480469 72.878906 L 63.636719 72.628906 L 63.71875 72.503906 L 63.800781 72.382812 L 64.128906 71.886719 L 65.441406 69.910156 L 65.769531 69.417969 L 65.933594 69.167969 C 65.988281 69.085938 66.046875 69.007812 66.105469 68.925781 L 67.460938 66.96875 L 68.140625 65.992188 C 68.371094 65.667969 68.605469 65.347656 68.839844 65.023438 L 70.242188 63.089844 L 70.414062 62.851562 L 70.597656 62.609375 L 70.957031 62.132812 L 71.683594 61.179688 L 72.40625 60.222656 L 72.585938 59.984375 C 72.648438 59.90625 72.710938 59.828125 72.773438 59.75 L 73.148438 59.28125 L 74.640625 57.394531 C 74.703125 57.316406 74.765625 57.238281 74.828125 57.160156 L 75.023438 56.929688 L 75.410156 56.464844 L 76.179688 55.535156 L 76.953125 54.609375 L 77.746094 53.695312 L 78.542969 52.78125 L 78.941406 52.328125 C 79.007812 52.25 79.074219 52.175781 79.140625 52.101562 L 79.347656 51.875 L 80.992188 50.082031 L 81.195312 49.855469 C 81.265625 49.78125 81.335938 49.707031 81.40625 49.636719 L 81.832031 49.195312 L 83.101562 47.871094 L 83.3125 47.652344 C 83.386719 47.578125 83.460938 47.507812 83.53125 47.4375 L 84.40625 46.574219 C 86.738281 44.273438 89.183594 42.050781 91.78125 39.949219 L 91.609375 40.089844 C 91.550781 40.136719 91.496094 40.183594 91.441406 40.234375 L 91.109375 40.523438 L 90.445312 41.097656 L 89.78125 41.675781 L 89.613281 41.820312 L 89.449219 41.96875 L 89.128906 42.265625 L 87.839844 43.449219 L 87.519531 43.746094 L 87.207031 44.050781 L 86.582031 44.65625 L 85.960938 45.261719 L 85.648438 45.566406 C 85.597656 45.617188 85.542969 45.667969 85.492188 45.71875 L 85.34375 45.875 L 84.132812 47.113281 L 83.527344 47.730469 C 83.332031 47.941406 83.136719 48.152344 82.941406 48.359375 L 81.773438 49.625 C 78.679688 53.007812 75.8125 56.527344 73.121094 60.136719 C 70.425781 63.742188 67.90625 67.4375 65.511719 71.1875 L 64.617188 72.597656 L 64.390625 72.949219 L 64.175781 73.304688 L 63.742188 74.011719 L 62.441406 76.144531 L 62.222656 76.496094 L 62.015625 76.855469 L 60.339844 79.722656 L 60.128906 80.078125 L 60.023438 80.257812 L 59.921875 80.4375 L 59.519531 81.160156 L 58.707031 82.605469 L 57.898438 84.046875 C 57.832031 84.167969 57.765625 84.289062 57.699219 84.410156 L 57.503906 84.773438 L 57.113281 85.503906 C 56.59375 86.472656 56.070312 87.441406 55.550781 88.414062 L 54.039062 91.34375 L 53.664062 92.074219 C 53.539062 92.320312 53.410156 92.5625 53.289062 92.808594 L 52.558594 94.285156 L 51.828125 95.757812 L 51.464844 96.496094 L 51.28125 96.863281 L 51.191406 97.046875 L 51.101562 97.234375 L 49.691406 100.199219 L 48.988281 101.683594 L 48.308594 103.171875 L 46.945312 106.15625 L 46.773438 106.527344 C 46.71875 106.652344 46.664062 106.78125 46.609375 106.902344 L 46.28125 107.652344 L 44.964844 110.652344 C 44.75 111.152344 44.523438 111.648438 44.316406 112.152344 L 43.046875 115.164062 L 42.414062 116.671875 C 42.304688 116.921875 42.207031 117.175781 42.101562 117.425781 L 41.796875 118.183594 L 40.570312 121.210938 L 40.265625 121.964844 L 40.113281 122.34375 L 39.964844 122.722656 L 39.371094 124.242188 L 38.1875 127.28125 L 37.894531 128.042969 L 37.605469 128.804688 L 37.035156 130.328125 C 36.792969 130.980469 37.550781 131.574219 38.144531 131.199219 C 39.054688 130.628906 39.949219 130.0625 40.832031 129.496094 C 41.277344 129.214844 41.71875 128.933594 42.15625 128.652344 C 42.59375 128.371094 43.03125 128.09375 43.464844 127.816406 C 44.328125 127.257812 45.175781 126.703125 46.015625 126.148438 C 46.429688 125.871094 46.84375 125.59375 47.257812 125.316406 C 47.675781 125.042969 48.085938 124.769531 48.496094 124.496094 C 49.316406 123.953125 50.125 123.410156 50.914062 122.867188 C 51.3125 122.59375 51.703125 122.324219 52.09375 122.054688 C 52.484375 121.785156 52.867188 121.511719 53.257812 121.246094 C 54.808594 120.179688 56.308594 119.117188 57.757812 118.0625 C 63.585938 113.863281 68.730469 109.832031 73.277344 105.953125 C 71.910156 106.082031 70.660156 106.179688 69.527344 106.246094 C 68.398438 106.316406 67.382812 106.363281 66.472656 106.378906 C 64.648438 106.417969 63.238281 106.355469 62.175781 106.253906 C 61.109375 106.148438 60.390625 106.007812 59.933594 105.886719 C 59.480469 105.765625 59.292969 105.671875 59.292969 105.671875 C 61.355469 106.335938 63.710938 106.195312 66.078125 105.636719 C 66.371094 105.566406 66.667969 105.492188 66.964844 105.40625 C 67.113281 105.363281 67.261719 105.324219 67.410156 105.277344 C 67.558594 105.234375 67.707031 105.191406 67.855469 105.144531 C 68.453125 104.960938 69.042969 104.757812 69.628906 104.535156 C 70.800781 104.097656 71.945312 103.597656 73.027344 103.078125 C 73.300781 102.945312 73.570312 102.816406 73.835938 102.691406 C 74.101562 102.5625 74.363281 102.429688 74.621094 102.300781 C 75.132812 102.042969 75.628906 101.78125 76.101562 101.527344 C 76.570312 101.273438 77.019531 101.023438 77.441406 100.78125 C 77.859375 100.542969 78.257812 100.316406 78.625 100.101562 C 80.097656 99.257812 81.066406 98.632812 81.285156 98.535156 C 81.308594 98.523438 81.335938 98.53125 81.355469 98.546875 C 81.378906 98.574219 81.417969 98.574219 81.441406 98.550781 C 85.328125 94.796875 88.664062 91.1875 91.546875 87.703125 C 94.433594 84.21875 96.867188 80.855469 98.957031 77.59375 C 99.085938 77.386719 99.214844 77.179688 99.34375 76.976562 C 99.472656 76.777344 99.597656 76.574219 99.726562 76.375 C 99.976562 75.972656 100.222656 75.570312 100.464844 75.164062 C 100.523438 75.0625 100.582031 74.960938 100.640625 74.859375 L 100.730469 74.707031 L 100.820312 74.558594 C 100.9375 74.363281 101.054688 74.164062 101.171875 73.96875 C 101.40625 73.570312 101.632812 73.171875 101.851562 72.769531 C 101.90625 72.671875 101.960938 72.570312 102.015625 72.46875 C 102.070312 72.371094 102.125 72.277344 102.179688 72.179688 C 102.292969 71.984375 102.398438 71.789062 102.507812 71.59375 C 102.722656 71.199219 102.929688 70.804688 103.132812 70.410156 C 103.183594 70.308594 103.234375 70.214844 103.285156 70.117188 C 103.335938 70.019531 103.390625 69.925781 103.441406 69.828125 C 103.542969 69.636719 103.640625 69.441406 103.742188 69.25 C 103.839844 69.054688 103.9375 68.859375 104.035156 68.664062 C 104.082031 68.566406 104.128906 68.46875 104.175781 68.371094 C 104.226562 68.273438 104.273438 68.171875 104.320312 68.078125 C 105.847656 65 107.148438 61.996094 108.351562 59.046875 C 107.902344 59.070312 107.460938 59.089844 107.03125 59.109375 C 106.597656 59.144531 106.171875 59.179688 105.757812 59.210938 C 105.546875 59.226562 105.339844 59.242188 105.132812 59.257812 C 105.03125 59.265625 104.925781 59.273438 104.824219 59.28125 C 104.773438 59.285156 104.722656 59.289062 104.671875 59.292969 C 104.621094 59.296875 104.570312 59.300781 104.519531 59.308594 C 104.113281 59.347656 103.71875 59.386719 103.332031 59.425781 C 102.941406 59.464844 102.558594 59.503906 102.1875 59.539062 C 102.140625 59.542969 102.09375 59.546875 102.046875 59.554688 C 102 59.558594 101.953125 59.566406 101.90625 59.570312 C 101.816406 59.582031 101.722656 59.59375 101.632812 59.601562 C 101.449219 59.625 101.269531 59.644531 101.089844 59.667969 C 100.730469 59.707031 100.382812 59.75 100.039062 59.789062 C 99.867188 59.808594 99.699219 59.828125 99.53125 59.84375 C 99.445312 59.855469 99.363281 59.863281 99.28125 59.875 C 99.199219 59.882812 99.117188 59.894531 99.035156 59.90625 C 98.386719 59.988281 97.765625 60.066406 97.175781 60.136719 C 96.878906 60.171875 96.589844 60.203125 96.308594 60.238281 C 96.167969 60.25 96.035156 60.269531 95.898438 60.285156 C 95.761719 60.304688 95.628906 60.320312 95.5 60.339844 C 94.972656 60.402344 94.476562 60.460938 94.011719 60.511719 C 93.777344 60.535156 93.550781 60.558594 93.332031 60.582031 C 93.222656 60.589844 93.113281 60.601562 93.007812 60.613281 C 92.902344 60.621094 92.800781 60.628906 92.699219 60.640625 C 91.082031 60.8125 89.929688 60.863281 89.183594 60.867188 C 89.089844 60.867188 89.003906 60.867188 88.921875 60.867188 C 88.84375 60.867188 88.769531 60.867188 88.703125 60.863281 C 88.566406 60.863281 88.457031 60.859375 88.367188 60.855469 C 88.191406 60.84375 88.109375 60.835938 88.109375 60.835938 C 88.257812 60.824219 88.40625 60.808594 88.558594 60.789062 C 88.632812 60.78125 88.710938 60.773438 88.789062 60.761719 C 88.863281 60.75 88.941406 60.742188 89.023438 60.730469 C 89.335938 60.6875 89.660156 60.628906 89.988281 60.558594 C 90.648438 60.421875 91.332031 60.242188 92.03125 60.019531 C 92.121094 59.992188 92.207031 59.964844 92.296875 59.9375 C 92.386719 59.910156 92.476562 59.882812 92.566406 59.855469 C 92.746094 59.800781 92.929688 59.742188 93.109375 59.679688 C 93.472656 59.558594 93.84375 59.429688 94.210938 59.296875 C 94.945312 59.015625 95.710938 58.742188 96.472656 58.4375 C 96.660156 58.363281 96.851562 58.285156 97.042969 58.207031 C 97.136719 58.167969 97.230469 58.128906 97.328125 58.089844 L 97.46875 58.027344 L 97.613281 57.972656 C 98 57.820312 98.386719 57.667969 98.769531 57.507812 C 98.960938 57.429688 99.152344 57.347656 99.34375 57.269531 L 99.628906 57.144531 L 99.769531 57.085938 C 99.816406 57.0625 99.867188 57.046875 99.914062 57.027344 C 100.300781 56.871094 100.679688 56.71875 101.058594 56.558594 C 101.246094 56.480469 101.4375 56.398438 101.625 56.320312 C 101.71875 56.28125 101.808594 56.242188 101.902344 56.203125 C 101.996094 56.164062 102.089844 56.125 102.183594 56.089844 C 102.558594 55.941406 102.929688 55.789062 103.292969 55.640625 C 103.476562 55.566406 103.65625 55.488281 103.835938 55.414062 L 103.972656 55.355469 L 104.105469 55.304688 C 104.199219 55.269531 104.285156 55.234375 104.375 55.203125 C 104.734375 55.0625 105.085938 54.925781 105.425781 54.785156 C 105.882812 54.59375 106.328125 54.414062 106.75 54.195312 C 106.960938 54.085938 107.167969 53.96875 107.371094 53.847656 L 107.519531 53.757812 L 107.671875 53.667969 C 107.769531 53.609375 107.871094 53.546875 107.96875 53.484375 C 108.164062 53.359375 108.351562 53.230469 108.539062 53.089844 C 108.632812 53.023438 108.722656 52.953125 108.8125 52.878906 L 108.949219 52.769531 L 109.082031 52.664062 C 109.441406 52.382812 109.777344 52.074219 110.097656 51.742188 C 111.386719 50.445312 112.417969 48.863281 113.226562 46.984375 C 113.390625 46.613281 113.546875 46.246094 113.707031 45.878906 C 113.871094 45.515625 114.035156 45.152344 114.199219 44.796875 C 114.28125 44.613281 114.363281 44.433594 114.445312 44.253906 C 114.53125 44.074219 114.613281 43.898438 114.699219 43.722656 C 114.867188 43.367188 115.035156 43.007812 115.207031 42.65625 C 115.382812 42.304688 115.554688 41.957031 115.730469 41.613281 C 115.773438 41.527344 115.816406 41.441406 115.859375 41.355469 C 115.902344 41.265625 115.949219 41.179688 115.992188 41.09375 C 116.082031 40.925781 116.171875 40.753906 116.261719 40.585938 C 116.351562 40.417969 116.441406 40.246094 116.53125 40.078125 C 116.578125 39.992188 116.621094 39.910156 116.667969 39.824219 L 116.734375 39.699219 L 116.804688 39.574219 C 116.992188 39.242188 117.179688 38.910156 117.363281 38.585938 C 117.550781 38.25 117.738281 37.9375 117.929688 37.617188 C 118.027344 37.457031 118.125 37.296875 118.21875 37.136719 C 118.269531 37.058594 118.316406 36.980469 118.367188 36.898438 C 118.414062 36.820312 118.464844 36.746094 118.511719 36.667969 C 118.710938 36.359375 118.90625 36.050781 119.105469 35.742188 C 119.15625 35.667969 119.203125 35.589844 119.253906 35.515625 C 119.304688 35.441406 119.355469 35.363281 119.402344 35.292969 C 119.507812 35.140625 119.605469 34.992188 119.707031 34.847656 C 119.808594 34.699219 119.910156 34.550781 120.011719 34.40625 C 120.0625 34.332031 120.113281 34.257812 120.164062 34.1875 C 120.21875 34.117188 120.265625 34.046875 120.320312 33.976562 C 120.523438 33.691406 120.730469 33.410156 120.941406 33.128906 C 121.042969 32.988281 121.148438 32.855469 121.253906 32.71875 C 121.355469 32.585938 121.460938 32.449219 121.566406 32.316406 C 121.671875 32.183594 121.777344 32.050781 121.882812 31.921875 C 121.988281 31.785156 122.09375 31.660156 122.199219 31.535156 C 122.410156 31.28125 122.625 31.027344 122.835938 30.78125 C 123.046875 30.535156 123.261719 30.300781 123.472656 30.0625 C 123.582031 29.945312 123.6875 29.828125 123.792969 29.714844 C 123.898438 29.601562 124.007812 29.492188 124.113281 29.378906 C 124.324219 29.160156 124.535156 28.941406 124.746094 28.726562 C 125.175781 28.3125 125.589844 27.90625 126.007812 27.539062 C 126.113281 27.445312 126.214844 27.355469 126.316406 27.265625 C 126.417969 27.171875 126.519531 27.082031 126.621094 27 C 126.828125 26.828125 127.03125 26.660156 127.230469 26.496094 C 128.785156 25.210938 130.0625 24.320312 130.835938 23.792969 C 131.054688 23.644531 131.140625 23.425781 131.101562 23.203125 " fill-opacity="1" fill-rule="nonzero"/></g><g fill="#ffffff" fill-opacity="1"><g transform="translate(129.352818, 108.911719)"><g><path d="M 23.78125 0.640625 C 19.445312 0.640625 16.21875 -0.976562 14.09375 -4.21875 L 13.453125 -4.109375 L 13.453125 0 L 4.90625 0 L 4.90625 -47.6875 L 13.453125 -47.6875 L 13.453125 -30.015625 L 14.09375 -29.890625 C 15.269531 -31.515625 16.65625 -32.71875 18.25 -33.5 C 19.84375 -34.28125 21.75 -34.671875 23.96875 -34.671875 C 26.71875 -34.671875 29.117188 -34.019531 31.171875 -32.71875 C 33.234375 -31.425781 34.835938 -29.457031 35.984375 -26.8125 C 37.140625 -24.175781 37.71875 -20.90625 37.71875 -17 C 37.71875 -13.132812 37.117188 -9.878906 35.921875 -7.234375 C 34.734375 -4.585938 33.09375 -2.613281 31 -1.3125 C 28.90625 -0.0078125 26.5 0.640625 23.78125 0.640625 Z M 21.1875 -6.59375 C 23.695312 -6.59375 25.609375 -7.429688 26.921875 -9.109375 C 28.242188 -10.785156 28.90625 -13.414062 28.90625 -17 C 28.90625 -20.59375 28.242188 -23.226562 26.921875 -24.90625 C 25.609375 -26.582031 23.695312 -27.421875 21.1875 -27.421875 C 18.78125 -27.421875 16.875 -26.554688 15.46875 -24.828125 C 14.0625 -23.097656 13.359375 -20.488281 13.359375 -17 C 13.359375 -13.5 14.0625 -10.890625 15.46875 -9.171875 C 16.875 -7.453125 18.78125 -6.59375 21.1875 -6.59375 Z M 21.1875 -6.59375 "/></g></g></g><g fill="#ffffff" fill-opacity="1"><g transform="translate(170.096148, 108.911719)"><g><path d="M 14.125 0.640625 C 11.0625 0.640625 8.722656 -0.179688 7.109375 -1.828125 C 5.492188 -3.484375 4.6875 -6 4.6875 -9.375 L 4.6875 -47.6875 L 13.234375 -47.6875 L 13.234375 -9.71875 C 13.234375 -7.632812 14.097656 -6.59375 15.828125 -6.59375 C 16.316406 -6.59375 16.835938 -6.675781 17.390625 -6.84375 L 17.828125 -6.71875 L 18.59375 -0.15625 C 18.125 0.09375 17.5 0.285156 16.71875 0.421875 C 15.9375 0.566406 15.070312 0.640625 14.125 0.640625 Z M 14.125 0.640625 "/></g></g></g><g fill="#ffffff" fill-opacity="1"><g transform="translate(189.650479, 108.911719)"><g><path d="M 19.765625 0.640625 C 16.441406 0.640625 13.519531 -0.0390625 11 -1.40625 C 8.476562 -2.769531 6.519531 -4.769531 5.125 -7.40625 C 3.738281 -10.050781 3.046875 -13.25 3.046875 -17 C 3.046875 -20.738281 3.738281 -23.929688 5.125 -26.578125 C 6.519531 -29.234375 8.476562 -31.242188 11 -32.609375 C 13.519531 -33.984375 16.441406 -34.671875 19.765625 -34.671875 C 23.097656 -34.671875 26.023438 -33.984375 28.546875 -32.609375 C 31.066406 -31.242188 33.023438 -29.234375 34.421875 -26.578125 C 35.816406 -23.929688 36.515625 -20.738281 36.515625 -17 C 36.515625 -13.25 35.816406 -10.050781 34.421875 -7.40625 C 33.023438 -4.769531 31.066406 -2.769531 28.546875 -1.40625 C 26.023438 -0.0390625 23.097656 0.640625 19.765625 0.640625 Z M 19.765625 -6.59375 C 25.054688 -6.59375 27.703125 -10.0625 27.703125 -17 C 27.703125 -20.59375 27.019531 -23.226562 25.65625 -24.90625 C 24.300781 -26.582031 22.335938 -27.421875 19.765625 -27.421875 C 14.484375 -27.421875 11.84375 -23.945312 11.84375 -17 C 11.84375 -10.0625 14.484375 -6.59375 19.765625 -6.59375 Z M 19.765625 -6.59375 "/></g></g></g><g fill="#ffffff" fill-opacity="1"><g transform="translate(229.19094, 108.911719)"><g><path d="M 17.640625 14.4375 C 12.023438 14.4375 7.878906 13.613281 5.203125 11.96875 C 2.535156 10.320312 1.203125 8.03125 1.203125 5.09375 C 1.203125 3.300781 1.769531 1.832031 2.90625 0.6875 C 4.050781 -0.445312 5.691406 -1.210938 7.828125 -1.609375 L 7.828125 -2.25 C 6.679688 -2.945312 5.851562 -3.722656 5.34375 -4.578125 C 4.84375 -5.429688 4.59375 -6.425781 4.59375 -7.5625 C 4.59375 -10.289062 6.375 -12.128906 9.9375 -13.078125 L 9.9375 -13.71875 C 8.101562 -14.769531 6.722656 -16.070312 5.796875 -17.625 C 4.867188 -19.175781 4.40625 -21.050781 4.40625 -23.25 C 4.40625 -25.519531 4.925781 -27.507812 5.96875 -29.21875 C 7.007812 -30.9375 8.53125 -32.273438 10.53125 -33.234375 C 12.539062 -34.191406 14.941406 -34.671875 17.734375 -34.671875 C 20.578125 -34.671875 22.835938 -34.175781 24.515625 -33.1875 C 25.566406 -34.707031 26.175781 -36.46875 26.34375 -38.46875 L 26.984375 -38.859375 L 33.125 -37.359375 C 32.9375 -35.734375 32.460938 -34.367188 31.703125 -33.265625 C 30.941406 -32.160156 29.757812 -31.179688 28.15625 -30.328125 L 28.15625 -29.640625 C 30.070312 -27.953125 31.03125 -25.597656 31.03125 -22.578125 C 31.03125 -20.484375 30.503906 -18.601562 29.453125 -16.9375 C 28.410156 -15.269531 26.882812 -13.953125 24.875 -12.984375 C 22.875 -12.015625 20.492188 -11.53125 17.734375 -11.53125 L 16.4375 -11.5625 C 15.613281 -11.601562 15.039062 -11.625 14.71875 -11.625 C 13.9375 -11.625 13.320312 -11.410156 12.875 -10.984375 C 12.4375 -10.566406 12.21875 -10.03125 12.21875 -9.375 C 12.21875 -8.65625 12.503906 -8.09375 13.078125 -7.6875 C 13.648438 -7.289062 14.492188 -7.070312 15.609375 -7.03125 L 23.234375 -6.75 C 30.753906 -6.53125 34.515625 -3.289062 34.515625 2.96875 C 34.515625 5.164062 33.953125 7.117188 32.828125 8.828125 C 31.710938 10.546875 29.898438 11.910156 27.390625 12.921875 C 24.878906 13.929688 21.628906 14.4375 17.640625 14.4375 Z M 17.734375 -17.515625 C 19.378906 -17.515625 20.664062 -18 21.59375 -18.96875 C 22.519531 -19.9375 22.984375 -21.316406 22.984375 -23.109375 C 22.984375 -24.890625 22.519531 -26.257812 21.59375 -27.21875 C 20.664062 -28.175781 19.378906 -28.65625 17.734375 -28.65625 C 16.066406 -28.65625 14.78125 -28.175781 13.875 -27.21875 C 12.96875 -26.257812 12.515625 -24.890625 12.515625 -23.109375 C 12.515625 -21.296875 12.96875 -19.910156 13.875 -18.953125 C 14.78125 -17.992188 16.066406 -17.515625 17.734375 -17.515625 Z M 17.640625 8.234375 C 20.566406 8.234375 22.691406 7.820312 24.015625 7 C 25.335938 6.175781 26 5.109375 26 3.796875 C 26 2.722656 25.660156 1.929688 24.984375 1.421875 C 24.304688 0.921875 23.226562 0.648438 21.75 0.609375 L 15.015625 0.3125 C 14.796875 0.3125 14.585938 0.300781 14.390625 0.28125 C 14.191406 0.257812 14 0.25 13.8125 0.25 C 12.375 0.25 11.28125 0.554688 10.53125 1.171875 C 9.78125 1.785156 9.40625 2.640625 9.40625 3.734375 C 9.40625 5.171875 10.09375 6.28125 11.46875 7.0625 C 12.851562 7.84375 14.910156 8.234375 17.640625 8.234375 Z M 17.640625 8.234375 "/></g></g></g><g fill="#ffffff" fill-opacity="1"><g transform="translate(264.567624, 108.911719)"><g><path d="M 23.46875 -8.109375 L 25.6875 -1.78125 C 24.769531 -1.019531 23.609375 -0.425781 22.203125 0 C 20.804688 0.425781 19.222656 0.640625 17.453125 0.640625 C 13.773438 0.640625 10.976562 -0.359375 9.0625 -2.359375 C 7.15625 -4.359375 6.203125 -7.273438 6.203125 -11.109375 L 6.203125 -27.265625 L 1.015625 -27.265625 L 1.015625 -34.046875 L 6.203125 -34.046875 L 6.203125 -40.6875 L 14.75 -42.078125 L 14.75 -34.046875 L 24.40625 -34.046875 L 24.40625 -27.265625 L 14.75 -27.265625 L 14.75 -11.71875 C 14.75 -10.03125 15.097656 -8.800781 15.796875 -8.03125 C 16.492188 -7.257812 17.507812 -6.875 18.84375 -6.875 C 20.363281 -6.875 21.691406 -7.285156 22.828125 -8.109375 Z M 23.46875 -8.109375 "/></g></g></g><g fill="#ffffff" fill-opacity="1"><g transform="translate(290.999898, 108.911719)"><g><path d="M 13.265625 0.640625 C 11.085938 0.640625 9.195312 0.238281 7.59375 -0.5625 C 5.988281 -1.363281 4.753906 -2.539062 3.890625 -4.09375 C 3.023438 -5.644531 2.59375 -7.507812 2.59375 -9.6875 C 2.59375 -11.695312 3.023438 -13.382812 3.890625 -14.75 C 4.753906 -16.125 6.085938 -17.25 7.890625 -18.125 C 9.703125 -19 12.066406 -19.671875 14.984375 -20.140625 C 17.023438 -20.472656 18.570312 -20.832031 19.625 -21.21875 C 20.6875 -21.613281 21.398438 -22.054688 21.765625 -22.546875 C 22.140625 -23.035156 22.328125 -23.664062 22.328125 -24.4375 C 22.328125 -25.519531 21.945312 -26.347656 21.1875 -26.921875 C 20.425781 -27.503906 19.160156 -27.796875 17.390625 -27.796875 C 15.503906 -27.796875 13.707031 -27.375 12 -26.53125 C 10.289062 -25.6875 8.8125 -24.578125 7.5625 -23.203125 L 6.9375 -23.203125 L 3.359375 -28.59375 C 5.085938 -30.507812 7.195312 -32 9.6875 -33.0625 C 12.175781 -34.132812 14.890625 -34.671875 17.828125 -34.671875 C 22.328125 -34.671875 25.582031 -33.710938 27.59375 -31.796875 C 29.613281 -29.890625 30.625 -27.175781 30.625 -23.65625 L 30.625 -8.890625 C 30.625 -7.359375 31.296875 -6.59375 32.640625 -6.59375 C 33.148438 -6.59375 33.648438 -6.6875 34.140625 -6.875 L 34.578125 -6.75 L 35.1875 -0.796875 C 34.71875 -0.492188 34.0625 -0.242188 33.21875 -0.046875 C 32.375 0.148438 31.445312 0.25 30.4375 0.25 C 28.40625 0.25 26.816406 -0.140625 25.671875 -0.921875 C 24.535156 -1.703125 23.722656 -2.925781 23.234375 -4.59375 L 22.578125 -4.65625 C 20.910156 -1.125 17.804688 0.640625 13.265625 0.640625 Z M 15.984375 -5.734375 C 17.953125 -5.734375 19.523438 -6.394531 20.703125 -7.71875 C 21.890625 -9.050781 22.484375 -10.898438 22.484375 -13.265625 L 22.484375 -16.71875 L 21.90625 -16.84375 C 21.382812 -16.425781 20.707031 -16.078125 19.875 -15.796875 C 19.039062 -15.523438 17.84375 -15.253906 16.28125 -14.984375 C 14.4375 -14.679688 13.109375 -14.15625 12.296875 -13.40625 C 11.484375 -12.65625 11.078125 -11.585938 11.078125 -10.203125 C 11.078125 -8.742188 11.507812 -7.632812 12.375 -6.875 C 13.238281 -6.113281 14.441406 -5.734375 15.984375 -5.734375 Z M 15.984375 -5.734375 "/></g></g></g><g fill="#ffffff" fill-opacity="1"><g transform="translate(326.870067, 108.911719)"><g><path d="M 9.15625 -38.09375 C 7.613281 -38.09375 6.359375 -38.5625 5.390625 -39.5 C 4.429688 -40.4375 3.953125 -41.644531 3.953125 -43.125 C 3.953125 -44.582031 4.429688 -45.78125 5.390625 -46.71875 C 6.359375 -47.65625 7.613281 -48.125 9.15625 -48.125 C 10.1875 -48.125 11.101562 -47.90625 11.90625 -47.46875 C 12.707031 -47.039062 13.328125 -46.453125 13.765625 -45.703125 C 14.210938 -44.953125 14.4375 -44.09375 14.4375 -43.125 C 14.4375 -42.15625 14.210938 -41.289062 13.765625 -40.53125 C 13.328125 -39.769531 12.707031 -39.171875 11.90625 -38.734375 C 11.101562 -38.304688 10.1875 -38.09375 9.15625 -38.09375 Z M 4.90625 0 L 4.90625 -34.015625 L 13.453125 -34.015625 L 13.453125 0 Z M 4.90625 0 "/></g></g></g><g fill="#ffffff" fill-opacity="1"><g transform="translate(345.190687, 108.911719)"><g><path d="M 14.125 0.640625 C 11.0625 0.640625 8.722656 -0.179688 7.109375 -1.828125 C 5.492188 -3.484375 4.6875 -6 4.6875 -9.375 L 4.6875 -47.6875 L 13.234375 -47.6875 L 13.234375 -9.71875 C 13.234375 -7.632812 14.097656 -6.59375 15.828125 -6.59375 C 16.316406 -6.59375 16.835938 -6.675781 17.390625 -6.84375 L 17.828125 -6.71875 L 18.59375 -0.15625 C 18.125 0.09375 17.5 0.285156 16.71875 0.421875 C 15.9375 0.566406 15.070312 0.640625 14.125 0.640625 Z M 14.125 0.640625 "/></g></g></g></svg>